MontserratZ-Black.ufo
<glyph name="percent" format="2">
  <advance width="917"/>
  <unicode hex="0025"/>
  <outline>
    <contour>
      <point x="135" y="0" type="line"/>
      <point x="613" y="700" type="line"/>
      <point x="782" y="700" type="line"/>
      <point x="304" y="0" type="line"/>
    </contour>
    <contour>
      <point x="202" y="320" type="qcurve" smooth="yes"/>
      <point x="149" y="320"/>
      <point x="65" y="365"/>
      <point x="16" y="453"/>
      <point x="16" y="515" type="qcurve" smooth="yes"/>
      <point x="16" y="577"/>
      <point x="65" y="664"/>
      <point x="149" y="710"/>
      <point x="202" y="710" type="qcurve" smooth="yes"/>
      <point x="255" y="710"/>
      <point x="339" y="664"/>
      <point x="388" y="577"/>
      <point x="388" y="515" type="qcurve" smooth="yes"/>
      <point x="388" y="453"/>
      <point x="339" y="365"/>
      <point x="255" y="320"/>
    </contour>
    <contour>
      <point x="202" y="428" type="qcurve" smooth="yes"/>
      <point x="219" y="428"/>
      <point x="246" y="465"/>
      <point x="246" y="515" type="qcurve" smooth="yes"/>
      <point x="246" y="565"/>
      <point x="219" y="602"/>
      <point x="202" y="602" type="qcurve" smooth="yes"/>
      <point x="186" y="602"/>
      <point x="158" y="565"/>
      <point x="158" y="515" type="qcurve" smooth="yes"/>
      <point x="158" y="465"/>
      <point x="186" y="428"/>
    </contour>
    <contour>
      <point x="715" y="-10" type="qcurve" smooth="yes"/>
      <point x="662" y="-10"/>
      <point x="578" y="35"/>
      <point x="529" y="123"/>
      <point x="529" y="185" type="qcurve" smooth="yes"/>
      <point x="529" y="247"/>
      <point x="578" y="334"/>
      <point x="662" y="380"/>
      <point x="715" y="380" type="qcurve" smooth="yes"/>
      <point x="768" y="380"/>
      <point x="852" y="334"/>
      <point x="901" y="247"/>
      <point x="901" y="185" type="qcurve" smooth="yes"/>
      <point x="901" y="123"/>
      <point x="852" y="35"/>
      <point x="768" y="-10"/>
    </contour>
    <contour>
      <point x="715" y="98" type="qcurve" smooth="yes"/>
      <point x="732" y="98"/>
      <point x="759" y="135"/>
      <point x="759" y="185" type="qcurve" smooth="yes"/>
      <point x="759" y="235"/>
      <point x="732" y="272"/>
      <point x="715" y="272" type="qcurve" smooth="yes"/>
      <point x="699" y="272"/>
      <point x="671" y="235"/>
      <point x="671" y="185" type="qcurve" smooth="yes"/>
      <point x="671" y="135"/>
      <point x="699" y="98"/>
    </contour>
  </outline>
</glyph>
<glyph name="ampersand" format="2">
  <advance width="777"/>
  <unicode hex="0026"/>
  <outline>
    <contour>
      <point x="318" y="-16" type="qcurve" smooth="yes"/>
      <point x="234" y="-16"/>
      <point x="102" y="37"/>
      <point x="26" y="129"/>
      <point x="26" y="187" type="qcurve" smooth="yes"/>
      <point x="26" y="245"/>
      <point x="77" y="334"/>
      <point x="184" y="405"/>
      <point x="266" y="436" type="qcurve" smooth="yes"/>
      <point x="316" y="455"/>
      <point x="373" y="487"/>
      <point x="397" y="516"/>
      <point x="397" y="530" type="qcurve" smooth="yes"/>
      <point x="397" y="546"/>
      <point x="376" y="566"/>
      <point x="355" y="566" type="qcurve" smooth="yes"/>
      <point x="332" y="566"/>
      <point x="307" y="543"/>
      <point x="307" y="526" type="qcurve" smooth="yes"/>
      <point x="307" y="515"/>
      <point x="318" y="493"/>
      <point x="350" y="462"/>
      <point x="379" y="437" type="qcurve" smooth="yes"/>
      <point x="747" y="124" type="line"/>
      <point x="626" y="-13" type="line"/>
      <point x="202" y="351" type="line"/>
      <point x="168" y="379"/>
      <point x="124" y="436"/>
      <point x="102" y="494"/>
      <point x="102" y="523" type="qcurve" smooth="yes"/>
      <point x="102" y="579"/>
      <point x="165" y="664"/>
      <point x="278" y="712"/>
      <point x="354" y="712" type="qcurve" smooth="yes"/>
      <point x="424" y="712"/>
      <point x="528" y="669"/>
      <point x="586" y="589"/>
      <point x="586" y="535" type="qcurve" smooth="yes"/>
      <point x="586" y="487"/>
      <point x="537" y="409"/>
      <point x="436" y="345"/>
      <point x="359" y="316" type="qcurve" smooth="yes"/>
      <point x="319" y="301"/>
      <point x="269" y="269"/>
      <point x="247" y="234"/>
      <point x="247" y="212" type="qcurve" smooth="yes"/>
      <point x="247" y="196"/>
      <point x="268" y="168"/>
      <point x="307" y="152"/>
      <point x="335" y="152" type="qcurve" smooth="yes"/>
      <point x="389" y="152"/>
      <point x="484" y="209"/>
      <point x="553" y="317"/>
      <point x="566" y="392" type="qcurve"/>
      <point x="747" y="338" type="line"/>
      <point x="724" y="235"/>
      <point x="603" y="75"/>
      <point x="426" y="-16"/>
    </contour>
  </outline>
</glyph>
<glyph name="parenleft" format="2">
  <advance width="381"/>
  <unicode hex="0028"/>
  <outline>
    <contour>
      <point x="180" y="-194" type="line"/>
      <point x="116" y="-104"/>
      <point x="47" y="137"/>
      <point x="47" y="274" type="qcurve" smooth="yes"/>
      <point x="47" y="411"/>
      <point x="116" y="652"/>
      <point x="180" y="742" type="qcurve"/>
      <point x="396" y="742" type="line"/>
      <point x="329" y="622"/>
      <point x="268" y="395"/>
      <point x="268" y="274" type="qcurve" smooth="yes"/>
      <point x="268" y="153"/>
      <point x="329" y="-74"/>
      <point x="396" y="-194" type="qcurve"/>
    </contour>
  </outline>
</glyph>
<glyph name="plus" format="2">
  <advance width="620"/>
  <unicode hex="002B"/>
  <outline>
    <contour>
      <point x="220" y="105" type="line"/>
      <point x="220" y="595" type="line"/>
      <point x="400" y="595" type="line"/>
      <point x="400" y="105" type="line"/>
    </contour>
    <contour>
      <point x="55" y="265" type="line"/>
      <point x="55" y="435" type="line"/>
      <point x="565" y="435" type="line"/>
      <point x="565" y="265" type="line"/>
    </contour>
  </outline>
</glyph>
<glyph name="one" format="2">
  <advance width="418"/>
  <unicode hex="0031"/>
  <outline>
    <contour>
      <point x="125" y="0" type="line"/>
      <point x="125" y="618" type="line"/>
      <point x="226" y="522" type="line"/>
      <point x="5" y="522" type="line"/>
      <point x="5" y="700" type="line"/>
      <point x="361" y="700" type="line"/>
      <point x="361" y="0" type="line"/>
    </contour>
  </outline>
</glyph>
<glyph name="three" format="2">
  <advance width="614"/>
  <unicode hex="0033"/>
  <outline>
    <contour>
      <point x="270" y="-16" type="qcurve" smooth="yes"/>
      <point x="198" y="-16"/>
      <point x="50" y="16"/>
      <point x="-6" y="47" type="qcurve"/>
      <point x="74" y="221" type="line"/>
      <point x="119" y="195"/>
      <point x="218" y="170"/>
      <point x="262" y="170" type="qcurve" smooth="yes"/>
      <point x="302" y="170"/>
      <point x="353" y="197"/>
      <point x="353" y="224" type="qcurve" smooth="yes"/>
      <point x="353" y="247"/>
      <point x="315" y="272"/>
      <point x="270" y="272" type="qcurve" smooth="yes"/>
      <point x="177" y="272" type="line"/>
      <point x="177" y="417" type="line"/>
      <point x="358" y="601" type="line"/>
      <point x="379" y="522" type="line"/>
      <point x="30" y="522" type="line"/>
      <point x="30" y="700" type="line"/>
      <point x="552" y="700" type="line"/>
      <point x="552" y="555" type="line"/>
      <point x="371" y="371" type="line"/>
      <point x="258" y="435" type="line"/>
      <point x="320" y="435" type="line" smooth="yes"/>
      <point x="452" y="435"/>
      <point x="590" y="317"/>
      <point x="590" y="224" type="qcurve" smooth="yes"/>
      <point x="590" y="164"/>
      <point x="523" y="54"/>
      <point x="382" y="-16"/>
    </contour>
  </outline>
</glyph>
<glyph name="five" format="2">
  <advance width="619"/>
  <unicode hex="0035"/>
  <outline>
    <contour>
      <point x="281" y="-16" type="qcurve" smooth="yes"/>
      <point x="209" y="-16"/>
      <point x="61" y="16"/>
      <point x="5" y="47" type="qcurve"/>
      <point x="85" y="221" type="line"/>
      <point x="130" y="195"/>
      <point x="228" y="170"/>
      <point x="272" y="170" type="qcurve" smooth="yes"/>
      <point x="312" y="170"/>
      <point x="364" y="198"/>
      <point x="364" y="225" type="qcurve" smooth="yes"/>
      <point x="364" y="240"/>
      <point x="346" y="263"/>
      <point x="301" y="275"/>
      <point x="258" y="275" type="qcurve" smooth="yes"/>
      <point x="55" y="275" type="line"/>
      <point x="90" y="700" type="line"/>
      <point x="555" y="700" type="line"/>
      <point x="555" y="522" type="line"/>
      <point x="173" y="522" type="line"/>
      <point x="292" y="623" type="line"/>
      <point x="271" y="352" type="line"/>
      <point x="152" y="453" type="line"/>
      <point x="315" y="453" type="line" smooth="yes"/>
      <point x="419" y="453"/>
      <point x="544" y="393"/>
      <point x="601" y="292"/>
      <point x="601" y="230" type="qcurve" smooth="yes"/>
      <point x="601" y="168"/>
      <point x="534" y="55"/>
      <point x="393" y="-16"/>
    </contour>
  </outline>
</glyph>
<glyph name="six" format="2">
  <advance width="661"/>
  <unicode hex="0036"/>
  <outline>
    <contour>
      <point x="365" y="-16" type="qcurve" smooth="yes"/>
      <point x="265" y="-16"/>
      <point x="114" y="61"/>
      <point x="29" y="214"/>
      <point x="29" y="328" type="qcurve" smooth="yes"/>
      <point x="29" y="451"/>
      <point x="127" y="624"/>
      <point x="302" y="716"/>
      <point x="417" y="716" type="qcurve" smooth="yes"/>
      <point x="479" y="716"/>
      <point x="594" y="687"/>
      <point x="634" y="661" type="qcurve"/>
      <point x="549" y="496" type="line"/>
      <point x="518" y="518"/>
      <point x="455" y="533"/>
      <point x="422" y="533" type="qcurve" smooth="yes"/>
      <point x="351" y="533"/>
      <point x="266" y="448"/>
      <point x="266" y="367" type="qcurve" smooth="yes"/>
      <point x="266" y="352"/>
      <point x="266" y="323"/>
      <point x="266" y="308" type="qcurve"/>
      <point x="212" y="347" type="line"/>
      <point x="232" y="381"/>
      <point x="286" y="428"/>
      <point x="360" y="453"/>
      <point x="409" y="453" type="qcurve" smooth="yes"/>
      <point x="473" y="453"/>
      <point x="582" y="398"/>
      <point x="649" y="298"/>
      <point x="649" y="229" type="qcurve" smooth="yes"/>
      <point x="649" y="154"/>
      <point x="573" y="44"/>
      <point x="444" y="-16"/>
    </contour>
    <contour>
      <point x="349" y="147" type="qcurve" smooth="yes"/>
      <point x="370" y="147"/>
      <point x="403" y="164"/>
      <point x="421" y="196"/>
      <point x="421" y="218" type="qcurve" smooth="yes"/>
      <point x="421" y="251"/>
      <point x="381" y="290"/>
      <point x="349" y="290" type="qcurve" smooth="yes"/>
      <point x="328" y="290"/>
      <point x="296" y="272"/>
      <point x="277" y="240"/>
      <point x="277" y="218" type="qcurve" smooth="yes"/>
      <point x="277" y="196"/>
      <point x="296" y="164"/>
      <point x="328" y="147"/>
    </contour>
  </outline>
</glyph>
<glyph name="equal" format="2">
  <advance width="620"/>
  <unicode hex="003D"/>
  <outline>
    <contour>
      <point x="55" y="395" type="line"/>
      <point x="55" y="565" type="line"/>
      <point x="565" y="565" type="line"/>
      <point x="565" y="395" type="line"/>
    </contour>
    <contour>
      <point x="55" y="135" type="line"/>
      <point x="55" y="305" type="line"/>
      <point x="565" y="305" type="line"/>
      <point x="565" y="135" type="line"/>
    </contour>
  </outline>
</glyph>
<glyph name="question" format="2">
  <advance width="606"/>
  <unicode hex="003F"/>
  <outline>
    <contour>
      <point x="207" y="268" type="line"/>
      <point x="207" y="298"/>
      <point x="226" y="346"/>
      <point x="255" y="384"/>
      <point x="288" y="415"/>
      <point x="317" y="443"/>
      <point x="336" y="471"/>
      <point x="336" y="486" type="qcurve" smooth="yes"/>
      <point x="336" y="509"/>
      <point x="297" y="533"/>
      <point x="269" y="533" type="qcurve" smooth="yes"/>
      <point x="237" y="533"/>
      <point x="181" y="497"/>
      <point x="165" y="465" type="qcurve"/>
      <point x="-13" y="554" type="line"/>
      <point x="25" y="626"/>
      <point x="179" y="716"/>
      <point x="299" y="716" type="qcurve" smooth="yes"/>
      <point x="378" y="716"/>
      <point x="501" y="673"/>
      <point x="573" y="588"/>
      <point x="573" y="525" type="qcurve" smooth="yes"/>
      <point x="573" y="487"/>
      <point x="550" y="429"/>
      <point x="513" y="386"/>
      <point x="473" y="350"/>
      <point x="436" y="319"/>
      <point x="413" y="287"/>
      <point x="413" y="268" type="qcurve"/>
    </contour>
    <contour>
      <point x="310" y="-10" type="qcurve" smooth="yes"/>
      <point x="252" y="-10"/>
      <point x="178" y="61"/>
      <point x="178" y="110" type="qcurve" smooth="yes"/>
      <point x="178" y="160"/>
      <point x="252" y="228"/>
      <point x="310" y="228" type="qcurve" smooth="yes"/>
      <point x="369" y="228"/>
      <point x="442" y="160"/>
      <point x="442" y="110" type="qcurve" smooth="yes"/>
      <point x="442" y="61"/>
      <point x="369" y="-10"/>
    </contour>
  </outline>
</glyph>
<glyph name="at" format="2">
  <advance width="1037"/>
  <unicode hex="0040"/>
  <outline>
    <contour>
      <point x="523" y="-210" type="qcurve" smooth="yes"/>
      <point x="410" y="-210"/>
      <point x="228" y="-140"/>
      <point x="98" y="-14"/>
      <point x="29" y="155"/>
      <point x="29" y="253" type="qcurve" smooth="yes"/>
      <point x="29" y="350"/>
      <point x="98" y="517"/>
      <point x="229" y="643"/>
      <point x="413" y="714"/>
      <point x="527" y="714" type="qcurve" smooth="yes"/>
      <point x="635" y="714"/>
      <point x="812" y="647"/>
      <point x="939" y="528"/>
      <point x="1008" y="371"/>
      <point x="1008" y="281" type="qcurve" smooth="yes"/>
      <point x="1008" y="186"/>
      <point x="944" y="56"/>
      <point x="837" y="-9"/>
      <point x="773" y="-9" type="qcurve" smooth="yes"/>
      <point x="691" y="-9"/>
      <point x="595" y="85"/>
      <point x="595" y="177" type="qcurve" smooth="yes"/>
      <point x="595" y="198" type="line"/>
      <point x="595" y="245" type="line"/>
      <point x="586" y="424" type="line"/>
      <point x="586" y="479" type="line"/>
      <point x="778" y="479" type="line"/>
      <point x="778" y="193" type="line" smooth="yes"/>
      <point x="778" y="162"/>
      <point x="801" y="138"/>
      <point x="817" y="138" type="qcurve" smooth="yes"/>
      <point x="831" y="138"/>
      <point x="854" y="161"/>
      <point x="868" y="222"/>
      <point x="868" y="278" type="qcurve" smooth="yes"/>
      <point x="868" y="346"/>
      <point x="820" y="459"/>
      <point x="730" y="542"/>
      <point x="604" y="587"/>
      <point x="527" y="587" type="qcurve" smooth="yes"/>
      <point x="450" y="587"/>
      <point x="324" y="537"/>
      <point x="233" y="446"/>
      <point x="184" y="324"/>
      <point x="184" y="253" type="qcurve" smooth="yes"/>
      <point x="184" y="180"/>
      <point x="232" y="57"/>
      <point x="322" y="-34"/>
      <point x="447" y="-83"/>
      <point x="523" y="-83" type="qcurve" smooth="yes"/>
      <point x="573" y="-83"/>
      <point x="674" y="-62"/>
      <point x="725" y="-39" type="qcurve"/>
      <point x="767" y="-162" type="line"/>
      <point x="722" y="-184"/>
      <point x="590" y="-210"/>
    </contour>
    <contour>
      <point x="463" y="-9" type="qcurve" smooth="yes"/>
      <point x="409" y="-9"/>
      <point x="312" y="51"/>
      <point x="251" y="163"/>
      <point x="251" y="240" type="qcurve" smooth="yes"/>
      <point x="251" y="317"/>
      <point x="311" y="428"/>
      <point x="408" y="488"/>
      <point x="463" y="488" type="qcurve" smooth="yes"/>
      <point x="527" y="488"/>
      <point x="607" y="426"/>
      <point x="645" y="315"/>
      <point x="645" y="240" type="qcurve" smooth="yes"/>
      <point x="645" y="166"/>
      <point x="610" y="53"/>
      <point x="531" y="-9"/>
    </contour>
    <contour>
      <point x="518" y="148" type="qcurve" smooth="yes"/>
      <point x="539" y="148"/>
      <point x="571" y="169"/>
      <point x="590" y="210"/>
      <point x="590" y="240" type="qcurve" smooth="yes"/>
      <point x="590" y="270"/>
      <point x="571" y="310"/>
      <point x="539" y="331"/>
      <point x="518" y="331" type="qcurve" smooth="yes"/>
      <point x="498" y="331"/>
      <point x="465" y="310"/>
      <point x="447" y="270"/>
      <point x="447" y="240" type="qcurve" smooth="yes"/>
      <point x="447" y="210"/>
      <point x="465" y="169"/>
      <point x="498" y="148"/>
    </contour>
  </outline>
</glyph>
<glyph name="J" format="2">
  <advance width="574"/>
  <unicode hex="004A"/>
  <anchor x="288" y="700" name="t.uni0308"/>
  <outline>
    <contour>
      <point x="234" y="-16" type="qcurve" smooth="yes"/>
      <point x="152" y="-16"/>
      <point x="20" y="37"/>
      <point x="-24" y="88" type="qcurve"/>
      <point x="103" y="238" type="line"/>
      <point x="131" y="204"/>
      <point x="185" y="169"/>
      <point x="214" y="169" type="qcurve" smooth="yes"/>
      <point x="290" y="169"/>
      <point x="290" y="256" type="qcurve" smooth="yes"/>
      <point x="290" y="522" type="line"/>
      <point x="52" y="522" type="line"/>
      <point x="52" y="700" type="line"/>
      <point x="523" y="700" type="line"/>
      <point x="523" y="270" type="line" smooth="yes"/>
      <point x="523" y="126"/>
      <point x="375" y="-16"/>
    </contour>
  </outline>
</glyph>
<glyph name="Q" format="2">
  <advance width="848"/>
  <unicode hex="0051"/>
  <anchor x="425" y="700" name="t.uni0308"/>
  <outline>
    <contour>
      <point x="424" y="-16" type="qcurve" smooth="yes"/>
      <point x="339" y="-16"/>
      <point x="194" y="38"/>
      <point x="88" y="137"/>
      <point x="29" y="271"/>
      <point x="29" y="350" type="qcurve" smooth="yes"/>
      <point x="29" y="430"/>
      <point x="88" y="563"/>
      <point x="194" y="662"/>
      <point x="339" y="716"/>
      <point x="424" y="716" type="qcurve" smooth="yes"/>
      <point x="510" y="716"/>
      <point x="654" y="662"/>
      <point x="760" y="563"/>
      <point x="819" y="430"/>
      <point x="819" y="350" type="qcurve" smooth="yes"/>
      <point x="819" y="271"/>
      <point x="760" y="137"/>
      <point x="654" y="38"/>
      <point x="510" y="-16"/>
    </contour>
    <contour>
      <point x="653" y="-177" type="qcurve" smooth="yes"/>
      <point x="604" y="-177"/>
      <point x="520" y="-158"/>
      <point x="441" y="-114"/>
      <point x="355" y="-37"/>
      <point x="302" y="20" type="qcurve"/>
      <point x="546" y="80" type="line"/>
      <point x="570" y="43"/>
      <point x="604" y="3"/>
      <point x="637" y="-13"/>
      <point x="658" y="-13" type="qcurve" smooth="yes"/>
      <point x="710" y="-13"/>
      <point x="755" y="32" type="qcurve"/>
      <point x="857" y="-88" type="line"/>
      <point x="782" y="-177"/>
    </contour>
    <contour>
      <point x="424" y="175" type="qcurve" smooth="yes"/>
      <point x="457" y="175"/>
      <point x="514" y="199"/>
      <point x="557" y="244"/>
      <point x="581" y="309"/>
      <point x="581" y="350" type="qcurve" smooth="yes"/>
      <point x="581" y="391"/>
      <point x="557" y="456"/>
      <point x="514" y="501"/>
      <point x="457" y="525"/>
      <point x="424" y="525" type="qcurve" smooth="yes"/>
      <point x="391" y="525"/>
      <point x="334" y="501"/>
      <point x="291" y="456"/>
      <point x="267" y="391"/>
      <point x="267" y="350" type="qcurve" smooth="yes"/>
      <point x="267" y="309"/>
      <point x="291" y="244"/>
      <point x="334" y="199"/>
      <point x="391" y="175"/>
    </contour>
  </outline>
</glyph>
<glyph name="bracketright" format="2">
  <advance width="410"/>
  <unicode hex="005D"/>
  <outline>
    <contour>
      <point x="353" y="-194" type="line"/>
      <point x="10" y="-194" type="line"/>
      <point x="10" y="-24" type="line"/>
      <point x="127" y="-24" type="line"/>
      <point x="127" y="572" type="line"/>
      <point x="10" y="572" type="line"/>
      <point x="10" y="742" type="line"/>
      <point x="353" y="742" type="line"/>
    </contour>
  </outline>
</glyph>
<glyph name="b" format="2">
  <advance width="700"/>
  <unicode hex="0062"/>
  <outline>
    <contour>
      <point x="415" y="-10" type="qcurve" smooth="yes"/>
      <point x="340" y="-10"/>
      <point x="248" y="50"/>
      <point x="207" y="176"/>
      <point x="207" y="274" type="qcurve" smooth="yes"/>
      <point x="207" y="371"/>
      <point x="251" y="496"/>
      <point x="344" y="557"/>
      <point x="415" y="557" type="qcurve" smooth="yes"/>
      <point x="487" y="557"/>
      <point x="607" y="489"/>
      <point x="679" y="362"/>
      <point x="679" y="274" type="qcurve" smooth="yes"/>
      <point x="679" y="186"/>
      <point x="607" y="59"/>
      <point x="487" y="-10"/>
    </contour>
    <contour>
      <point x="50" y="0" type="line"/>
      <point x="50" y="742" type="line"/>
      <point x="276" y="742" type="line"/>
      <point x="276" y="474" type="line"/>
      <point x="266" y="274" type="line"/>
      <point x="265" y="74" type="line"/>
      <point x="265" y="0" type="line"/>
    </contour>
    <contour>
      <point x="361" y="166" type="qcurve" smooth="yes"/>
      <point x="386" y="166"/>
      <point x="426" y="190"/>
      <point x="450" y="239"/>
      <point x="450" y="274" type="qcurve" smooth="yes"/>
      <point x="450" y="310"/>
      <point x="426" y="357"/>
      <point x="386" y="381"/>
      <point x="361" y="381" type="qcurve" smooth="yes"/>
      <point x="336" y="381"/>
      <point x="296" y="357"/>
      <point x="272" y="310"/>
      <point x="272" y="274" type="qcurve" smooth="yes"/>
      <point x="272" y="239"/>
      <point x="296" y="190"/>
      <point x="336" y="166"/>
    </contour>
  </outline>
</glyph>
<glyph name="f" format="2">
  <advance width="426"/>
  <unicode hex="0066"/>
  <outline>
    <contour>
      <point x="75" y="0" type="line"/>
      <point x="75" y="520" type="line" smooth="yes"/>
      <point x="75" y="626"/>
      <point x="202" y="752"/>
      <point x="319" y="752" type="qcurve" smooth="yes"/>
      <point x="355" y="752"/>
      <point x="428" y="739"/>
      <point x="453" y="725" type="qcurve"/>
      <point x="399" y="568" type="line"/>
      <point x="388" y="573"/>
      <point x="362" y="581"/>
      <point x="348" y="581" type="qcurve" smooth="yes"/>
      <point x="324" y="581"/>
      <point x="294" y="551"/>
      <point x="294" y="518" type="qcurve" smooth="yes"/>
      <point x="294" y="492" type="line"/>
      <point x="301" y="399" type="line"/>
      <point x="301" y="0" type="line"/>
    </contour>
    <contour>
      <point x="0" y="352" type="line"/>
      <point x="0" y="517" type="line"/>
      <point x="413" y="517" type="line"/>
      <point x="413" y="352" type="line"/>
    </contour>
  </outline>
</glyph>
<glyph name="l" format="2">
  <advance width="326"/>
  <unicode hex="006C"/>
  <anchor x="163" y="742" name="t.uni0308"/>
  <anchor x="416" y="370" name="t.periodcentered.loclCAT"/>
  <anchor x="163" y="370" name="t.uni0307_1"/>
  <anchor x="346" y="742" name="t.uni031B_2"/>
  <anchor x="163" y="0" name="b.uni0324_3"/>
  <outline>
    <contour>
      <point x="50" y="0" type="line"/>
      <point x="50" y="742" type="line"/>
      <point x="276" y="742" type="line"/>
      <point x="276" y="0" type="line"/>
    </contour>
  </outline>
</glyph>
<glyph name="t" format="2">
  <advance width="460"/>
  <unicode hex="0074"/>
  <anchor x="188" y="670" name="t.uni0308"/>
  <anchor x="207" y="261" name="t.uni0307_1"/>
  <anchor x="349" y="742" name="t.uni031B_2"/>
  <anchor x="274" y="0" name="b.uni0324_3"/>
  <outline>
    <contour>
      <point x="314" y="-10" type="qcurve" smooth="yes"/>
      <point x="201" y="-10"/>
      <point x="75" y="99"/>
      <point x="75" y="212" type="qcurve" smooth="yes"/>
      <point x="75" y="670" type="line"/>
      <point x="301" y="670" type="line"/>
      <point x="301" y="214" type="line" smooth="yes"/>
      <point x="301" y="189"/>
      <point x="328" y="161"/>
      <point x="348" y="161" type="qcurve" smooth="yes"/>
      <point x="377" y="161"/>
      <point x="399" y="176" type="qcurve"/>
      <point x="453" y="19" type="line"/>
      <point x="427" y="4"/>
      <point x="354" y="-10"/>
    </contour>
    <contour>
      <point x="0" y="352" type="line"/>
      <point x="0" y="517" type="line"/>
      <point x="413" y="517" type="line"/>
      <point x="413" y="352" type="line"/>
    </contour>
  </outline>
</glyph>
<glyph name="u" format="2">
  <advance width="698"/>
  <unicode hex="0075"/>
  <anchor x="348" y="547" name="t.uni0308"/>
  <anchor x="535" y="547" name="t.uni031B_2"/>
  <anchor x="348" y="0" name="b.uni0324_3"/>
  <anchor x="648" y="0" name="m.uni0328_4"/>
  <outline>
    <contour>
      <point x="278" y="-10" type="qcurve" smooth="yes"/>
      <point x="213" y="-10"/>
      <point x="108" y="43"/>
      <point x="48" y="156"/>
      <point x="48" y="245" type="qcurve" smooth="yes"/>
      <point x="48" y="547" type="line"/>
      <point x="274" y="547" type="line"/>
      <point x="274" y="284" type="line" smooth="yes"/>
      <point x="274" y="226"/>
      <point x="312" y="180"/>
      <point x="345" y="180" type="qcurve" smooth="yes"/>
      <point x="365" y="180"/>
      <point x="400" y="201"/>
      <point x="422" y="250"/>
      <point x="422" y="290" type="qcurve" smooth="yes"/>
      <point x="422" y="547" type="line"/>
      <point x="648" y="547" type="line"/>
      <point x="648" y="0" type="line"/>
      <point x="433" y="0" type="line"/>
      <point x="433" y="158" type="line"/>
      <point x="476" y="115" type="line"/>
      <point x="447" y="51"/>
      <point x="340" y="-10"/>
    </contour>
  </outline>
</glyph>
<glyph name="braceleft" format="2">
  <advance width="438"/>
  <unicode hex="007B"/>
  <outline>
    <contour>
      <point x="354" y="-194" type="line" smooth="yes"/>
      <point x="238" y="-194"/>
      <point x="121" y="-82"/>
      <point x="121" y="19" type="qcurve" smooth="yes"/>
      <point x="121" y="145" type="line" smooth="yes"/>
      <point x="121" y="168"/>
      <point x="97" y="189"/>
      <point x="78" y="189" type="qcurve" smooth="yes"/>
      <point x="45" y="189" type="line"/>
      <point x="45" y="359" type="line"/>
      <point x="78" y="359" type="line" smooth="yes"/>
      <point x="97" y="359"/>
      <point x="121" y="381"/>
      <point x="121" y="403" type="qcurve" smooth="yes"/>
      <point x="121" y="529" type="line" smooth="yes"/>
      <point x="121" y="630"/>
      <point x="238" y="742"/>
      <point x="354" y="742" type="qcurve" smooth="yes"/>
      <point x="428" y="742" type="line"/>
      <point x="428" y="572" type="line"/>
      <point x="418" y="572" type="line" smooth="yes"/>
      <point x="383" y="572"/>
      <point x="347" y="536"/>
      <point x="347" y="503" type="qcurve" smooth="yes"/>
      <point x="347" y="408" type="line" smooth="yes"/>
      <point x="347" y="353"/>
      <point x="315" y="292"/>
      <point x="246" y="266"/>
      <point x="192" y="262" type="qcurve"/>
      <point x="192" y="286" type="line"/>
      <point x="246" y="282"/>
      <point x="315" y="256"/>
      <point x="347" y="195"/>
      <point x="347" y="140" type="qcurve" smooth="yes"/>
      <point x="347" y="45" type="line" smooth="yes"/>
      <point x="347" y="12"/>
      <point x="383" y="-24"/>
      <point x="418" y="-24" type="qcurve" smooth="yes"/>
      <point x="428" y="-24" type="line"/>
      <point x="428" y="-194" type="line"/>
    </contour>
  </outline>
</glyph>
<glyph name="braceright" format="2">
  <advance width="438"/>
  <unicode hex="007D"/>
  <outline>
    <contour>
      <point x="84" y="-194" type="qcurve" smooth="yes"/>
      <point x="10" y="-194" type="line"/>
      <point x="10" y="-24" type="line"/>
      <point x="20" y="-24" type="line" smooth="yes"/>
      <point x="55" y="-24"/>
      <point x="91" y="12"/>
      <point x="91" y="45" type="qcurve" smooth="yes"/>
      <point x="91" y="140" type="line" smooth="yes"/>
      <point x="91" y="195"/>
      <point x="124" y="256"/>
      <point x="192" y="282"/>
      <point x="246" y="286" type="qcurve"/>
      <point x="246" y="262" type="line"/>
      <point x="192" y="266"/>
      <point x="124" y="292"/>
      <point x="91" y="353"/>
      <point x="91" y="408" type="qcurve" smooth="yes"/>
      <point x="91" y="503" type="line" smooth="yes"/>
      <point x="91" y="536"/>
      <point x="55" y="572"/>
      <point x="20" y="572" type="qcurve" smooth="yes"/>
      <point x="10" y="572" type="line"/>
      <point x="10" y="742" type="line"/>
      <point x="84" y="742" type="line" smooth="yes"/>
      <point x="200" y="742"/>
      <point x="317" y="630"/>
      <point x="317" y="529" type="qcurve" smooth="yes"/>
      <point x="317" y="403" type="line" smooth="yes"/>
      <point x="317" y="381"/>
      <point x="341" y="359"/>
      <point x="360" y="359" type="qcurve" smooth="yes"/>
      <point x="393" y="359" type="line"/>
      <point x="393" y="189" type="line"/>
      <point x="360" y="189" type="line" smooth="yes"/>
      <point x="341" y="189"/>
      <point x="317" y="168"/>
      <point x="317" y="145" type="qcurve" smooth="yes"/>
      <point x="317" y="19" type="line" smooth="yes"/>
      <point x="317" y="-82"/>
      <point x="200" y="-194"/>
    </contour>
  </outline>
</glyph>
<glyph name="exclamdown" format="2">
  <advance width="314"/>
  <unicode hex="00A1"/>
  <outline>
    <contour>
      <point x="247" y="279" type="line"/>
      <point x="292" y="-154" type="line"/>
      <point x="22" y="-154" type="line"/>
      <point x="67" y="279" type="line"/>
    </contour>
    <contour>
      <point x="157" y="557" type="qcurve" smooth="yes"/>
      <point x="216" y="557"/>
      <point x="289" y="487"/>
      <point x="289" y="437" type="qcurve" smooth="yes"/>
      <point x="289" y="387"/>
      <point x="216" y="319"/>
      <point x="157" y="319" type="qcurve" smooth="yes"/>
      <point x="99" y="319"/>
      <point x="25" y="387"/>
      <point x="25" y="437" type="qcurve" smooth="yes"/>
      <point x="25" y="487"/>
      <point x="99" y="557"/>
    </contour>
  </outline>
</glyph>
<glyph name="currency" format="2">
  <advance width="700"/>
  <unicode hex="00A4"/>
  <outline>
    <contour>
      <point x="125" y="417" type="line"/>
      <point x="18" y="524" type="line"/>
      <point x="143" y="649" type="line"/>
      <point x="250" y="542" type="line"/>
    </contour>
    <contour>
      <point x="143" y="-14" type="line"/>
      <point x="18" y="111" type="line"/>
      <point x="125" y="218" type="line"/>
      <point x="250" y="93" type="line"/>
    </contour>
    <contour>
      <point x="556" y="-14" type="line"/>
      <point x="449" y="93" type="line"/>
      <point x="574" y="218" type="line"/>
      <point x="681" y="111" type="line"/>
    </contour>
    <contour>
      <point x="574" y="417" type="line"/>
      <point x="449" y="542" type="line"/>
      <point x="556" y="649" type="line"/>
      <point x="681" y="524" type="line"/>
    </contour>
    <contour>
      <point x="349" y="69" type="qcurve" smooth="yes"/>
      <point x="297" y="69"/>
      <point x="204" y="109"/>
      <point x="135" y="178"/>
      <point x="95" y="271"/>
      <point x="95" y="323" type="qcurve" smooth="yes"/>
      <point x="95" y="376"/>
      <point x="135" y="468"/>
      <point x="204" y="537"/>
      <point x="297" y="577"/>
      <point x="349" y="577" type="qcurve" smooth="yes"/>
      <point x="402" y="577"/>
      <point x="494" y="537"/>
      <point x="564" y="468"/>
      <point x="603" y="376"/>
      <point x="603" y="323" type="qcurve" smooth="yes"/>
      <point x="603" y="271"/>
      <point x="563" y="178"/>
      <point x="494" y="109"/>
      <point x="402" y="69"/>
    </contour>
    <contour>
      <point x="349" y="244" type="qcurve" smooth="yes"/>
      <point x="371" y="244"/>
      <point x="407" y="265"/>
      <point x="429" y="301"/>
      <point x="429" y="323" type="qcurve" smooth="yes"/>
      <point x="429" y="345"/>
      <point x="407" y="381"/>
      <point x="371" y="403"/>
      <point x="349" y="403" type="qcurve" smooth="yes"/>
      <point x="327" y="403"/>
      <point x="291" y="381"/>
      <point x="270" y="345"/>
      <point x="270" y="323" type="qcurve" smooth="yes"/>
      <point x="270" y="301"/>
      <point x="291" y="265"/>
      <point x="327" y="244"/>
    </contour>
  </outline>
</glyph>
<glyph name="section" format="2">
  <advance width="549"/>
  <unicode hex="00A7"/>
  <outline>
    <contour>
      <point x="394" y="145" type="qcurve"/>
      <point x="287" y="247" type="line"/>
      <point x="308" y="255"/>
      <point x="331" y="283"/>
      <point x="331" y="299" type="qcurve" smooth="yes"/>
      <point x="331" y="315"/>
      <point x="299" y="332"/>
      <point x="247" y="343"/>
      <point x="185" y="355"/>
      <point x="122" y="375"/>
      <point x="70" y="411"/>
      <point x="38" y="470"/>
      <point x="38" y="515" type="qcurve" smooth="yes"/>
      <point x="38" y="570"/>
      <point x="98" y="658"/>
      <point x="222" y="710"/>
      <point x="318" y="710" type="qcurve" smooth="yes"/>
      <point x="347" y="710"/>
      <point x="427" y="701"/>
      <point x="508" y="681"/>
      <point x="536" y="665" type="qcurve"/>
      <point x="474" y="516" type="line"/>
      <point x="432" y="539"/>
      <point x="349" y="556"/>
      <point x="308" y="556" type="qcurve" smooth="yes"/>
      <point x="265" y="556"/>
      <point x="236" y="537"/>
      <point x="236" y="523" type="qcurve" smooth="yes"/>
      <point x="236" y="510"/>
      <point x="267" y="495"/>
      <point x="319" y="485"/>
      <point x="381" y="473"/>
      <point x="443" y="452"/>
      <point x="495" y="414"/>
      <point x="526" y="354"/>
      <point x="526" y="308" type="qcurve" smooth="yes"/>
      <point x="526" y="258"/>
      <point x="462" y="169"/>
    </contour>
    <contour>
      <point x="257" y="-110" type="qcurve" smooth="yes"/>
      <point x="214" y="-110"/>
      <point x="124" y="-96"/>
      <point x="44" y="-72"/>
      <point x="16" y="-56" type="qcurve"/>
      <point x="78" y="93" type="line"/>
      <point x="117" y="70"/>
      <point x="217" y="44"/>
      <point x="255" y="44" type="qcurve" smooth="yes"/>
      <point x="285" y="44"/>
      <point x="310" y="64"/>
      <point x="310" y="77" type="qcurve" smooth="yes"/>
      <point x="310" y="93"/>
      <point x="278" y="109"/>
      <point x="227" y="119"/>
      <point x="164" y="130"/>
      <point x="102" y="149"/>
      <point x="51" y="183"/>
      <point x="19" y="240"/>
      <point x="19" y="283" type="qcurve" smooth="yes"/>
      <point x="19" y="341"/>
      <point x="84" y="432"/>
      <point x="151" y="456" type="qcurve"/>
      <point x="258" y="354" type="line"/>
      <point x="237" y="347"/>
      <point x="214" y="318"/>
      <point x="214" y="302" type="qcurve" smooth="yes"/>
      <point x="214" y="286"/>
      <point x="246" y="269"/>
      <point x="298" y="258"/>
      <point x="361" y="246"/>
      <point x="424" y="226"/>
      <point x="476" y="190"/>
      <point x="508" y="130"/>
      <point x="508" y="85" type="qcurve" smooth="yes"/>
      <point x="508" y="31"/>
      <point x="452" y="-58"/>
      <point x="341" y="-110"/>
    </contour>
  </outline>
</glyph>
<glyph name="copyright" format="2">
  <advance width="764"/>
  <unicode hex="00A9"/>
  <outline>
    <contour>
      <point x="381" y="-3" type="qcurve" smooth="yes"/>
      <point x="306" y="-3"/>
      <point x="178" y="51"/>
      <point x="82" y="148"/>
      <point x="29" y="276"/>
      <point x="29" y="350" type="qcurve" smooth="yes"/>
      <point x="29" y="424"/>
      <point x="83" y="552"/>
      <point x="179" y="649"/>
      <point x="308" y="703"/>
      <point x="383" y="703" type="qcurve" smooth="yes"/>
      <point x="458" y="703"/>
      <point x="587" y="650"/>
      <point x="682" y="554"/>
      <point x="735" y="427"/>
      <point x="735" y="352" type="qcurve" smooth="yes"/>
      <point x="735" y="277"/>
      <point x="681" y="148"/>
      <point x="584" y="51"/>
      <point x="456" y="-3"/>
    </contour>
    <contour>
      <point x="381" y="85" type="qcurve" smooth="yes"/>
      <point x="437" y="85"/>
      <point x="532" y="126"/>
      <point x="602" y="198"/>
      <point x="641" y="295"/>
      <point x="641" y="352" type="qcurve" smooth="yes"/>
      <point x="641" y="409"/>
      <point x="603" y="505"/>
      <point x="535" y="576"/>
      <point x="440" y="615"/>
      <point x="383" y="615" type="qcurve" smooth="yes"/>
      <point x="326" y="615"/>
      <point x="231" y="575"/>
      <point x="161" y="503"/>
      <point x="123" y="406"/>
      <point x="123" y="350" type="qcurve" smooth="yes"/>
      <point x="123" y="294"/>
      <point x="161" y="197"/>
      <point x="230" y="125"/>
      <point x="325" y="85"/>
    </contour>
    <contour>
      <point x="397" y="152" type="qcurve" smooth="yes"/>
      <point x="334" y="152"/>
      <point x="237" y="203"/>
      <point x="181" y="292"/>
      <point x="181" y="350" type="qcurve" smooth="yes"/>
      <point x="181" y="408"/>
      <point x="237" y="497"/>
      <point x="334" y="548"/>
      <point x="397" y="548" type="qcurve" smooth="yes"/>
      <point x="464" y="548"/>
      <point x="559" y="488"/>
      <point x="577" y="435" type="qcurve"/>
      <point x="449" y="370" type="line"/>
      <point x="439" y="392"/>
      <point x="413" y="410"/>
      <point x="396" y="410" type="qcurve" smooth="yes"/>
      <point x="383" y="410"/>
      <point x="360" y="397"/>
      <point x="345" y="370"/>
      <point x="345" y="350" type="qcurve" smooth="yes"/>
      <point x="345" y="330"/>
      <point x="360" y="303"/>
      <point x="383" y="290"/>
      <point x="396" y="290" type="qcurve" smooth="yes"/>
      <point x="413" y="290"/>
      <point x="439" y="308"/>
      <point x="449" y="330" type="qcurve"/>
      <point x="577" y="265" type="line"/>
      <point x="559" y="213"/>
      <point x="464" y="152"/>
    </contour>
  </outline>
</glyph>
<glyph name="ordfeminine" format="2">
  <advance width="422"/>
  <unicode hex="00AA"/>
  <outline>
    <contour>
      <point x="244" y="420" type="line"/>
      <point x="244" y="477" type="line"/>
      <point x="233" y="492" type="line"/>
      <point x="233" y="601" type="line" smooth="yes"/>
      <point x="233" y="623"/>
      <point x="202" y="647"/>
      <point x="166" y="647" type="qcurve" smooth="yes"/>
      <point x="146" y="647"/>
      <point x="98" y="634"/>
      <point x="81" y="622" type="qcurve"/>
      <point x="33" y="715" type="line"/>
      <point x="65" y="733"/>
      <point x="152" y="752"/>
      <point x="192" y="752" type="qcurve" smooth="yes"/>
      <point x="284" y="752"/>
      <point x="386" y="676"/>
      <point x="386" y="593" type="qcurve" smooth="yes"/>
      <point x="386" y="420" type="line"/>
    </contour>
    <contour>
      <point x="146" y="414" type="qcurve" smooth="yes"/>
      <point x="82" y="414"/>
      <point x="17" y="474"/>
      <point x="17" y="516" type="qcurve" smooth="yes"/>
      <point x="17" y="564"/>
      <point x="96" y="614"/>
      <point x="178" y="614" type="qcurve" smooth="yes"/>
      <point x="247" y="614" type="line"/>
      <point x="247" y="546" type="line"/>
      <point x="202" y="546" type="line" smooth="yes"/>
      <point x="181" y="546"/>
      <point x="161" y="534"/>
      <point x="161" y="522" type="qcurve" smooth="yes"/>
      <point x="161" y="512"/>
      <point x="178" y="499"/>
      <point x="192" y="499" type="qcurve" smooth="yes"/>
      <point x="205" y="499"/>
      <point x="228" y="512"/>
      <point x="233" y="527" type="qcurve"/>
      <point x="252" y="485" type="line"/>
      <point x="244" y="449"/>
      <point x="191" y="414"/>
    </contour>
  </outline>
</glyph>
<glyph name="registered" format="2">
  <advance width="764"/>
  <unicode hex="00AE"/>
  <outline>
    <contour>
      <point x="381" y="-3" type="qcurve" smooth="yes"/>
      <point x="306" y="-3"/>
      <point x="178" y="51"/>
      <point x="82" y="148"/>
      <point x="29" y="276"/>
      <point x="29" y="350" type="qcurve" smooth="yes"/>
      <point x="29" y="424"/>
      <point x="83" y="552"/>
      <point x="179" y="649"/>
      <point x="308" y="703"/>
      <point x="383" y="703" type="qcurve" smooth="yes"/>
      <point x="458" y="703"/>
      <point x="587" y="650"/>
      <point x="682" y="554"/>
      <point x="735" y="427"/>
      <point x="735" y="352" type="qcurve" smooth="yes"/>
      <point x="735" y="277"/>
      <point x="681" y="148"/>
      <point x="584" y="51"/>
      <point x="456" y="-3"/>
    </contour>
    <contour>
      <point x="445" y="162" type="line"/>
      <point x="353" y="304" type="line"/>
      <point x="499" y="304" type="line"/>
      <point x="591" y="162" type="line"/>
    </contour>
    <contour>
      <point x="381" y="85" type="qcurve" smooth="yes"/>
      <point x="437" y="85"/>
      <point x="532" y="126"/>
      <point x="602" y="198"/>
      <point x="641" y="295"/>
      <point x="641" y="352" type="qcurve" smooth="yes"/>
      <point x="641" y="409"/>
      <point x="603" y="505"/>
      <point x="535" y="576"/>
      <point x="440" y="615"/>
      <point x="383" y="615" type="qcurve" smooth="yes"/>
      <point x="326" y="615"/>
      <point x="231" y="575"/>
      <point x="161" y="503"/>
      <point x="123" y="406"/>
      <point x="123" y="350" type="qcurve" smooth="yes"/>
      <point x="123" y="294"/>
      <point x="161" y="197"/>
      <point x="230" y="125"/>
      <point x="325" y="85"/>
    </contour>
    <contour>
      <point x="216" y="162" type="line"/>
      <point x="216" y="538" type="line"/>
      <point x="395" y="538" type="line" smooth="yes"/>
      <point x="479" y="538"/>
      <point x="572" y="462"/>
      <point x="572" y="398" type="qcurve" smooth="yes"/>
      <point x="572" y="328"/>
      <point x="479" y="258"/>
      <point x="395" y="258" type="qcurve" smooth="yes"/>
      <point x="360" y="258" type="line"/>
      <point x="360" y="162" type="line"/>
    </contour>
    <contour>
      <point x="360" y="357" type="line"/>
      <point x="386" y="357" type="line" smooth="yes"/>
      <point x="406" y="357"/>
      <point x="428" y="379"/>
      <point x="428" y="398" type="qcurve" smooth="yes"/>
      <point x="428" y="417"/>
      <point x="406" y="439"/>
      <point x="386" y="439" type="qcurve" smooth="yes"/>
      <point x="360" y="439" type="line"/>
    </contour>
  </outline>
</glyph>
<glyph name="paragraph" format="2">
  <advance width="730"/>
  <unicode hex="00B6"/>
  <outline>
    <contour>
      <point x="229" y="-100" type="line"/>
      <point x="229" y="333" type="line"/>
      <point x="168" y="335"/>
      <point x="67" y="385"/>
      <point x="8" y="476"/>
      <point x="8" y="538" type="qcurve" smooth="yes"/>
      <point x="8" y="600"/>
      <point x="73" y="692"/>
      <point x="190" y="742"/>
      <point x="268" y="742" type="qcurve" smooth="yes"/>
      <point x="673" y="742" type="line"/>
      <point x="673" y="-100" type="line"/>
      <point x="491" y="-100" type="line"/>
      <point x="491" y="587" type="line"/>
      <point x="411" y="587" type="line"/>
      <point x="411" y="-100" type="line"/>
    </contour>
  </outline>
</glyph>
<glyph name="periodcentered" format="2">
  <advance width="344"/>
  <unicode hex="00B7"/>
  <outline>
    <contour>
      <point x="172" y="159" type="qcurve" smooth="yes"/>
      <point x="114" y="159"/>
      <point x="40" y="231"/>
      <point x="40" y="290" type="qcurve" smooth="yes"/>
      <point x="40" y="349"/>
      <point x="114" y="419"/>
      <point x="172" y="419" type="qcurve" smooth="yes"/>
      <point x="231" y="419"/>
      <point x="304" y="349"/>
      <point x="304" y="290" type="qcurve" smooth="yes"/>
      <point x="304" y="231"/>
      <point x="231" y="159"/>
    </contour>
  </outline>
</glyph>
<glyph name="AE" format="2">
  <advance width="1119"/>
  <unicode hex="00C6"/>
  <anchor x="619" y="700" name="t.uni0308"/>
  <anchor x="619" y="0" name="b.uni0324_3"/>
  <outline>
    <contour>
      <point x="-19" y="0" type="line"/>
      <point x="350" y="700" type="line"/>
      <point x="584" y="700" type="line"/>
      <point x="584" y="522" type="line"/>
      <point x="385" y="522" type="line"/>
      <point x="527" y="616" type="line"/>
      <point x="221" y="0" type="line"/>
    </contour>
    <contour>
      <point x="219" y="122" type="line"/>
      <point x="219" y="292" type="line"/>
      <point x="584" y="292" type="line"/>
      <point x="584" y="122" type="line"/>
    </contour>
    <contour>
      <point x="719" y="440" type="line"/>
      <point x="1031" y="440" type="line"/>
      <point x="1031" y="270" type="line"/>
      <point x="719" y="270" type="line"/>
    </contour>
    <contour>
      <point x="735" y="178" type="line"/>
      <point x="1085" y="178" type="line"/>
      <point x="1085" y="0" type="line"/>
      <point x="503" y="0" type="line"/>
      <point x="503" y="700" type="line"/>
      <point x="1072" y="700" type="line"/>
      <point x="1072" y="522" type="line"/>
      <point x="735" y="522" type="line"/>
    </contour>
  </outline>
</glyph>
<glyph name="germandbls" format="2">
  <advance width="714"/>
  <unicode hex="00DF"/>
  <outline>
    <contour>
      <point x="430" y="-10" type="qcurve" smooth="yes"/>
      <point x="399" y="-10"/>
      <point x="328" y="-1"/>
      <point x="308" y="6" type="qcurve"/>
      <point x="330" y="178" type="line"/>
      <point x="346" y="172"/>
      <point x="378" y="166"/>
      <point x="396" y="166" type="qcurve" smooth="yes"/>
      <point x="416" y="166"/>
      <point x="446" y="178"/>
      <point x="464" y="202"/>
      <point x="464" y="219" type="qcurve" smooth="yes"/>
      <point x="464" y="245"/>
      <point x="426" y="271"/>
      <point x="388" y="271" type="qcurve" smooth="yes"/>
      <point x="336" y="271" type="line"/>
      <point x="336" y="441" type="line"/>
      <point x="371" y="443"/>
      <point x="413" y="480"/>
      <point x="413" y="511" type="qcurve" smooth="yes"/>
      <point x="413" y="541"/>
      <point x="377" y="578"/>
      <point x="348" y="578" type="qcurve" smooth="yes"/>
      <point x="315" y="578"/>
      <point x="276" y="539"/>
      <point x="276" y="503" type="qcurve" smooth="yes"/>
      <point x="276" y="0" type="line"/>
      <point x="50" y="0" type="line"/>
      <point x="50" y="472" type="line" smooth="yes"/>
      <point x="50" y="564"/>
      <point x="131" y="689"/>
      <point x="267" y="752"/>
      <point x="347" y="752" type="qcurve" smooth="yes"/>
      <point x="438" y="752"/>
      <point x="564" y="693"/>
      <point x="630" y="594"/>
      <point x="630" y="533" type="qcurve" smooth="yes"/>
      <point x="630" y="485"/>
      <point x="585" y="408"/>
      <point x="508" y="354"/>
      <point x="412" y="325"/>
      <point x="362" y="325" type="qcurve"/>
      <point x="412" y="421" type="line"/>
      <point x="501" y="421"/>
      <point x="626" y="373"/>
      <point x="693" y="280"/>
      <point x="693" y="213" type="qcurve" smooth="yes"/>
      <point x="693" y="143"/>
      <point x="628" y="43"/>
      <point x="510" y="-10"/>
    </contour>
  </outline>
</glyph>
<glyph name="eth" format="2">
  <advance width="676"/>
  <unicode hex="00F0"/>
  <outline>
    <contour>
      <point x="310" y="-16" type="qcurve" smooth="yes"/>
      <point x="229" y="-16"/>
      <point x="98" y="45"/>
      <point x="21" y="155"/>
      <point x="21" y="229" type="qcurve" smooth="yes"/>
      <point x="21" y="297"/>
      <point x="88" y="397"/>
      <point x="201" y="453"/>
      <point x="268" y="453" type="qcurve" smooth="yes"/>
      <point x="319" y="453"/>
      <point x="395" y="428"/>
      <point x="451" y="380"/>
      <point x="470" y="345" type="qcurve"/>
      <point x="416" y="308" type="line"/>
      <point x="416" y="323"/>
      <point x="416" y="357"/>
      <point x="416" y="387" type="qcurve" smooth="yes"/>
      <point x="416" y="457"/>
      <point x="373" y="550"/>
      <point x="286" y="596"/>
      <point x="218" y="596" type="qcurve" smooth="yes"/>
      <point x="191" y="596"/>
      <point x="127" y="588"/>
      <point x="97" y="578" type="qcurve"/>
      <point x="76" y="741" type="line"/>
      <point x="115" y="749"/>
      <point x="189" y="758"/>
      <point x="232" y="758" type="qcurve" smooth="yes"/>
      <point x="364" y="758"/>
      <point x="553" y="663"/>
      <point x="655" y="477"/>
      <point x="655" y="338" type="qcurve" smooth="yes"/>
      <point x="655" y="226"/>
      <point x="569" y="68"/>
      <point x="414" y="-16"/>
    </contour>
    <contour>
      <point x="328" y="147" type="qcurve" smooth="yes"/>
      <point x="350" y="147"/>
      <point x="384" y="164"/>
      <point x="405" y="196"/>
      <point x="405" y="218" type="qcurve" smooth="yes"/>
      <point x="405" y="240"/>
      <point x="384" y="272"/>
      <point x="350" y="290"/>
      <point x="328" y="290" type="qcurve" smooth="yes"/>
      <point x="296" y="290"/>
      <point x="251" y="251"/>
      <point x="251" y="218" type="qcurve" smooth="yes"/>
      <point x="251" y="196"/>
      <point x="272" y="164"/>
      <point x="307" y="147"/>
    </contour>
    <contour>
      <point x="144" y="450" type="line"/>
      <point x="109" y="541" type="line"/>
      <point x="596" y="718" type="line"/>
      <point x="631" y="627" type="line"/>
    </contour>
  </outline>
</glyph>
<glyph name="eogonek" format="2">
  <advance width="653"/>
  <unicode hex="0119"/>
  <anchor x="338" y="547" name="t.uni0308"/>
  <anchor x="338" y="0" name="b.uni0324_3"/>
  <outline>
    <contour>
      <point x="464" y="-240" type="qcurve" smooth="yes"/>
      <point x="389" y="-240"/>
      <point x="306" y="-172"/>
      <point x="306" y="-114" type="qcurve" smooth="yes"/>
      <point x="306" y="-70"/>
      <point x="368" y="8"/>
      <point x="417" y="24" type="qcurve"/>
      <point x="439" y="-2" type="line"/>
      <point x="419" y="-6"/>
      <point x="376" y="-10"/>
      <point x="352" y="-10" type="qcurve" smooth="yes"/>
      <point x="252" y="-10"/>
      <point x="103" y="64"/>
      <point x="21" y="193"/>
      <point x="21" y="274" type="qcurve" smooth="yes"/>
      <point x="21" y="357"/>
      <point x="102" y="485"/>
      <point x="243" y="557"/>
      <point x="331" y="557" type="qcurve" smooth="yes"/>
      <point x="412" y="557"/>
      <point x="549" y="493"/>
      <point x="632" y="367"/>
      <point x="632" y="274" type="qcurve" smooth="yes"/>
      <point x="632" y="262"/>
      <point x="630" y="233"/>
      <point x="629" y="221" type="qcurve"/>
      <point x="208" y="221" type="line"/>
      <point x="208" y="330" type="line"/>
      <point x="509" y="330" type="line"/>
      <point x="424" y="301" type="line"/>
      <point x="424" y="333"/>
      <point x="401" y="378"/>
      <point x="361" y="403"/>
      <point x="333" y="403" type="qcurve" smooth="yes"/>
      <point x="305" y="403"/>
      <point x="264" y="378"/>
      <point x="242" y="333"/>
      <point x="242" y="301" type="qcurve" smooth="yes"/>
      <point x="242" y="267" type="line" smooth="yes"/>
      <point x="242" y="232"/>
      <point x="270" y="182"/>
      <point x="322" y="157"/>
      <point x="359" y="157" type="qcurve" smooth="yes"/>
      <point x="397" y="157"/>
      <point x="446" y="177"/>
      <point x="473" y="197" type="qcurve"/>
      <point x="592" y="78" type="line"/>
      <point x="582" y="68"/>
      <point x="561" y="49"/>
      <point x="549" y="41" type="qcurve"/>
      <point x="502" y="12"/>
      <point x="454" y="-34"/>
      <point x="438" y="-71"/>
      <point x="438" y="-89" type="qcurve" smooth="yes"/>
      <point x="438" y="-110"/>
      <point x="467" y="-138"/>
      <point x="493" y="-138" type="qcurve" smooth="yes"/>
      <point x="508" y="-138"/>
      <point x="539" y="-129"/>
      <point x="550" y="-124" type="qcurve"/>
      <point x="577" y="-217" type="line"/>
      <point x="559" y="-227"/>
      <point x="496" y="-240"/>
    </contour>
  </outline>
</glyph>
<glyph name="eng" format="2">
  <advance width="702"/>
  <unicode hex="014B"/>
  <outline>
    <contour>
      <point x="430" y="557" type="qcurve" smooth="yes"/>
      <point x="493" y="557"/>
      <point x="595" y="506"/>
      <point x="654" y="398"/>
      <point x="654" y="312" type="qcurve" smooth="yes"/>
      <point x="654" y="28" type="line" smooth="yes"/>
      <point x="654" y="-78"/>
      <point x="528" y="-204"/>
      <point x="415" y="-204" type="qcurve" smooth="yes"/>
      <point x="375" y="-204"/>
      <point x="302" y="-190"/>
      <point x="276" y="-177" type="qcurve"/>
      <point x="330" y="-20" type="line"/>
      <point x="354" y="-33"/>
      <point x="381" y="-33" type="qcurve" smooth="yes"/>
      <point x="401" y="-33"/>
      <point x="428" y="-3"/>
      <point x="428" y="30" type="qcurve" smooth="yes"/>
      <point x="428" y="273" type="line" smooth="yes"/>
      <point x="428" y="324"/>
      <point x="392" y="367"/>
      <point x="361" y="367" type="qcurve" smooth="yes"/>
      <point x="338" y="367"/>
      <point x="299" y="346"/>
      <point x="276" y="298"/>
      <point x="276" y="257" type="qcurve" smooth="yes"/>
      <point x="276" y="0" type="line"/>
      <point x="50" y="0" type="line"/>
      <point x="50" y="547" type="line"/>
      <point x="265" y="547" type="line"/>
      <point x="265" y="387" type="line"/>
      <point x="222" y="433" type="line"/>
      <point x="254" y="495"/>
      <point x="363" y="557"/>
    </contour>
  </outline>
</glyph>
<glyph name="Ohorn" format="2">
  <advance width="848"/>
  <unicode hex="01A0"/>
  <anchor x="424" y="700" name="t.uni0308"/>
  <anchor x="424" y="0" name="b.uni0324_3"/>
  <outline>
    <contour>
      <point x="424" y="-16" type="qcurve" smooth="yes"/>
      <point x="339" y="-16"/>
      <point x="194" y="38"/>
      <point x="88" y="137"/>
      <point x="29" y="271"/>
      <point x="29" y="350" type="qcurve" smooth="yes"/>
      <point x="29" y="430"/>
      <point x="88" y="563"/>
      <point x="196" y="662"/>
      <point x="345" y="716"/>
      <point x="434" y="716" type="qcurve" smooth="yes"/>
      <point x="487" y="716"/>
      <point x="577" y="703"/>
      <point x="608" y="703" type="qcurve" smooth="yes"/>
      <point x="638" y="703"/>
      <point x="675" y="733"/>
      <point x="675" y="761" type="qcurve" smooth="yes"/>
      <point x="675" y="778"/>
      <point x="664" y="808"/>
      <point x="655" y="818" type="qcurve"/>
      <point x="783" y="863" type="line"/>
      <point x="800" y="841"/>
      <point x="820" y="786"/>
      <point x="820" y="752" type="qcurve" smooth="yes"/>
      <point x="820" y="663"/>
      <point x="699" y="574"/>
      <point x="600" y="574" type="qcurve" smooth="yes"/>
      <point x="551" y="574"/>
      <point x="465" y="586"/>
      <point x="424" y="591" type="qcurve"/>
      <point x="684" y="625" type="line"/>
      <point x="725" y="595"/>
      <point x="786" y="511"/>
      <point x="819" y="409"/>
      <point x="819" y="350" type="qcurve" smooth="yes"/>
      <point x="819" y="271"/>
      <point x="760" y="137"/>
      <point x="654" y="38"/>
      <point x="510" y="-16"/>
    </contour>
    <contour>
      <point x="424" y="175" type="qcurve" smooth="yes"/>
      <point x="457" y="175"/>
      <point x="514" y="199"/>
      <point x="557" y="244"/>
      <point x="581" y="309"/>
      <point x="581" y="350" type="qcurve" smooth="yes"/>
      <point x="581" y="391"/>
      <point x="557" y="456"/>
      <point x="514" y="501"/>
      <point x="457" y="525"/>
      <point x="424" y="525" type="qcurve" smooth="yes"/>
      <point x="391" y="525"/>
      <point x="334" y="501"/>
      <point x="291" y="456"/>
      <point x="267" y="391"/>
      <point x="267" y="350" type="qcurve" smooth="yes"/>
      <point x="267" y="309"/>
      <point x="291" y="244"/>
      <point x="334" y="199"/>
      <point x="391" y="175"/>
    </contour>
  </outline>
</glyph>
<glyph name="uni01EB" format="2">
  <advance width="678"/>
  <unicode hex="01EB"/>
  <anchor x="336" y="547" name="t.uni0308"/>
  <anchor x="336" y="274" name="t.uni0307_1"/>
  <anchor x="432" y="547" name="t.uni031B_2"/>
  <anchor x="336" y="0" name="b.uni0324_3"/>
  <outline>
    <contour>
      <point x="371" y="-240" type="qcurve" smooth="yes"/>
      <point x="296" y="-240"/>
      <point x="213" y="-173"/>
      <point x="213" y="-117" type="qcurve" smooth="yes"/>
      <point x="213" y="-80"/>
      <point x="252" y="-18"/>
      <point x="327" y="28"/>
      <point x="380" y="39" type="qcurve"/>
      <point x="386" y="-6" type="line"/>
      <point x="374" y="-7"/>
      <point x="351" y="-10"/>
      <point x="339" y="-10" type="qcurve" smooth="yes"/>
      <point x="246" y="-10"/>
      <point x="103" y="63"/>
      <point x="21" y="191"/>
      <point x="21" y="274" type="qcurve" smooth="yes"/>
      <point x="21" y="357"/>
      <point x="103" y="485"/>
      <point x="246" y="557"/>
      <point x="339" y="557" type="qcurve" smooth="yes"/>
      <point x="432" y="557"/>
      <point x="576" y="485"/>
      <point x="657" y="357"/>
      <point x="657" y="274" type="qcurve" smooth="yes"/>
      <point x="657" y="182"/>
      <point x="553" y="44"/>
      <point x="466" y="11" type="qcurve" smooth="yes"/>
      <point x="417" y="-7"/>
      <point x="364" y="-44"/>
      <point x="345" y="-79"/>
      <point x="345" y="-96" type="qcurve" smooth="yes"/>
      <point x="345" y="-112"/>
      <point x="370" y="-138"/>
      <point x="398" y="-138" type="qcurve" smooth="yes"/>
      <point x="415" y="-138"/>
      <point x="446" y="-129"/>
      <point x="457" y="-124" type="qcurve"/>
      <point x="484" y="-217" type="line"/>
      <point x="466" y="-227"/>
      <point x="403" y="-240"/>
    </contour>
    <contour>
      <point x="339" y="166" type="qcurve" smooth="yes"/>
      <point x="364" y="166"/>
      <point x="404" y="190"/>
      <point x="428" y="239"/>
      <point x="428" y="274" type="qcurve" smooth="yes"/>
      <point x="428" y="310"/>
      <point x="404" y="357"/>
      <point x="364" y="381"/>
      <point x="339" y="381" type="qcurve" smooth="yes"/>
      <point x="314" y="381"/>
      <point x="274" y="357"/>
      <point x="250" y="310"/>
      <point x="250" y="274" type="qcurve" smooth="yes"/>
      <point x="250" y="239"/>
      <point x="274" y="190"/>
      <point x="314" y="166"/>
    </contour>
  </outline>
</glyph>
<glyph name="uni0259" format="2">
  <advance width="653"/>
  <unicode hex="0259"/>
  <anchor x="326" y="547" name="t.uni0308"/>
  <anchor x="326" y="0" name="b.uni0324_3"/>
  <anchor x="100" y="547" name="m.uni0328_4"/>
  <outline>
    <contour>
      <point x="301" y="557" type="qcurve" smooth="yes"/>
      <point x="402" y="557"/>
      <point x="550" y="483"/>
      <point x="632" y="355"/>
      <point x="632" y="273" type="qcurve" smooth="yes"/>
      <point x="632" y="190"/>
      <point x="551" y="62"/>
      <point x="411" y="-10"/>
      <point x="322" y="-10" type="qcurve" smooth="yes"/>
      <point x="241" y="-10"/>
      <point x="104" y="54"/>
      <point x="21" y="181"/>
      <point x="21" y="273" type="qcurve" smooth="yes"/>
      <point x="21" y="285"/>
      <point x="23" y="314"/>
      <point x="24" y="326" type="qcurve"/>
      <point x="445" y="326" type="line"/>
      <point x="445" y="217" type="line"/>
      <point x="144" y="217" type="line"/>
      <point x="229" y="246" type="line"/>
      <point x="229" y="215"/>
      <point x="252" y="169"/>
      <point x="293" y="144"/>
      <point x="320" y="144" type="qcurve" smooth="yes"/>
      <point x="348" y="144"/>
      <point x="389" y="169"/>
      <point x="411" y="215"/>
      <point x="411" y="246" type="qcurve" smooth="yes"/>
      <point x="411" y="280" type="line" smooth="yes"/>
      <point x="411" y="316"/>
      <point x="383" y="365"/>
      <point x="331" y="390"/>
      <point x="294" y="390" type="qcurve" smooth="yes"/>
      <point x="257" y="390"/>
      <point x="207" y="370"/>
      <point x="180" y="350" type="qcurve"/>
      <point x="62" y="469" type="line"/>
      <point x="102" y="513"/>
      <point x="219" y="557"/>
    </contour>
  </outline>
</glyph>
<glyph name="uni02BE" format="2">
  <advance width="600"/>
  <unicode hex="02BE"/>
  <outline>
    <contour>
      <point x="300" y="590" type="qcurve"/>
      <point x="300" y="670" type="line"/>
      <point x="323" y="670"/>
      <point x="354" y="700"/>
      <point x="354" y="724" type="qcurve" smooth="yes"/>
      <point x="354" y="748"/>
      <point x="323" y="778"/>
      <point x="300" y="778" type="qcurve"/>
      <point x="300" y="858" type="line"/>
      <point x="340" y="858"/>
      <point x="403" y="822"/>
      <point x="440" y="762"/>
      <point x="440" y="724" type="qcurve" smooth="yes"/>
      <point x="440" y="687"/>
      <point x="403" y="626"/>
      <point x="340" y="590"/>
    </contour>
  </outline>
</glyph>
<glyph name="uni02CB" format="2">
  <advance width="600"/>
  <unicode hex="02CB"/>
  <outline>
    <contour>
      <point x="255" y="607" type="line"/>
      <point x="58" y="767" type="line"/>
      <point x="273" y="767" type="line"/>
      <point x="405" y="607" type="line"/>
    </contour>
  </outline>
</glyph>
<glyph name="uni02CC" format="2">
  <advance width="206"/>
  <unicode hex="02CC"/>
  <outline>
    <contour>
      <point x="29" y="-234" type="line"/>
      <point x="29" y="-30" type="line"/>
      <point x="177" y="-30" type="line"/>
      <point x="177" y="-234" type="line"/>
    </contour>
  </outline>
</glyph>
<glyph name="gravecomb" format="2">
  <unicode hex="0300"/>
  <anchor x="300" y="547" name="_t.uni0308"/>
  <anchor x="300" y="547" name="_t.uni0308_2"/>
  <anchor x="300" y="547" name="_m.uni0308"/>
  <anchor x="300" y="760" name="m.uni0308"/>
  <outline>
    <contour>
      <point x="255" y="607" type="line"/>
      <point x="58" y="767" type="line"/>
      <point x="273" y="767" type="line"/>
      <point x="405" y="607" type="line"/>
    </contour>
  </outline>
</glyph>
<glyph name="uni0302" format="2">
  <unicode hex="0302"/>
  <anchor x="300" y="547" name="_t.uni0308"/>
  <anchor x="300" y="547" name="_t.uni0308_2"/>
  <anchor x="300" y="547" name="_m.uni0308"/>
  <anchor x="300" y="750" name="m.uni0308"/>
  <outline>
    <contour>
      <point x="76" y="607" type="line"/>
      <point x="204" y="767" type="line"/>
      <point x="396" y="767" type="line"/>
      <point x="524" y="607" type="line"/>
      <point x="384" y="607" type="line"/>
      <point x="242" y="737" type="line"/>
      <point x="358" y="737" type="line"/>
      <point x="216" y="607" type="line"/>
    </contour>
  </outline>
</glyph>
<glyph name="uni0304" format="2">
  <unicode hex="0304"/>
  <anchor x="300" y="547" name="_t.uni0308"/>
  <anchor x="300" y="547" name="_t.uni0308_2"/>
  <anchor x="300" y="547" name="_m.uni0308"/>
  <anchor x="300" y="730" name="m.uni0308"/>
  <outline>
    <contour>
      <point x="90" y="628" type="line"/>
      <point x="90" y="746" type="line"/>
      <point x="510" y="746" type="line"/>
      <point x="510" y="628" type="line"/>
    </contour>
  </outline>
</glyph>
<glyph name="uni030A" format="2">
  <unicode hex="030A"/>
  <anchor x="300" y="547" name="_t.uni0308"/>
  <anchor x="300" y="547" name="_t.uni0308_2"/>
  <anchor x="300" y="547" name="_m.uni0308"/>
  <anchor x="300" y="830" name="m.uni0308"/>
  <outline>
    <contour>
      <point x="300" y="590" type="qcurve" smooth="yes"/>
      <point x="261" y="590"/>
      <point x="197" y="626"/>
      <point x="160" y="687"/>
      <point x="160" y="724" type="qcurve" smooth="yes"/>
      <point x="160" y="762"/>
      <point x="197" y="822"/>
      <point x="261" y="858"/>
      <point x="300" y="858" type="qcurve" smooth="yes"/>
      <point x="340" y="858"/>
      <point x="403" y="822"/>
      <point x="440" y="762"/>
      <point x="440" y="724" type="qcurve" smooth="yes"/>
      <point x="440" y="687"/>
      <point x="403" y="626"/>
      <point x="340" y="590"/>
    </contour>
    <contour>
      <point x="300" y="670" type="qcurve" smooth="yes"/>
      <point x="323" y="670"/>
      <point x="354" y="700"/>
      <point x="354" y="724" type="qcurve" smooth="yes"/>
      <point x="354" y="748"/>
      <point x="323" y="778"/>
      <point x="300" y="778" type="qcurve" smooth="yes"/>
      <point x="278" y="778"/>
      <point x="246" y="748"/>
      <point x="246" y="724" type="qcurve" smooth="yes"/>
      <point x="246" y="700"/>
      <point x="278" y="670"/>
    </contour>
  </outline>
</glyph>
<glyph name="uni030F" format="2">
  <unicode hex="030F"/>
  <anchor x="300" y="547" name="_t.uni0308"/>
  <anchor x="300" y="547" name="_t.uni0308_2"/>
  <anchor x="300" y="547" name="_m.uni0308"/>
  <anchor x="300" y="760" name="m.uni0308"/>
  <outline>
    <contour>
      <point x="342" y="607" type="line"/>
      <point x="245" y="767" type="line"/>
      <point x="440" y="767" type="line"/>
      <point x="492" y="607" type="line"/>
    </contour>
    <contour>
      <point x="108" y="607" type="line"/>
      <point x="11" y="767" type="line"/>
      <point x="206" y="767" type="line"/>
      <point x="258" y="607" type="line"/>
    </contour>
  </outline>
</glyph>
<glyph name="uni0331" format="2">
  <unicode hex="0331"/>
  <anchor x="300" y="-176" name="t.uni0324"/>
  <outline>
    <contour>
      <point x="90" y="-192" type="line"/>
      <point x="90" y="-74" type="line"/>
      <point x="510" y="-74" type="line"/>
      <point x="510" y="-192" type="line"/>
    </contour>
  </outline>
</glyph>
<glyph name="uni0336" format="2">
  <unicode hex="0336"/>
  <anchor x="500" y="433" name="_t.uni0307_1"/>
  <outline>
    <contour>
      <point x="69" y="364" type="line"/>
      <point x="69" y="500" type="line"/>
      <point x="931" y="500" type="line"/>
      <point x="931" y="364" type="line"/>
    </contour>
  </outline>
</glyph>
<glyph name="uni0337" format="2">
  <unicode hex="0337"/>
  <anchor x="300" y="401" name="_t.uni0307_1"/>
  <outline>
    <contour>
      <point x="139" y="205" type="line"/>
      <point x="69" y="305" type="line"/>
      <point x="461" y="595" type="line"/>
      <point x="531" y="495" type="line"/>
    </contour>
  </outline>
</glyph>
<glyph name="uni0338" format="2">
  <unicode hex="0338"/>
  <anchor x="327" y="274" name="_t.uni0307_1"/>
  <outline>
    <contour>
      <point x="59" y="-70" type="line"/>
      <point x="500" y="610" type="line"/>
      <point x="595" y="610" type="line"/>
      <point x="154" y="-70" type="line"/>
    </contour>
  </outline>
</glyph>
<glyph name="Iotadieresis" format="2">
  <advance width="350"/>
  <unicode hex="03AA"/>
  <anchor x="175" y="700" name="t.uni0308"/>
  <anchor x="175" y="0" name="b.uni0324_3"/>
  <anchor x="293" y="0" name="m.uni0328_4"/>
  <outline>
    <contour>
      <point x="57" y="0" type="line"/>
      <point x="57" y="700" type="line"/>
      <point x="293" y="700" type="line"/>
      <point x="293" y="0" type="line"/>
    </contour>
    <contour>
      <point x="291" y="776" type="qcurve" smooth="yes"/>
      <point x="253" y="776"/>
      <point x="201" y="824"/>
      <point x="201" y="864" type="qcurve" smooth="yes"/>
      <point x="201" y="904"/>
      <point x="253" y="953"/>
      <point x="291" y="953" type="qcurve" smooth="yes"/>
      <point x="329" y="953"/>
      <point x="381" y="904"/>
      <point x="381" y="864" type="qcurve" smooth="yes"/>
      <point x="381" y="824"/>
      <point x="329" y="776"/>
    </contour>
    <contour>
      <point x="69" y="776" type="qcurve" smooth="yes"/>
      <point x="31" y="776"/>
      <point x="-21" y="824"/>
      <point x="-21" y="864" type="qcurve" smooth="yes"/>
      <point x="-21" y="904"/>
      <point x="31" y="953"/>
      <point x="69" y="953" type="qcurve" smooth="yes"/>
      <point x="107" y="953"/>
      <point x="159" y="904"/>
      <point x="159" y="864" type="qcurve" smooth="yes"/>
      <point x="159" y="824"/>
      <point x="107" y="776"/>
    </contour>
  </outline>
</glyph>
<glyph name="alphatonos" format="2">
  <advance width="669"/>
  <unicode hex="03AC"/>
  <anchor x="359" y="547" name="t.uni0308"/>
  <anchor x="359" y="0" name="b.uni0324_3"/>
  <anchor x="643" y="0" name="m.uni0328_4"/>
  <outline>
    <contour>
      <point x="284" y="-10" type="qcurve" smooth="yes"/>
      <point x="213" y="-10"/>
      <point x="92" y="59"/>
      <point x="20" y="186"/>
      <point x="20" y="274" type="qcurve" smooth="yes"/>
      <point x="20" y="362"/>
      <point x="92" y="489"/>
      <point x="213" y="557"/>
      <point x="284" y="557" type="qcurve" smooth="yes"/>
      <point x="356" y="557"/>
      <point x="448" y="496"/>
      <point x="492" y="371"/>
      <point x="492" y="274" type="qcurve" smooth="yes"/>
      <point x="492" y="176"/>
      <point x="451" y="50"/>
      <point x="360" y="-10"/>
    </contour>
    <contour>
      <point x="338" y="166" type="qcurve" smooth="yes"/>
      <point x="363" y="166"/>
      <point x="403" y="190"/>
      <point x="427" y="239"/>
      <point x="427" y="274" type="qcurve" smooth="yes"/>
      <point x="427" y="310"/>
      <point x="403" y="357"/>
      <point x="363" y="381"/>
      <point x="338" y="381" type="qcurve" smooth="yes"/>
      <point x="313" y="381"/>
      <point x="273" y="357"/>
      <point x="249" y="310"/>
      <point x="249" y="274" type="qcurve" smooth="yes"/>
      <point x="249" y="239"/>
      <point x="273" y="190"/>
      <point x="313" y="166"/>
    </contour>
    <contour>
      <point x="434" y="0" type="line"/>
      <point x="434" y="74" type="line"/>
      <point x="433" y="274" type="line"/>
      <point x="423" y="474" type="line"/>
      <point x="423" y="547" type="line"/>
      <point x="649" y="547" type="line"/>
      <point x="649" y="0" type="line"/>
    </contour>
    <contour>
      <point x="301" y="607" type="line"/>
      <point x="363" y="767" type="line"/>
      <point x="555" y="767" type="line"/>
      <point x="428" y="607" type="line"/>
    </contour>
  </outline>
</glyph>
<glyph name="iotatonos" format="2">
  <advance width="266"/>
  <unicode hex="03AF"/>
  <anchor x="162" y="547" name="t.uni0308"/>
  <anchor x="162" y="0" name="b.uni0324_3"/>
  <anchor x="275" y="0" name="m.uni0328_4"/>
  <outline>
    <contour>
      <point x="20" y="0" type="line"/>
      <point x="20" y="547" type="line"/>
      <point x="246" y="547" type="line"/>
      <point x="246" y="0" type="line"/>
    </contour>
    <contour>
      <point x="74" y="607" type="line"/>
      <point x="136" y="767" type="line"/>
      <point x="328" y="767" type="line"/>
      <point x="201" y="607" type="line"/>
    </contour>
  </outline>
</glyph>
<glyph name="delta" format="2">
  <advance width="697"/>
  <unicode hex="03B4"/>
  <anchor x="355" y="547" name="t.uni0308"/>
  <anchor x="355" y="274" name="t.uni0307_1"/>
  <anchor x="451" y="547" name="t.uni031B_2"/>
  <anchor x="355" y="0" name="b.uni0324_3"/>
  <anchor x="478" y="0" name="m.uni0328_4"/>
  <outline>
    <contour>
      <point x="357" y="-10" type="qcurve" smooth="yes"/>
      <point x="264" y="-10"/>
      <point x="121" y="63"/>
      <point x="39" y="191"/>
      <point x="39" y="274" type="qcurve" smooth="yes"/>
      <point x="39" y="357"/>
      <point x="80" y="421" type="qcurve" smooth="yes"/>
      <point x="100.92" y="453.655"/>
      <point x="129.779" y="479.02" type="qcurve"/>
      <point x="122.166" y="488.439"/>
      <point x="116" y="499.5" type="qcurve" smooth="yes"/>
      <point x="99" y="530"/>
      <point x="99" y="577" type="qcurve" smooth="yes"/>
      <point x="99" y="629"/>
      <point x="162" y="713"/>
      <point x="287" y="764"/>
      <point x="379" y="764" type="qcurve" smooth="yes"/>
      <point x="439" y="764"/>
      <point x="559" y="742"/>
      <point x="602" y="719" type="qcurve"/>
      <point x="540" y="570" type="line"/>
      <point x="498" y="593"/>
      <point x="417" y="610"/>
      <point x="382" y="610" type="qcurve" smooth="yes"/>
      <point x="339" y="610"/>
      <point x="308" y="594"/>
      <point x="308" y="584" type="qcurve" smooth="yes"/>
      <point x="308" y="572"/>
      <point x="342" y="560"/>
      <point x="374.728" y="557.545"/>
      <point x="393.126" y="555.578" type="qcurve" smooth="yes"/>
      <point x="464.305" y="549.847"/>
      <point x="522" y="521" type="qcurve" smooth="yes"/>
      <point x="594" y="485"/>
      <point x="675" y="357"/>
      <point x="675" y="274" type="qcurve" smooth="yes"/>
      <point x="675" y="191"/>
      <point x="594" y="63"/>
      <point x="450" y="-10"/>
    </contour>
    <contour>
      <point x="357" y="166" type="qcurve" smooth="yes"/>
      <point x="382" y="166"/>
      <point x="422" y="190"/>
      <point x="446" y="239"/>
      <point x="446" y="274" type="qcurve" smooth="yes"/>
      <point x="446" y="310"/>
      <point x="422" y="357"/>
      <point x="382" y="381"/>
      <point x="357" y="381" type="qcurve" smooth="yes"/>
      <point x="332" y="381"/>
      <point x="292" y="357"/>
      <point x="268" y="310"/>
      <point x="268" y="274" type="qcurve" smooth="yes"/>
      <point x="268" y="239"/>
      <point x="292" y="190"/>
      <point x="332" y="166"/>
    </contour>
  </outline>
</glyph>
<glyph name="epsilon" format="2">
  <advance width="607"/>
  <unicode hex="03B5"/>
  <anchor x="327" y="582" name="t.uni0308"/>
  <anchor x="327" y="0" name="b.uni0324_3"/>
  <anchor x="561" y="0" name="m.uni0328_4"/>
  <outline>
    <contour>
      <point x="601" y="33" type="line"/>
      <point x="552" y="11"/>
      <point x="415" y="-15"/>
      <point x="346" y="-15" type="qcurve" smooth="yes"/>
      <point x="186" y="-15"/>
      <point x="21" y="73"/>
      <point x="21" y="154" type="qcurve" smooth="yes"/>
      <point x="21" y="196"/>
      <point x="67" y="272"/>
      <point x="155" y="292"/>
      <point x="219" y="292" type="qcurve"/>
      <point x="223" y="265" type="line"/>
      <point x="162" y="265"/>
      <point x="83" y="282"/>
      <point x="44" y="357"/>
      <point x="44" y="406" type="qcurve" smooth="yes"/>
      <point x="44" y="445"/>
      <point x="108" y="518"/>
      <point x="218" y="556"/>
      <point x="326" y="556" type="qcurve" smooth="yes"/>
      <point x="389" y="556"/>
      <point x="508" y="536"/>
      <point x="560" y="514" type="qcurve"/>
      <point x="523" y="393" type="line"/>
      <point x="469" y="406"/>
      <point x="394" y="411"/>
      <point x="366" y="411" type="qcurve" smooth="yes"/>
      <point x="317" y="411"/>
      <point x="274" y="388"/>
      <point x="275" y="373" type="qcurve"/>
      <point x="276" y="363"/>
      <point x="291" y="350"/>
      <point x="312" y="350" type="qcurve" smooth="yes"/>
      <point x="493" y="350" type="line"/>
      <point x="493" y="197" type="line"/>
      <point x="297" y="197" type="line" smooth="yes"/>
      <point x="271" y="197"/>
      <point x="251" y="182"/>
      <point x="251" y="169" type="qcurve" smooth="yes"/>
      <point x="251" y="153"/>
      <point x="297" y="136"/>
      <point x="355" y="136" type="qcurve" smooth="yes"/>
      <point x="382" y="136"/>
      <point x="448" y="146"/>
      <point x="512" y="165"/>
      <point x="535" y="178" type="qcurve"/>
    </contour>
  </outline>
</glyph>
<glyph name="xi" format="2">
  <advance width="557"/>
  <unicode hex="03BE"/>
  <anchor x="296" y="582" name="t.uni0308"/>
  <anchor x="296" y="0" name="b.uni0324_3"/>
  <anchor x="530" y="0" name="m.uni0328_4"/>
  <outline>
    <contour>
      <point x="396" y="527" type="qcurve"/>
      <point x="396" y="527"/>
      <point x="509" y="527" type="qcurve"/>
      <point x="509" y="351" type="line"/>
      <point x="396" y="351" type="line" smooth="yes"/>
      <point x="260" y="351"/>
      <point x="250" y="272" type="qcurve" smooth="yes"/>
      <point x="237" y="168"/>
      <point x="362" y="150" type="qcurve" smooth="yes"/>
      <point x="645" y="109"/>
      <point x="494" y="-217" type="qcurve"/>
      <point x="337" y="-217" type="line"/>
      <point x="430" y="-31"/>
      <point x="262" y="-2" type="qcurve" smooth="yes"/>
      <point x="2" y="42"/>
      <point x="41" y="420"/>
      <point x="234" y="420" type="qcurve"/>
      <point x="234" y="420" type="line"/>
      <point x="63" y="420"/>
      <point x="64" y="693"/>
      <point x="218" y="693" type="qcurve"/>
      <point x="27" y="693" type="line"/>
      <point x="27" y="860" type="line"/>
      <point x="509" y="860" type="line"/>
      <point x="509" y="693" type="line"/>
      <point x="288" y="719"/>
      <point x="288" y="618" type="qcurve" smooth="yes"/>
      <point x="288" y="533"/>
    </contour>
  </outline>
</glyph>
<glyph name="sigmafinal" format="2">
  <advance width="565"/>
  <unicode hex="03C2"/>
  <anchor x="276" y="547" name="t.uni0308"/>
  <anchor x="276" y="0" name="b.uni0324_3"/>
  <outline>
    <contour>
      <point x="264" y="-10" type="qcurve" smooth="yes"/>
      <point x="194" y="-10"/>
      <point x="58" y="20"/>
      <point x="16" y="44" type="qcurve"/>
      <point x="78" y="193" type="line"/>
      <point x="117" y="170"/>
      <point x="220" y="144"/>
      <point x="269" y="144" type="qcurve" smooth="yes"/>
      <point x="310" y="144"/>
      <point x="339" y="158"/>
      <point x="339" y="170" type="qcurve" smooth="yes"/>
      <point x="339" y="182"/>
      <point x="305" y="193"/>
      <point x="249" y="199"/>
      <point x="182" y="208"/>
      <point x="114" y="226"/>
      <point x="58" y="262"/>
      <point x="24" y="323"/>
      <point x="24" y="370" type="qcurve" smooth="yes"/>
      <point x="24" y="422"/>
      <point x="87" y="506"/>
      <point x="212" y="557"/>
      <point x="304" y="557" type="qcurve" smooth="yes"/>
      <point x="364" y="557"/>
      <point x="484" y="535"/>
      <point x="527" y="512" type="qcurve"/>
      <point x="465" y="363" type="line"/>
      <point x="423" y="386"/>
      <point x="342" y="403"/>
      <point x="307" y="403" type="qcurve" smooth="yes"/>
      <point x="264" y="403"/>
      <point x="233" y="387"/>
      <point x="233" y="377" type="qcurve" smooth="yes"/>
      <point x="233" y="365"/>
      <point x="267" y="353"/>
      <point x="323" y="347"/>
      <point x="390" y="338"/>
      <point x="457" y="319"/>
      <point x="513" y="283"/>
      <point x="547" y="222"/>
      <point x="547" y="175" type="qcurve" smooth="yes"/>
      <point x="547" y="126"/>
      <point x="485" y="41"/>
      <point x="359" y="-10"/>
    </contour>
  </outline>
</glyph>
<glyph name="tau" format="2">
  <advance width="501"/>
  <unicode hex="03C4"/>
  <anchor x="218" y="597" name="t.uni0308"/>
  <anchor x="237" y="261" name="t.uni0307_1"/>
  <anchor x="379" y="669" name="t.uni031B_2"/>
  <anchor x="304" y="0" name="b.uni0324_3"/>
  <outline>
    <contour>
      <point x="344" y="-10" type="qcurve" smooth="yes"/>
      <point x="231" y="-10"/>
      <point x="112" y="99"/>
      <point x="112" y="212" type="qcurve" smooth="yes"/>
      <point x="112" y="539" type="line"/>
      <point x="331" y="539" type="line"/>
      <point x="331" y="214" type="line" smooth="yes"/>
      <point x="331" y="189"/>
      <point x="358" y="161"/>
      <point x="378" y="161" type="qcurve" smooth="yes"/>
      <point x="407" y="161"/>
      <point x="440" y="181" type="qcurve"/>
      <point x="494" y="24" type="line"/>
      <point x="468" y="9"/>
      <point x="384" y="-10"/>
    </contour>
    <contour>
      <point x="0" y="391" type="line"/>
      <point x="0" y="547" type="line"/>
      <point x="443" y="547" type="line"/>
      <point x="443" y="391" type="line"/>
    </contour>
  </outline>
</glyph>
<glyph name="phi" format="2">
  <advance width="807"/>
  <unicode hex="03C6"/>
  <outline>
    <contour>
      <point x="289" y="-195" type="line"/>
      <point x="289" y="659" type="line"/>
      <point x="516" y="659" type="line"/>
      <point x="516" y="-195" type="line"/>
    </contour>
    <contour>
      <point x="403" y="-7" type="qcurve" smooth="yes"/>
      <point x="279" y="-7"/>
      <point x="96" y="79"/>
      <point x="20" y="199"/>
      <point x="20" y="276" type="qcurve" smooth="yes"/>
      <point x="20" y="369"/>
      <point x="96" y="486"/>
      <point x="279" y="562"/>
      <point x="403" y="562" type="qcurve" smooth="yes"/>
      <point x="528" y="562"/>
      <point x="712" y="486"/>
      <point x="787" y="368"/>
      <point x="787" y="275" type="qcurve" smooth="yes"/>
      <point x="787" y="197"/>
      <point x="710" y="78"/>
      <point x="528" y="-7"/>
    </contour>
    <contour>
      <point x="402" y="148" type="qcurve" smooth="yes"/>
      <point x="463" y="148"/>
      <point x="556" y="173"/>
      <point x="602" y="229"/>
      <point x="602" y="278" type="qcurve" smooth="yes"/>
      <point x="602" y="329"/>
      <point x="556" y="381"/>
      <point x="455" y="410"/>
      <point x="402" y="410" type="qcurve" smooth="yes"/>
      <point x="343" y="410"/>
      <point x="249" y="382"/>
      <point x="202" y="330"/>
      <point x="202" y="279" type="qcurve" smooth="yes"/>
      <point x="202" y="230"/>
      <point x="249" y="173"/>
      <point x="334" y="148"/>
    </contour>
  </outline>
  <guideline angle="90" x="608" y="0"/>
  <guideline angle="90" x="46" y="0"/>
  <guideline angle="0" x="0" y="262"/>
  <guideline angle="0" x="0" y="327"/>
  <guideline angle="0" x="0" y="181"/>
</glyph>
<glyph name="psi" format="2">
  <advance width="830"/>
  <unicode hex="03C8"/>
  <outline>
    <contour>
      <point x="508" y="659" type="line"/>
      <point x="508" y="-203" type="line"/>
      <point x="329" y="-203" type="line"/>
      <point x="329" y="659" type="line"/>
    </contour>
    <contour>
      <point x="801" y="550" type="line"/>
      <point x="809" y="429"/>
      <point x="809" y="342" type="qcurve" smooth="yes"/>
      <point x="809" y="244"/>
      <point x="708" y="80"/>
      <point x="531" y="-6"/>
      <point x="421" y="-6" type="qcurve" smooth="yes"/>
      <point x="311" y="-6"/>
      <point x="130" y="80"/>
      <point x="21" y="244"/>
      <point x="21" y="342" type="qcurve" smooth="yes"/>
      <point x="21" y="429"/>
      <point x="37" y="550" type="qcurve"/>
      <point x="232" y="550" type="line"/>
      <point x="217" y="395"/>
      <point x="217" y="342" type="qcurve" smooth="yes"/>
      <point x="217" y="296"/>
      <point x="269" y="218"/>
      <point x="380" y="168"/>
      <point x="421" y="168" type="qcurve" smooth="yes"/>
      <point x="462" y="168"/>
      <point x="570" y="218"/>
      <point x="609" y="295"/>
      <point x="611" y="342" type="qcurve" smooth="yes"/>
      <point x="613" y="395"/>
      <point x="608" y="550" type="qcurve"/>
    </contour>
  </outline>
  <guideline angle="0" x="0" y="528"/>
  <guideline angle="0" x="0" y="380"/>
</glyph>
<glyph name="omega" format="2">
  <advance width="898"/>
  <unicode hex="03C9"/>
  <anchor x="460" y="582" name="t.uni0308"/>
  <anchor x="460" y="0" name="b.uni0324_3"/>
  <anchor x="694" y="0" name="m.uni0328_4"/>
  <outline>
    <contour>
      <point x="778" y="539" type="line"/>
      <point x="809" y="495"/>
      <point x="854" y="381"/>
      <point x="856" y="312" type="qcurve" smooth="yes"/>
      <point x="860" y="151"/>
      <point x="715" y="-7"/>
      <point x="625" y="-18" type="qcurve" smooth="yes"/>
      <point x="559" y="-26"/>
      <point x="465" y="41"/>
      <point x="429" y="112"/>
      <point x="423" y="176" type="qcurve"/>
      <point x="471" y="184" type="line"/>
      <point x="476" y="123"/>
      <point x="445" y="41"/>
      <point x="373" y="-8"/>
      <point x="306" y="-14" type="qcurve" smooth="yes"/>
      <point x="259" y="-18"/>
      <point x="149" y="32"/>
      <point x="63" y="146"/>
      <point x="45" y="251" type="qcurve" smooth="yes"/>
      <point x="34" y="314"/>
      <point x="84" y="489"/>
      <point x="127" y="539" type="qcurve"/>
      <point x="304" y="477" type="line"/>
      <point x="269" y="411"/>
      <point x="251" y="273"/>
      <point x="290" y="174"/>
      <point x="317" y="171" type="qcurve" smooth="yes"/>
      <point x="345" y="168"/>
      <point x="356" y="228"/>
      <point x="357" y="260" type="qcurve" smooth="yes"/>
      <point x="361" y="461" type="line"/>
      <point x="540" y="461" type="line"/>
      <point x="541" y="258" type="line"/>
      <point x="541" y="221"/>
      <point x="551" y="168"/>
      <point x="584" y="168" type="qcurve" smooth="yes"/>
      <point x="604" y="168"/>
      <point x="643" y="228"/>
      <point x="646" y="359"/>
      <point x="592" y="478" type="qcurve"/>
    </contour>
  </outline>
</glyph>
<glyph name="iotadieresis" format="2">
  <advance width="326"/>
  <unicode hex="03CA"/>
  <anchor x="163" y="0" name="b.uni0324_3"/>
  <anchor x="276" y="0" name="m.uni0328_4"/>
  <anchor x="163" y="740" name="m.uni0308"/>
  <outline>
    <contour>
      <point x="275" y="607" type="qcurve" smooth="yes"/>
      <point x="237" y="607"/>
      <point x="185" y="655"/>
      <point x="185" y="695" type="qcurve" smooth="yes"/>
      <point x="185" y="735"/>
      <point x="237" y="784"/>
      <point x="275" y="784" type="qcurve" smooth="yes"/>
      <point x="313" y="784"/>
      <point x="365" y="735"/>
      <point x="365" y="695" type="qcurve" smooth="yes"/>
      <point x="365" y="655"/>
      <point x="313" y="607"/>
    </contour>
    <contour>
      <point x="53" y="607" type="qcurve" smooth="yes"/>
      <point x="15" y="607"/>
      <point x="-37" y="655"/>
      <point x="-37" y="695" type="qcurve" smooth="yes"/>
      <point x="-37" y="735"/>
      <point x="15" y="784"/>
      <point x="53" y="784" type="qcurve" smooth="yes"/>
      <point x="91" y="784"/>
      <point x="143" y="735"/>
      <point x="143" y="695" type="qcurve" smooth="yes"/>
      <point x="143" y="655"/>
      <point x="91" y="607"/>
    </contour>
    <contour>
      <point x="50" y="0" type="line"/>
      <point x="50" y="547" type="line"/>
      <point x="276" y="547" type="line"/>
      <point x="276" y="0" type="line"/>
    </contour>
  </outline>
</glyph>
<glyph name="uni040B" format="2">
  <advance width="874"/>
  <unicode hex="040B"/>
  <outline>
    <contour>
      <point x="221" y="0" type="line"/>
      <point x="221" y="568" type="line"/>
      <point x="272" y="517" type="line"/>
      <point x="16" y="517" type="line"/>
      <point x="16" y="700" type="line"/>
      <point x="683" y="700" type="line"/>
      <point x="683" y="517" type="line"/>
      <point x="402" y="517" type="line"/>
      <point x="453" y="568" type="line"/>
      <point x="453" y="0" type="line"/>
    </contour>
    <contour>
      <point x="426" y="408" type="line"/>
      <point x="470" y="419"/>
      <point x="549" y="431"/>
      <point x="586" y="431" type="qcurve" smooth="yes"/>
      <point x="706" y="431"/>
      <point x="849" y="299"/>
      <point x="849" y="159" type="qcurve" smooth="yes"/>
      <point x="849" y="0" type="line"/>
      <point x="617" y="0" type="line"/>
      <point x="617" y="130" type="line" smooth="yes"/>
      <point x="617" y="188"/>
      <point x="568" y="241"/>
      <point x="529" y="241" type="qcurve" smooth="yes"/>
      <point x="485" y="241"/>
      <point x="432" y="212" type="qcurve"/>
    </contour>
  </outline>
</glyph>
<glyph name="uni0411" format="2">
  <advance width="745"/>
  <unicode hex="0411"/>
  <outline>
    <contour>
      <point x="62" y="0" type="line"/>
      <point x="62" y="700" type="line"/>
      <point x="669" y="700" type="line"/>
      <point x="669" y="522" type="line"/>
      <point x="294" y="522" type="line"/>
      <point x="294" y="441" type="line"/>
      <point x="461" y="441" type="line" smooth="yes"/>
      <point x="589" y="441"/>
      <point x="726" y="332"/>
      <point x="726" y="229" type="qcurve" smooth="yes"/>
      <point x="726" y="122"/>
      <point x="570" y="0"/>
      <point x="431" y="0" type="qcurve" smooth="yes"/>
    </contour>
    <contour>
      <point x="294" y="165" type="line"/>
      <point x="415" y="165" type="line" smooth="yes"/>
      <point x="450" y="165"/>
      <point x="489" y="195"/>
      <point x="489" y="223" type="qcurve" smooth="yes"/>
      <point x="489" y="277"/>
      <point x="415" y="277" type="qcurve" smooth="yes"/>
      <point x="294" y="277" type="line"/>
    </contour>
  </outline>
</glyph>
<glyph name="uni0414" format="2">
  <advance width="864"/>
  <unicode hex="0414"/>
  <outline>
    <contour>
      <point x="523" y="100" type="line"/>
      <point x="523" y="517" type="line"/>
      <point x="362" y="517" type="line"/>
      <point x="360" y="467" type="line" smooth="yes"/>
      <point x="358" y="412"/>
      <point x="348" y="316"/>
      <point x="331" y="236"/>
      <point x="305" y="175"/>
      <point x="286" y="155" type="qcurve"/>
      <point x="37" y="183" type="line"/>
      <point x="70" y="183"/>
      <point x="113" y="228"/>
      <point x="139" y="309"/>
      <point x="152" y="420"/>
      <point x="155" y="487" type="qcurve" smooth="yes"/>
      <point x="163" y="700" type="line"/>
      <point x="755" y="700" type="line"/>
      <point x="755" y="100" type="line"/>
    </contour>
    <contour>
      <point x="17" y="-137" type="line"/>
      <point x="17" y="183" type="line"/>
      <point x="847" y="183" type="line"/>
      <point x="847" y="-137" type="line"/>
      <point x="631" y="-137" type="line"/>
      <point x="631" y="0" type="line"/>
      <point x="233" y="0" type="line"/>
      <point x="233" y="-137" type="line"/>
    </contour>
  </outline>
</glyph>
<glyph name="uni0417" format="2">
  <advance width="672"/>
  <unicode hex="0417"/>
  <anchor x="328" y="700" name="t.uni0308"/>
  <anchor x="307" y="0" name="b.uni0324_3"/>
  <outline>
    <contour>
      <point x="13" y="46" type="qcurve"/>
      <point x="82" y="209" type="line"/>
      <point x="126" y="191"/>
      <point x="219" y="171"/>
      <point x="305" y="166"/>
      <point x="372" y="178"/>
      <point x="412" y="206"/>
      <point x="412" y="229" type="qcurve" smooth="yes"/>
      <point x="412" y="253"/>
      <point x="372" y="271"/>
      <point x="343" y="271" type="qcurve" smooth="yes"/>
      <point x="154" y="271" type="line"/>
      <point x="154" y="441" type="line"/>
      <point x="323" y="441" type="line" smooth="yes"/>
      <point x="353" y="441"/>
      <point x="384" y="464"/>
      <point x="384" y="483" type="qcurve" smooth="yes"/>
      <point x="384" y="504"/>
      <point x="349" y="528"/>
      <point x="290" y="537"/>
      <point x="216" y="530"/>
      <point x="137" y="507"/>
      <point x="100" y="489" type="qcurve"/>
      <point x="31" y="661" type="line"/>
      <point x="105" y="695"/>
      <point x="268" y="720"/>
      <point x="423" y="705"/>
      <point x="548" y="653"/>
      <point x="622" y="568"/>
      <point x="622" y="510" type="qcurve" smooth="yes"/>
      <point x="622" y="460"/>
      <point x="568" y="381"/>
      <point x="475" y="337"/>
      <point x="416" y="337" type="qcurve"/>
      <point x="421" y="384" type="line"/>
      <point x="490" y="384"/>
      <point x="593" y="335"/>
      <point x="650" y="251"/>
      <point x="650" y="197" type="qcurve" smooth="yes"/>
      <point x="650" y="147"/>
      <point x="596" y="68"/>
      <point x="501" y="13"/>
      <point x="376" y="-15"/>
      <point x="233" y="-16"/>
      <point x="84" y="15"/>
    </contour>
  </outline>
</glyph>
<glyph name="uni041A" format="2">
  <advance width="765"/>
  <unicode hex="041A"/>
  <anchor x="394" y="700" name="t.uni0308"/>
  <outline>
    <contour>
      <point x="492" y="0" type="line"/>
      <point x="318" y="328" type="line"/>
      <point x="506" y="438" type="line"/>
      <point x="758" y="0" type="line"/>
    </contour>
    <contour>
      <point x="56" y="0" type="line"/>
      <point x="56" y="700" type="line"/>
      <point x="292" y="700" type="line"/>
      <point x="292" y="0" type="line"/>
    </contour>
    <contour>
      <point x="224" y="253" type="line"/>
      <point x="224" y="439" type="line"/>
      <point x="489" y="439" type="line"/>
      <point x="489" y="253" type="line"/>
    </contour>
    <contour>
      <point x="529" y="325" type="line"/>
      <point x="312" y="347" type="line"/>
      <point x="513" y="700" type="line"/>
      <point x="759" y="700" type="line"/>
    </contour>
  </outline>
</glyph>
<glyph name="uni0424" format="2">
  <advance width="980"/>
  <unicode hex="0424"/>
  <outline>
    <contour>
      <point x="464" y="40" type="qcurve" smooth="yes"/>
      <point x="319" y="40"/>
      <point x="122" y="112"/>
      <point x="22" y="252"/>
      <point x="22" y="353" type="qcurve" smooth="yes"/>
      <point x="22" y="454"/>
      <point x="122" y="593"/>
      <point x="320" y="665"/>
      <point x="465" y="665" type="qcurve" smooth="yes"/>
      <point x="467" y="665"/>
      <point x="495" y="665"/>
      <point x="523" y="665"/>
      <point x="524" y="665" type="qcurve"/>
      <point x="667" y="665"/>
      <point x="860" y="592"/>
      <point x="958" y="453"/>
      <point x="958" y="353" type="qcurve" smooth="yes"/>
      <point x="958" y="254"/>
      <point x="863" y="114"/>
      <point x="675" y="40"/>
      <point x="536" y="40" type="qcurve" smooth="yes"/>
      <point x="533" y="40"/>
      <point x="500" y="40"/>
      <point x="468" y="40"/>
    </contour>
    <contour>
      <point x="485" y="220" type="qcurve" smooth="yes"/>
      <point x="488" y="220"/>
      <point x="504" y="220"/>
      <point x="507" y="220" type="qcurve" smooth="yes"/>
      <point x="588" y="220"/>
      <point x="686" y="247"/>
      <point x="730" y="306"/>
      <point x="730" y="354" type="qcurve" smooth="yes"/>
      <point x="730" y="402"/>
      <point x="684" y="459"/>
      <point x="587" y="485"/>
      <point x="510" y="485" type="qcurve" smooth="yes"/>
      <point x="506" y="485"/>
      <point x="490" y="485"/>
      <point x="485" y="485" type="qcurve" smooth="yes"/>
      <point x="399" y="485"/>
      <point x="296" y="460"/>
      <point x="250" y="402"/>
      <point x="250" y="353" type="qcurve" smooth="yes"/>
      <point x="250" y="304"/>
      <point x="302" y="245"/>
      <point x="407" y="220"/>
    </contour>
    <contour>
      <point x="382" y="-36" type="line"/>
      <point x="382" y="735" type="line"/>
      <point x="598" y="735" type="line"/>
      <point x="598" y="-36" type="line"/>
    </contour>
  </outline>
</glyph>
<glyph name="uni0425" format="2">
  <advance width="789"/>
  <unicode hex="0425"/>
  <outline>
    <contour>
      <point x="18" y="701" type="line"/>
      <point x="288" y="701" type="line"/>
      <point x="390" y="536" type="line"/>
      <point x="492" y="701" type="line"/>
      <point x="765" y="701" type="line"/>
      <point x="538" y="367" type="line"/>
      <point x="786" y="0" type="line"/>
      <point x="508" y="0" type="line"/>
      <point x="390" y="181" type="line"/>
      <point x="274" y="0" type="line"/>
      <point x="3" y="0" type="line"/>
      <point x="249" y="356" type="line"/>
    </contour>
  </outline>
</glyph>
<glyph name="uni042A" format="2">
  <advance width="865"/>
  <unicode hex="042A"/>
  <outline>
    <contour>
      <point x="573" y="485" type="line" smooth="yes"/>
      <point x="701" y="485"/>
      <point x="846" y="370"/>
      <point x="846" y="254" type="qcurve" smooth="yes"/>
      <point x="846" y="129"/>
      <point x="682" y="0"/>
      <point x="543" y="0" type="qcurve" smooth="yes"/>
      <point x="196" y="0" type="line"/>
      <point x="196" y="517" type="line"/>
      <point x="16" y="517" type="line"/>
      <point x="16" y="700" type="line"/>
      <point x="428" y="700" type="line"/>
      <point x="428" y="485" type="line"/>
    </contour>
    <contour>
      <point x="527" y="165" type="line" smooth="yes"/>
      <point x="562" y="165"/>
      <point x="609" y="210"/>
      <point x="609" y="250" type="qcurve" smooth="yes"/>
      <point x="609" y="290"/>
      <point x="562" y="320"/>
      <point x="527" y="320" type="qcurve" smooth="yes"/>
      <point x="428" y="320" type="line"/>
      <point x="428" y="165" type="line"/>
    </contour>
  </outline>
</glyph>
<glyph name="uni042C" format="2">
  <advance width="731"/>
  <unicode hex="042C"/>
  <anchor x="190" y="580" name="t.uni0307_1"/>
  <outline>
    <contour>
      <point x="439" y="485" type="line" smooth="yes"/>
      <point x="567" y="485"/>
      <point x="712" y="370"/>
      <point x="712" y="254" type="qcurve" smooth="yes"/>
      <point x="712" y="129"/>
      <point x="548" y="0"/>
      <point x="409" y="0" type="qcurve" smooth="yes"/>
      <point x="62" y="0" type="line"/>
      <point x="62" y="700" type="line"/>
      <point x="294" y="700" type="line"/>
      <point x="294" y="485" type="line"/>
    </contour>
    <contour>
      <point x="393" y="165" type="line" smooth="yes"/>
      <point x="428" y="165"/>
      <point x="475" y="210"/>
      <point x="475" y="250" type="qcurve" smooth="yes"/>
      <point x="475" y="290"/>
      <point x="428" y="320"/>
      <point x="393" y="320" type="qcurve" smooth="yes"/>
      <point x="294" y="320" type="line"/>
      <point x="294" y="165" type="line"/>
    </contour>
  </outline>
</glyph>
<glyph name="uni042F" format="2">
  <advance width="738"/>
  <unicode hex="042F"/>
  <outline>
    <contour>
      <point x="444" y="0" type="line"/>
      <point x="444" y="213" type="line"/>
      <point x="499" y="166" type="line"/>
      <point x="338" y="166" type="line" smooth="yes"/>
      <point x="241" y="166"/>
      <point x="100" y="229"/>
      <point x="24" y="347"/>
      <point x="24" y="429" type="qcurve" smooth="yes"/>
      <point x="24" y="513"/>
      <point x="103" y="634"/>
      <point x="249" y="700"/>
      <point x="348" y="700" type="qcurve" smooth="yes"/>
      <point x="676" y="700" type="line"/>
      <point x="676" y="0" type="line"/>
    </contour>
    <contour>
      <point x="27" y="0" type="line"/>
      <point x="203" y="255" type="line"/>
      <point x="438" y="255" type="line"/>
      <point x="274" y="0" type="line"/>
    </contour>
    <contour>
      <point x="444" y="287" type="line"/>
      <point x="444" y="575" type="line"/>
      <point x="499" y="518" type="line"/>
      <point x="352" y="518" type="line" smooth="yes"/>
      <point x="307" y="518"/>
      <point x="262" y="476"/>
      <point x="262" y="433" type="qcurve" smooth="yes"/>
      <point x="262" y="389"/>
      <point x="308" y="344"/>
      <point x="352" y="344" type="qcurve" smooth="yes"/>
      <point x="499" y="344" type="line"/>
    </contour>
  </outline>
</glyph>
<glyph name="uni0432" format="2">
  <advance width="629"/>
  <unicode hex="0432"/>
  <anchor x="327" y="547" name="t.uni0308"/>
  <anchor x="327" y="0" name="b.uni0324_3"/>
  <outline>
    <contour>
      <point x="53" y="0" type="line"/>
      <point x="53" y="547" type="line"/>
      <point x="360" y="547" type="line" smooth="yes"/>
      <point x="470" y="547"/>
      <point x="592" y="472"/>
      <point x="592" y="404" type="qcurve" smooth="yes"/>
      <point x="592" y="338"/>
      <point x="480" y="259"/>
      <point x="385" y="259" type="qcurve"/>
      <point x="402" y="305" type="line"/>
      <point x="503" y="305"/>
      <point x="608" y="231"/>
      <point x="608" y="160" type="qcurve" smooth="yes"/>
      <point x="608" y="87"/>
      <point x="493" y="0"/>
      <point x="376" y="0" type="qcurve" smooth="yes"/>
    </contour>
    <contour>
      <point x="251" y="140" type="line"/>
      <point x="356" y="140" type="line" smooth="yes"/>
      <point x="381" y="140"/>
      <point x="405" y="162"/>
      <point x="405" y="181" type="qcurve" smooth="yes"/>
      <point x="405" y="201"/>
      <point x="381" y="220"/>
      <point x="356" y="220" type="qcurve" smooth="yes"/>
      <point x="251" y="220" type="line"/>
    </contour>
    <contour>
      <point x="251" y="331" type="line"/>
      <point x="340" y="331" type="line" smooth="yes"/>
      <point x="366" y="331"/>
      <point x="389" y="351"/>
      <point x="389" y="370" type="qcurve" smooth="yes"/>
      <point x="389" y="390"/>
      <point x="366" y="407"/>
      <point x="340" y="407" type="qcurve" smooth="yes"/>
      <point x="251" y="407" type="line"/>
    </contour>
  </outline>
</glyph>
<glyph name="uni0433" format="2">
  <advance width="543"/>
  <unicode hex="0433"/>
  <anchor x="294" y="547" name="t.uni0308"/>
  <outline>
    <contour>
      <point x="53" y="0" type="line"/>
      <point x="53" y="547" type="line"/>
      <point x="531" y="547" type="line"/>
      <point x="531" y="371" type="line"/>
      <point x="229" y="371" type="line"/>
      <point x="278" y="419" type="line"/>
      <point x="278" y="0" type="line"/>
    </contour>
  </outline>
</glyph>
<glyph name="uni0434" format="2">
  <advance width="746"/>
  <unicode hex="0434"/>
  <outline>
    <contour>
      <point x="435" y="97" type="line"/>
      <point x="435" y="371" type="line"/>
      <point x="322" y="371" type="line"/>
      <point x="321" y="337" type="line" smooth="yes"/>
      <point x="320" y="302"/>
      <point x="315" y="242"/>
      <point x="301" y="195"/>
      <point x="274" y="160"/>
      <point x="250" y="149" type="qcurve"/>
      <point x="29" y="177" type="line"/>
      <point x="55" y="177"/>
      <point x="89" y="204"/>
      <point x="108" y="253"/>
      <point x="117" y="317"/>
      <point x="118" y="354" type="qcurve" smooth="yes"/>
      <point x="125" y="547" type="line"/>
      <point x="660" y="547" type="line"/>
      <point x="660" y="97" type="line"/>
    </contour>
    <contour>
      <point x="13" y="-108" type="line"/>
      <point x="13" y="177" type="line"/>
      <point x="733" y="177" type="line"/>
      <point x="733" y="-108" type="line"/>
      <point x="524" y="-108" type="line"/>
      <point x="524" y="0" type="line"/>
      <point x="222" y="0" type="line"/>
      <point x="222" y="-108" type="line"/>
    </contour>
  </outline>
</glyph>
<glyph name="uni0437" format="2">
  <advance width="583"/>
  <unicode hex="0437"/>
  <anchor x="293" y="547" name="t.uni0308"/>
  <anchor x="275" y="0" name="b.uni0324_3"/>
  <outline>
    <contour>
      <point x="265" y="-13" type="qcurve" smooth="yes"/>
      <point x="347" y="-13"/>
      <point x="482" y="27"/>
      <point x="564" y="107"/>
      <point x="564" y="166" type="qcurve" smooth="yes"/>
      <point x="564" y="227"/>
      <point x="460" y="299"/>
      <point x="372" y="299" type="qcurve"/>
      <point x="367" y="259" type="line"/>
      <point x="418" y="259"/>
      <point x="500" y="297"/>
      <point x="549" y="361"/>
      <point x="549" y="401" type="qcurve" smooth="yes"/>
      <point x="549" y="456"/>
      <point x="471" y="526"/>
      <point x="339" y="560"/>
      <point x="259" y="559" type="qcurve" smooth="yes"/>
      <point x="202" y="558"/>
      <point x="81" y="532"/>
      <point x="25" y="510" type="qcurve"/>
      <point x="76" y="367" type="line"/>
      <point x="123" y="383"/>
      <point x="211" y="401"/>
      <point x="251" y="401" type="qcurve" smooth="yes"/>
      <point x="278" y="401"/>
      <point x="309" y="393"/>
      <point x="322" y="379"/>
      <point x="322" y="369" type="qcurve" smooth="yes"/>
      <point x="322" y="359"/>
      <point x="312" y="345"/>
      <point x="291" y="339"/>
      <point x="274" y="339" type="qcurve" smooth="yes"/>
      <point x="170" y="339" type="line"/>
      <point x="170" y="213" type="line"/>
      <point x="295" y="213" type="line" smooth="yes"/>
      <point x="318" y="213"/>
      <point x="337" y="200"/>
      <point x="337" y="184" type="qcurve" smooth="yes"/>
      <point x="337" y="171"/>
      <point x="317" y="155"/>
      <point x="282" y="147"/>
      <point x="259" y="147" type="qcurve" smooth="yes"/>
      <point x="208" y="147"/>
      <point x="113" y="161"/>
      <point x="66" y="178" type="qcurve"/>
      <point x="9" y="29" type="line"/>
      <point x="71" y="7"/>
      <point x="202" y="-13"/>
    </contour>
  </outline>
</glyph>
<glyph name="uni043F" format="2">
  <advance width="693"/>
  <unicode hex="043F"/>
  <outline>
    <contour>
      <point x="53" y="0" type="line"/>
      <point x="53" y="547" type="line"/>
      <point x="640" y="547" type="line"/>
      <point x="640" y="0" type="line"/>
      <point x="415" y="0" type="line"/>
      <point x="415" y="418" type="line"/>
      <point x="464" y="371" type="line"/>
      <point x="229" y="371" type="line"/>
      <point x="278" y="418" type="line"/>
      <point x="278" y="0" type="line"/>
    </contour>
  </outline>
</glyph>
<glyph name="uni0448" format="2">
  <advance width="1005"/>
  <unicode hex="0448"/>
  <outline>
    <contour>
      <point x="440" y="177" type="line"/>
      <point x="391" y="128" type="line"/>
      <point x="391" y="547" type="line"/>
      <point x="616" y="547" type="line"/>
      <point x="616" y="128" type="line"/>
      <point x="566" y="177" type="line"/>
      <point x="777" y="177" type="line"/>
      <point x="728" y="128" type="line"/>
      <point x="728" y="547" type="line"/>
      <point x="952" y="547" type="line"/>
      <point x="952" y="0" type="line"/>
      <point x="53" y="0" type="line"/>
      <point x="53" y="547" type="line"/>
      <point x="278" y="547" type="line"/>
      <point x="278" y="128" type="line"/>
      <point x="229" y="177" type="line"/>
    </contour>
  </outline>
</glyph>
<glyph name="uni044A" format="2">
  <advance width="730"/>
  <unicode hex="044A"/>
  <outline>
    <contour>
      <point x="490" y="382" type="line" smooth="yes"/>
      <point x="600" y="382"/>
      <point x="718" y="285"/>
      <point x="718" y="199" type="qcurve" smooth="yes"/>
      <point x="718" y="105"/>
      <point x="581" y="0"/>
      <point x="462" y="0" type="qcurve" smooth="yes"/>
      <point x="159" y="0" type="line"/>
      <point x="159" y="371" type="line"/>
      <point x="12" y="371" type="line"/>
      <point x="12" y="547" type="line"/>
      <point x="384" y="547" type="line"/>
      <point x="384" y="382" type="line"/>
    </contour>
    <contour>
      <point x="446" y="152" type="line" smooth="yes"/>
      <point x="467" y="152"/>
      <point x="488" y="180"/>
      <point x="488" y="203" type="qcurve" smooth="yes"/>
      <point x="488" y="250"/>
      <point x="446" y="250" type="qcurve" smooth="yes"/>
      <point x="384" y="250" type="line"/>
      <point x="384" y="152" type="line"/>
    </contour>
  </outline>
</glyph>
<glyph name="uni044B" format="2">
  <advance width="920"/>
  <unicode hex="044B"/>
  <anchor x="459" y="547" name="t.uni0308"/>
  <anchor x="175" y="452" name="t.uni0307_1"/>
  <outline>
    <contour>
      <point x="642" y="0" type="line"/>
      <point x="642" y="547" type="line"/>
      <point x="867" y="547" type="line"/>
      <point x="867" y="0" type="line"/>
    </contour>
    <contour>
      <point x="391" y="382" type="line" smooth="yes"/>
      <point x="501" y="382"/>
      <point x="609" y="286"/>
      <point x="609" y="198" type="qcurve" smooth="yes"/>
      <point x="609" y="106"/>
      <point x="482" y="0"/>
      <point x="363" y="0" type="qcurve" smooth="yes"/>
      <point x="53" y="0" type="line"/>
      <point x="53" y="547" type="line"/>
      <point x="278" y="547" type="line"/>
      <point x="278" y="382" type="line"/>
    </contour>
    <contour>
      <point x="340" y="152" type="line" smooth="yes"/>
      <point x="363" y="152"/>
      <point x="389" y="176"/>
      <point x="389" y="202" type="qcurve" smooth="yes"/>
      <point x="389" y="228"/>
      <point x="363" y="250"/>
      <point x="340" y="250" type="qcurve" smooth="yes"/>
      <point x="278" y="250" type="line"/>
      <point x="278" y="152" type="line"/>
    </contour>
  </outline>
</glyph>
<glyph name="uni044D" format="2">
  <advance width="610"/>
  <unicode hex="044D"/>
  <anchor x="295" y="547" name="t.uni0308"/>
  <outline>
    <contour>
      <point x="193" y="201" type="line"/>
      <point x="193" y="348" type="line"/>
      <point x="455" y="348" type="line"/>
      <point x="455" y="201" type="line"/>
    </contour>
    <contour>
      <point x="272" y="561" type="qcurve" smooth="yes"/>
      <point x="366" y="561"/>
      <point x="510" y="488"/>
      <point x="592" y="359"/>
      <point x="592" y="274" type="qcurve" smooth="yes"/>
      <point x="592" y="189"/>
      <point x="510" y="59"/>
      <point x="366" y="-14"/>
      <point x="272" y="-14" type="qcurve" smooth="yes"/>
      <point x="184" y="-14"/>
      <point x="48" y="45"/>
      <point x="4" y="100" type="qcurve"/>
      <point x="133" y="216" type="line"/>
      <point x="159" y="186"/>
      <point x="222" y="152"/>
      <point x="262" y="152" type="qcurve" smooth="yes"/>
      <point x="301" y="152"/>
      <point x="356" y="181"/>
      <point x="385" y="236"/>
      <point x="385" y="274" type="qcurve" smooth="yes"/>
      <point x="385" y="312"/>
      <point x="356" y="367"/>
      <point x="301" y="396"/>
      <point x="262" y="396" type="qcurve" smooth="yes"/>
      <point x="222" y="396"/>
      <point x="159" y="362"/>
      <point x="133" y="332" type="qcurve"/>
      <point x="4" y="447" type="line"/>
      <point x="48" y="502"/>
      <point x="184" y="561"/>
    </contour>
  </outline>
</glyph>
<glyph name="uni044F" format="2">
  <advance width="648"/>
  <unicode hex="044F"/>
  <outline>
    <contour>
      <point x="395" y="0" type="line"/>
      <point x="395" y="172" type="line"/>
      <point x="423" y="139" type="line"/>
      <point x="298" y="139" type="line" smooth="yes"/>
      <point x="171" y="139"/>
      <point x="23" y="242"/>
      <point x="23" y="336" type="qcurve" smooth="yes"/>
      <point x="23" y="436"/>
      <point x="176" y="547"/>
      <point x="307" y="547" type="qcurve" smooth="yes"/>
      <point x="595" y="547" type="line"/>
      <point x="595" y="0" type="line"/>
    </contour>
    <contour>
      <point x="12" y="0" type="line"/>
      <point x="155" y="207" type="line"/>
      <point x="383" y="207" type="line"/>
      <point x="251" y="0" type="line"/>
    </contour>
    <contour>
      <point x="395" y="239" type="line"/>
      <point x="395" y="426" type="line"/>
      <point x="423" y="372" type="line"/>
      <point x="312" y="372" type="line" smooth="yes"/>
      <point x="284" y="372"/>
      <point x="254" y="351"/>
      <point x="254" y="328" type="qcurve" smooth="yes"/>
      <point x="254" y="280"/>
      <point x="312" y="280" type="qcurve" smooth="yes"/>
      <point x="423" y="280" type="line"/>
    </contour>
  </outline>
</glyph>
<glyph name="uni045A" format="2">
  <advance width="995"/>
  <unicode hex="045A"/>
  <outline>
    <contour>
      <point x="756" y="368" type="line" smooth="yes"/>
      <point x="866" y="368"/>
      <point x="984" y="278"/>
      <point x="984" y="192" type="qcurve" smooth="yes"/>
      <point x="984" y="103"/>
      <point x="847" y="0"/>
      <point x="728" y="0" type="qcurve" smooth="yes"/>
      <point x="423" y="0" type="line"/>
      <point x="423" y="191" type="line"/>
      <point x="278" y="191" type="line"/>
      <point x="278" y="0" type="line"/>
      <point x="53" y="0" type="line"/>
      <point x="53" y="547" type="line"/>
      <point x="278" y="547" type="line"/>
      <point x="278" y="368" type="line"/>
      <point x="423" y="368" type="line"/>
      <point x="423" y="547" type="line"/>
      <point x="648" y="547" type="line"/>
      <point x="648" y="368" type="line"/>
    </contour>
    <contour>
      <point x="712" y="148" type="line" smooth="yes"/>
      <point x="732" y="148"/>
      <point x="754" y="171"/>
      <point x="754" y="190" type="qcurve" smooth="yes"/>
      <point x="754" y="209"/>
      <point x="732" y="228"/>
      <point x="712" y="228" type="qcurve" smooth="yes"/>
      <point x="648" y="228" type="line"/>
      <point x="648" y="148" type="line"/>
    </contour>
  </outline>
</glyph>
<glyph name="uni045B" format="2">
  <advance width="698"/>
  <unicode hex="045B"/>
  <anchor x="166" y="742" name="t.uni0308"/>
  <anchor x="197" y="638" name="t.uni0307_1"/>
  <anchor x="312" y="547" name="t.uni031B_2"/>
  <anchor x="358" y="0" name="b.uni0324_3"/>
  <outline>
    <contour>
      <point x="-57" y="583" type="line"/>
      <point x="-57" y="693" type="line"/>
      <point x="452" y="693" type="line"/>
      <point x="452" y="583" type="line"/>
    </contour>
    <contour>
      <point x="433" y="557" type="qcurve" smooth="yes"/>
      <point x="496" y="557"/>
      <point x="598" y="506"/>
      <point x="657" y="398"/>
      <point x="657" y="312" type="qcurve" smooth="yes"/>
      <point x="657" y="0" type="line"/>
      <point x="431" y="0" type="line"/>
      <point x="431" y="273" type="line" smooth="yes"/>
      <point x="431" y="324"/>
      <point x="395" y="367"/>
      <point x="364" y="367" type="qcurve" smooth="yes"/>
      <point x="341" y="367"/>
      <point x="302" y="346"/>
      <point x="279" y="298"/>
      <point x="279" y="257" type="qcurve" smooth="yes"/>
      <point x="279" y="0" type="line"/>
      <point x="53" y="0" type="line"/>
      <point x="53" y="742" type="line"/>
      <point x="279" y="742" type="line"/>
      <point x="279" y="387" type="line"/>
      <point x="225" y="433" type="line"/>
      <point x="257" y="495"/>
      <point x="366" y="557"/>
    </contour>
  </outline>
</glyph>
<glyph name="uni0463" format="2">
  <advance width="687"/>
  <unicode hex="0463"/>
  <outline>
    <contour>
      <point x="1" y="468" type="line"/>
      <point x="1" y="598" type="line"/>
      <point x="511" y="598" type="line"/>
      <point x="511" y="468" type="line"/>
    </contour>
    <contour>
      <point x="447" y="382" type="line" smooth="yes"/>
      <point x="557" y="382"/>
      <point x="675" y="285"/>
      <point x="675" y="199" type="qcurve" smooth="yes"/>
      <point x="675" y="105"/>
      <point x="538" y="0"/>
      <point x="419" y="0" type="qcurve" smooth="yes"/>
      <point x="101" y="0" type="line"/>
      <point x="101" y="742" type="line"/>
      <point x="326" y="742" type="line"/>
      <point x="326" y="382" type="line"/>
    </contour>
    <contour>
      <point x="396" y="152" type="line" smooth="yes"/>
      <point x="419" y="152"/>
      <point x="445" y="176"/>
      <point x="445" y="202" type="qcurve" smooth="yes"/>
      <point x="445" y="228"/>
      <point x="419" y="250"/>
      <point x="396" y="250" type="qcurve" smooth="yes"/>
      <point x="326" y="250" type="line"/>
      <point x="326" y="152" type="line"/>
    </contour>
  </outline>
</glyph>
<glyph name="uni046B" format="2">
  <advance width="853"/>
  <unicode hex="046B"/>
  <outline>
    <contour>
      <point x="-1" y="0" type="line"/>
      <point x="31" y="97" type="line" smooth="yes"/>
      <point x="59" y="183"/>
      <point x="124" y="276"/>
      <point x="204" y="312"/>
      <point x="253" y="312" type="qcurve" smooth="yes"/>
      <point x="600" y="312" type="line" smooth="yes"/>
      <point x="650" y="312"/>
      <point x="729" y="276"/>
      <point x="794" y="183"/>
      <point x="822" y="97" type="qcurve" smooth="yes"/>
      <point x="854" y="0" type="line"/>
      <point x="634" y="0" type="line"/>
      <point x="624" y="52" type="line" smooth="yes"/>
      <point x="611" y="124"/>
      <point x="573" y="176"/>
      <point x="545" y="176" type="qcurve" smooth="yes"/>
      <point x="522" y="176" type="line"/>
      <point x="522" y="0" type="line"/>
      <point x="329" y="0" type="line"/>
      <point x="329" y="176" type="line"/>
      <point x="308" y="176" type="line" smooth="yes"/>
      <point x="280" y="176"/>
      <point x="241" y="124"/>
      <point x="227" y="52" type="qcurve" smooth="yes"/>
      <point x="217" y="0" type="line"/>
    </contour>
    <contour>
      <point x="425" y="314" type="line"/>
      <point x="533" y="412" type="line"/>
      <point x="320" y="412" type="line"/>
    </contour>
    <contour>
      <point x="250" y="270" type="line"/>
      <point x="91" y="425" type="line"/>
      <point x="91" y="547" type="line"/>
      <point x="760" y="547" type="line"/>
      <point x="760" y="425" type="line"/>
      <point x="599" y="270" type="line"/>
    </contour>
  </outline>
</glyph>
<glyph name="uni048E" format="2">
  <advance width="738"/>
  <unicode hex="048E"/>
  <outline>
    <contour>
      <point x="62" y="0" type="line"/>
      <point x="62" y="700" type="line"/>
      <point x="399" y="700" type="line" smooth="yes"/>
      <point x="497" y="700"/>
      <point x="640" y="635"/>
      <point x="718" y="512"/>
      <point x="718" y="426" type="qcurve" smooth="yes"/>
      <point x="718" y="340"/>
      <point x="640" y="217"/>
      <point x="497" y="152"/>
      <point x="399" y="152" type="qcurve" smooth="yes"/>
      <point x="243" y="152" type="line"/>
      <point x="298" y="203" type="line"/>
      <point x="298" y="0" type="line"/>
    </contour>
    <contour>
      <point x="298" y="277" type="line"/>
      <point x="243" y="334" type="line"/>
      <point x="384" y="334" type="line" smooth="yes"/>
      <point x="433" y="334"/>
      <point x="480" y="380"/>
      <point x="480" y="426" type="qcurve" smooth="yes"/>
      <point x="480" y="472"/>
      <point x="433" y="518"/>
      <point x="384" y="518" type="qcurve" smooth="yes"/>
      <point x="243" y="518" type="line"/>
      <point x="298" y="575" type="line"/>
    </contour>
    <contour>
      <point x="653" y="134" type="line"/>
      <point x="584" y="78" type="line"/>
      <point x="330" y="398" type="line"/>
      <point x="398" y="454" type="line"/>
    </contour>
  </outline>
</glyph>
<glyph name="uni048F" format="2">
  <advance width="706"/>
  <unicode hex="048F"/>
  <outline>
    <contour>
      <point x="420" y="-10" type="qcurve" smooth="yes"/>
      <point x="347" y="-10"/>
      <point x="254" y="51"/>
      <point x="210" y="176"/>
      <point x="210" y="273" type="qcurve" smooth="yes"/>
      <point x="210" y="372"/>
      <point x="251" y="497"/>
      <point x="343" y="557"/>
      <point x="420" y="557" type="qcurve" smooth="yes"/>
      <point x="494" y="557"/>
      <point x="614" y="488"/>
      <point x="686" y="361"/>
      <point x="686" y="273" type="qcurve" smooth="yes"/>
      <point x="686" y="185"/>
      <point x="614" y="58"/>
      <point x="494" y="-10"/>
    </contour>
    <contour>
      <point x="53" y="-194" type="line"/>
      <point x="53" y="547" type="line"/>
      <point x="268" y="547" type="line"/>
      <point x="268" y="473" type="line"/>
      <point x="269" y="273" type="line"/>
      <point x="279" y="73" type="line"/>
      <point x="279" y="-194" type="line"/>
    </contour>
    <contour>
      <point x="369" y="166" type="qcurve" smooth="yes"/>
      <point x="397" y="166"/>
      <point x="439" y="190"/>
      <point x="463" y="238"/>
      <point x="463" y="273" type="qcurve" smooth="yes"/>
      <point x="463" y="309"/>
      <point x="439" y="357"/>
      <point x="397" y="381"/>
      <point x="369" y="381" type="qcurve" smooth="yes"/>
      <point x="342" y="381"/>
      <point x="299" y="357"/>
      <point x="275" y="309"/>
      <point x="275" y="273" type="qcurve" smooth="yes"/>
      <point x="275" y="238"/>
      <point x="299" y="190"/>
      <point x="342" y="166"/>
    </contour>
    <contour>
      <point x="635" y="-12" type="line"/>
      <point x="570" y="-62" type="line"/>
      <point x="342" y="227" type="line"/>
      <point x="412" y="281" type="line"/>
    </contour>
  </outline>
</glyph>
<glyph name="uni0492" format="2">
  <advance width="666"/>
  <unicode hex="0492"/>
  <anchor x="370" y="700" name="t.uni0308"/>
  <outline>
    <contour>
      <point x="14" y="253" type="line"/>
      <point x="14" y="383" type="line"/>
      <point x="595" y="383" type="line"/>
      <point x="595" y="253" type="line"/>
    </contour>
    <contour>
      <point x="114" y="0" type="line"/>
      <point x="114" y="700" type="line"/>
      <point x="647" y="700" type="line"/>
      <point x="647" y="517" type="line"/>
      <point x="295" y="517" type="line"/>
      <point x="346" y="568" type="line"/>
      <point x="346" y="0" type="line"/>
    </contour>
  </outline>
</glyph>
<glyph name="uni0493" format="2">
  <advance width="589"/>
  <unicode hex="0493"/>
  <anchor x="340" y="547" name="t.uni0308"/>
  <outline>
    <contour>
      <point x="9" y="169" type="line"/>
      <point x="9" y="289" type="line"/>
      <point x="486" y="289" type="line"/>
      <point x="486" y="169" type="line"/>
    </contour>
    <contour>
      <point x="99" y="0" type="line"/>
      <point x="99" y="547" type="line"/>
      <point x="577" y="547" type="line"/>
      <point x="577" y="371" type="line"/>
      <point x="275" y="371" type="line"/>
      <point x="324" y="419" type="line"/>
      <point x="324" y="0" type="line"/>
    </contour>
  </outline>
</glyph>
<glyph name="uni0494" format="2">
  <advance width="710"/>
  <unicode hex="0494"/>
  <outline>
    <contour>
      <point x="62" y="0" type="line"/>
      <point x="62" y="700" type="line"/>
      <point x="616" y="700" type="line"/>
      <point x="616" y="517" type="line"/>
      <point x="243" y="517" type="line"/>
      <point x="294" y="568" type="line"/>
      <point x="294" y="0" type="line"/>
    </contour>
    <contour>
      <point x="316" y="-155" type="qcurve"/>
      <point x="352" y="19" type="line"/>
      <point x="384" y="12"/>
      <point x="432" y="31"/>
      <point x="459" y="80"/>
      <point x="459" y="117" type="qcurve" smooth="yes"/>
      <point x="459" y="146"/>
      <point x="442" y="189"/>
      <point x="409" y="215"/>
      <point x="364" y="223"/>
      <point x="307" y="215"/>
      <point x="275" y="201" type="qcurve"/>
      <point x="268" y="378" type="line"/>
      <point x="342" y="397"/>
      <point x="471" y="398"/>
      <point x="575" y="362"/>
      <point x="651" y="294"/>
      <point x="691" y="196"/>
      <point x="691" y="133" type="qcurve" smooth="yes"/>
      <point x="691" y="58"/>
      <point x="634" y="-61"/>
      <point x="532" y="-140"/>
      <point x="396" y="-169"/>
    </contour>
  </outline>
</glyph>
<glyph name="uni0495" format="2">
  <advance width="659"/>
  <unicode hex="0495"/>
  <outline>
    <contour>
      <point x="53" y="0" type="line"/>
      <point x="53" y="547" type="line"/>
      <point x="531" y="547" type="line"/>
      <point x="531" y="371" type="line"/>
      <point x="229" y="371" type="line"/>
      <point x="278" y="419" type="line"/>
      <point x="278" y="0" type="line"/>
    </contour>
    <contour>
      <point x="255" y="-193" type="qcurve"/>
      <point x="301" y="-17" type="line"/>
      <point x="345" y="-26"/>
      <point x="396" y="-9"/>
      <point x="418" y="30"/>
      <point x="418" y="55" type="qcurve" smooth="yes"/>
      <point x="418" y="85"/>
      <point x="394" y="119"/>
      <point x="354" y="134"/>
      <point x="306" y="133"/>
      <point x="256" y="120"/>
      <point x="234" y="111" type="qcurve"/>
      <point x="227" y="288" type="line"/>
      <point x="304" y="308"/>
      <point x="435" y="309"/>
      <point x="538" y="274"/>
      <point x="611" y="209"/>
      <point x="650" y="119"/>
      <point x="650" y="65" type="qcurve" smooth="yes"/>
      <point x="650" y="-2"/>
      <point x="593" y="-113"/>
      <point x="487" y="-186"/>
      <point x="342" y="-211"/>
    </contour>
  </outline>
</glyph>
<glyph name="uni04A1" format="2">
  <advance width="795"/>
  <unicode hex="04A1"/>
  <anchor x="449" y="547" name="t.uni0308"/>
  <anchor x="449" y="0" name="b.uni0324_3"/>
  <outline>
    <contour>
      <point x="12" y="375" type="line"/>
      <point x="12" y="547" type="line"/>
      <point x="380" y="547" type="line"/>
      <point x="380" y="375" type="line"/>
    </contour>
    <contour>
      <point x="532" y="0" type="line"/>
      <point x="382" y="251" type="line"/>
      <point x="564" y="357" type="line"/>
      <point x="798" y="0" type="line"/>
    </contour>
    <contour>
      <point x="154" y="0" type="line"/>
      <point x="154" y="547" type="line"/>
      <point x="380" y="547" type="line"/>
      <point x="380" y="0" type="line"/>
    </contour>
    <contour>
      <point x="314" y="182" type="line"/>
      <point x="314" y="355" type="line"/>
      <point x="518" y="355" type="line"/>
      <point x="518" y="182" type="line"/>
    </contour>
    <contour>
      <point x="587" y="249" type="line"/>
      <point x="375" y="269" type="line"/>
      <point x="549" y="547" type="line"/>
      <point x="787" y="547" type="line"/>
    </contour>
  </outline>
</glyph>
<glyph name="uni04A6" format="2">
  <advance width="1157"/>
  <unicode hex="04A6"/>
  <outline>
    <contour>
      <point x="763" y="-155" type="qcurve"/>
      <point x="799" y="19" type="line"/>
      <point x="823" y="14"/>
      <point x="863" y="22"/>
      <point x="891" y="48"/>
      <point x="906" y="90"/>
      <point x="906" y="117" type="qcurve" smooth="yes"/>
      <point x="906" y="146"/>
      <point x="891" y="187"/>
      <point x="861" y="213"/>
      <point x="816" y="222"/>
      <point x="758" y="214"/>
      <point x="722" y="201" type="qcurve"/>
      <point x="715" y="378" type="line"/>
      <point x="789" y="398"/>
      <point x="918" y="398"/>
      <point x="1023" y="362"/>
      <point x="1098" y="294"/>
      <point x="1138" y="195"/>
      <point x="1138" y="133" type="qcurve" smooth="yes"/>
      <point x="1138" y="58"/>
      <point x="1081" y="-61"/>
      <point x="979" y="-140"/>
      <point x="843" y="-169"/>
    </contour>
    <contour>
      <point x="62" y="0" type="line"/>
      <point x="62" y="700" type="line"/>
      <point x="739" y="700" type="line"/>
      <point x="739" y="0" type="line"/>
      <point x="507" y="0" type="line"/>
      <point x="507" y="567" type="line"/>
      <point x="558" y="517" type="line"/>
      <point x="243" y="517" type="line"/>
      <point x="294" y="567" type="line"/>
      <point x="294" y="0" type="line"/>
    </contour>
  </outline>
</glyph>
<glyph name="uni04A8" format="2">
  <advance width="980"/>
  <unicode hex="04A8"/>
  <outline>
    <contour>
      <point x="448" y="-17" type="qcurve" smooth="yes"/>
      <point x="367" y="-17"/>
      <point x="216" y="32"/>
      <point x="97" y="133"/>
      <point x="27" y="284"/>
      <point x="27" y="386" type="qcurve" smooth="yes"/>
      <point x="27" y="479"/>
      <point x="95" y="653"/>
      <point x="163" y="716" type="qcurve"/>
      <point x="356" y="630" type="line"/>
      <point x="311" y="576"/>
      <point x="263" y="441"/>
      <point x="263" y="377" type="qcurve" smooth="yes"/>
      <point x="263" y="297"/>
      <point x="327" y="190"/>
      <point x="429" y="137"/>
      <point x="486" y="137" type="qcurve" smooth="yes"/>
      <point x="536" y="137"/>
      <point x="627" y="171"/>
      <point x="698" y="241"/>
      <point x="740" y="346"/>
      <point x="740" y="417" type="qcurve" smooth="yes"/>
      <point x="740" y="460"/>
      <point x="720" y="520"/>
      <point x="681" y="551"/>
      <point x="652" y="551" type="qcurve" smooth="yes"/>
      <point x="621" y="551"/>
      <point x="579" y="517"/>
      <point x="557" y="453"/>
      <point x="557" y="408" type="qcurve" smooth="yes"/>
      <point x="557" y="327"/>
      <point x="618" y="210"/>
      <point x="724" y="143"/>
      <point x="859" y="130"/>
      <point x="933" y="153" type="qcurve"/>
      <point x="948" y="3" type="line"/>
      <point x="855" y="-22"/>
      <point x="681" y="-11"/>
      <point x="532" y="51"/>
      <point x="420" y="161"/>
      <point x="357" y="310"/>
      <point x="357" y="401" type="qcurve" smooth="yes"/>
      <point x="357" y="497"/>
      <point x="430" y="638"/>
      <point x="565" y="716"/>
      <point x="657" y="716" type="qcurve" smooth="yes"/>
      <point x="744" y="716"/>
      <point x="871" y="646"/>
      <point x="940" y="515"/>
      <point x="940" y="422" type="qcurve" smooth="yes"/>
      <point x="940" y="340"/>
      <point x="884" y="203"/>
      <point x="787" y="96"/>
      <point x="661" y="22"/>
      <point x="520" y="-17"/>
    </contour>
  </outline>
</glyph>
<glyph name="uni04A9" format="2">
  <advance width="864"/>
  <unicode hex="04A9"/>
  <outline>
    <contour>
      <point x="391" y="-15" type="qcurve" smooth="yes"/>
      <point x="281" y="-15"/>
      <point x="115" y="62"/>
      <point x="22" y="206"/>
      <point x="22" y="306" type="qcurve" smooth="yes"/>
      <point x="22" y="380"/>
      <point x="78" y="514"/>
      <point x="133" y="563" type="qcurve"/>
      <point x="316" y="482" type="line"/>
      <point x="283" y="439"/>
      <point x="247" y="346"/>
      <point x="247" y="299" type="qcurve" smooth="yes"/>
      <point x="247" y="248"/>
      <point x="289" y="174"/>
      <point x="371" y="134"/>
      <point x="430" y="134" type="qcurve" smooth="yes"/>
      <point x="494" y="134"/>
      <point x="586" y="180"/>
      <point x="636" y="265"/>
      <point x="636" y="325" type="qcurve" smooth="yes"/>
      <point x="636" y="353"/>
      <point x="623" y="387"/>
      <point x="596" y="403"/>
      <point x="575" y="403" type="qcurve" smooth="yes"/>
      <point x="553" y="403"/>
      <point x="523" y="385"/>
      <point x="509" y="349"/>
      <point x="509" y="320" type="qcurve" smooth="yes"/>
      <point x="509" y="259"/>
      <point x="560" y="177"/>
      <point x="648" y="134"/>
      <point x="761" y="129"/>
      <point x="823" y="144" type="qcurve"/>
      <point x="831" y="1" type="line"/>
      <point x="756" y="-19"/>
      <point x="608" y="-13"/>
      <point x="476" y="35"/>
      <point x="374" y="121"/>
      <point x="316" y="241"/>
      <point x="316" y="316" type="qcurve" smooth="yes"/>
      <point x="316" y="391"/>
      <point x="379" y="501"/>
      <point x="496" y="562"/>
      <point x="578" y="562" type="qcurve" smooth="yes"/>
      <point x="655" y="562"/>
      <point x="768" y="508"/>
      <point x="829" y="407"/>
      <point x="829" y="336" type="qcurve" smooth="yes"/>
      <point x="829" y="261"/>
      <point x="763" y="134"/>
      <point x="643" y="38"/>
      <point x="484" y="-15"/>
    </contour>
  </outline>
</glyph>
<glyph name="uni04AD" format="2">
  <advance width="583"/>
  <unicode hex="04AD"/>
  <anchor x="295" y="547" name="t.uni0308"/>
  <anchor x="295" y="238" name="t.uni0307_1"/>
  <anchor x="295" y="0" name="b.uni0324_3"/>
  <outline>
    <contour>
      <point x="179" y="0" type="line"/>
      <point x="179" y="419" type="line"/>
      <point x="228" y="371" type="line"/>
      <point x="12" y="371" type="line"/>
      <point x="12" y="547" type="line"/>
      <point x="571" y="547" type="line"/>
      <point x="571" y="371" type="line"/>
      <point x="355" y="371" type="line"/>
      <point x="404" y="419" type="line"/>
      <point x="404" y="0" type="line"/>
    </contour>
    <contour>
      <point x="269" y="-101" type="line"/>
      <point x="269" y="48" type="line"/>
      <point x="318" y="0" type="line"/>
      <point x="179" y="0" type="line"/>
      <point x="179" y="177" type="line"/>
      <point x="478" y="177" type="line"/>
      <point x="478" y="-101" type="line"/>
    </contour>
  </outline>
</glyph>
<glyph name="uni04B4" format="2">
  <advance width="1017"/>
  <unicode hex="04B4"/>
  <anchor x="336" y="700" name="t.uni0308"/>
  <anchor x="336" y="315" name="t.uni0307_1"/>
  <anchor x="336" y="0" name="b.uni0324_3"/>
  <outline>
    <contour>
      <point x="222" y="0" type="line"/>
      <point x="222" y="568" type="line"/>
      <point x="273" y="517" type="line"/>
      <point x="17" y="517" type="line"/>
      <point x="17" y="700" type="line"/>
      <point x="599" y="700" type="line"/>
      <point x="599" y="517" type="line"/>
      <point x="403" y="517" type="line"/>
      <point x="454" y="568" type="line"/>
      <point x="454" y="0" type="line"/>
    </contour>
    <contour>
      <point x="222" y="0" type="line"/>
      <point x="222" y="700" type="line"/>
      <point x="454" y="700" type="line"/>
      <point x="454" y="183" type="line"/>
      <point x="676" y="183" type="line"/>
      <point x="676" y="700" type="line"/>
      <point x="908" y="700" type="line"/>
      <point x="908" y="0" type="line"/>
    </contour>
    <contour>
      <point x="784" y="-137" type="line"/>
      <point x="784" y="51" type="line"/>
      <point x="833" y="0" type="line"/>
      <point x="676" y="0" type="line"/>
      <point x="676" y="183" type="line"/>
      <point x="1000" y="183" type="line"/>
      <point x="1000" y="-137" type="line"/>
    </contour>
  </outline>
</glyph>
<glyph name="uni04B8" format="2">
  <advance width="765"/>
  <unicode hex="04B8"/>
  <anchor x="373" y="700" name="t.uni0308"/>
  <outline>
    <contour>
      <point x="324" y="108" type="line"/>
      <point x="324" y="489" type="line"/>
      <point x="414" y="489" type="line"/>
      <point x="414" y="108" type="line"/>
    </contour>
    <contour>
      <point x="502" y="235" type="line"/>
      <point x="457" y="219"/>
      <point x="380" y="203"/>
      <point x="344" y="203" type="qcurve" smooth="yes"/>
      <point x="190" y="203"/>
      <point x="29" y="349"/>
      <point x="29" y="489" type="qcurve" smooth="yes"/>
      <point x="29" y="700" type="line"/>
      <point x="261" y="700" type="line"/>
      <point x="261" y="515" type="line" smooth="yes"/>
      <point x="261" y="451"/>
      <point x="317" y="390"/>
      <point x="374" y="390" type="qcurve" smooth="yes"/>
      <point x="413" y="390"/>
      <point x="475" y="405"/>
      <point x="496" y="419" type="qcurve"/>
    </contour>
    <contour>
      <point x="471" y="0" type="line"/>
      <point x="471" y="700" type="line"/>
      <point x="703" y="700" type="line"/>
      <point x="703" y="0" type="line"/>
    </contour>
  </outline>
</glyph>
<glyph name="uni04BC" format="2">
  <advance width="1049"/>
  <unicode hex="04BC"/>
  <anchor x="650" y="703" name="t.uni0308"/>
  <anchor x="660" y="0" name="b.uni0324_3"/>
  <outline>
    <contour>
      <point x="657" y="-16" type="qcurve" smooth="yes"/>
      <point x="582" y="-16"/>
      <point x="441" y="30"/>
      <point x="329" y="122"/>
      <point x="263" y="259"/>
      <point x="263" y="350" type="qcurve" smooth="yes"/>
      <point x="263" y="441"/>
      <point x="329" y="578"/>
      <point x="441" y="670"/>
      <point x="579" y="716"/>
      <point x="651" y="716" type="qcurve" smooth="yes"/>
      <point x="722" y="716"/>
      <point x="856" y="671"/>
      <point x="964" y="581"/>
      <point x="1028" y="446"/>
      <point x="1028" y="356" type="qcurve" smooth="yes"/>
      <point x="1028" y="334"/>
      <point x="1023" y="291"/>
      <point x="1018" y="269" type="qcurve"/>
      <point x="244" y="269" type="line" smooth="yes"/>
      <point x="174" y="269"/>
      <point x="72" y="316"/>
      <point x="15" y="402"/>
      <point x="10" y="521"/>
      <point x="38" y="592" type="qcurve"/>
      <point x="221" y="562" type="line"/>
      <point x="206" y="536"/>
      <point x="196" y="485"/>
      <point x="208" y="444"/>
      <point x="244" y="419"/>
      <point x="275" y="419" type="qcurve" smooth="yes"/>
      <point x="841" y="419" type="line"/>
      <point x="790" y="350" type="line"/>
      <point x="792" y="395"/>
      <point x="770" y="461"/>
      <point x="729" y="506"/>
      <point x="677" y="528"/>
      <point x="650" y="528" type="qcurve" smooth="yes"/>
      <point x="622" y="528"/>
      <point x="569" y="506"/>
      <point x="526" y="461"/>
      <point x="501" y="396"/>
      <point x="501" y="352" type="qcurve" smooth="yes"/>
      <point x="501" y="309"/>
      <point x="527" y="243"/>
      <point x="571" y="197"/>
      <point x="629" y="174"/>
      <point x="660" y="174" type="qcurve" smooth="yes"/>
      <point x="699" y="174"/>
      <point x="779" y="211"/>
      <point x="811" y="249" type="qcurve"/>
      <point x="981" y="113" type="line"/>
      <point x="918" y="49"/>
      <point x="746" y="-16"/>
    </contour>
  </outline>
</glyph>
<glyph name="uni04BD" format="2">
  <advance width="866"/>
  <unicode hex="04BD"/>
  <anchor x="545" y="547" name="t.uni0308"/>
  <anchor x="543" y="0" name="b.uni0324_3"/>
  <outline>
    <contour>
      <point x="339" y="221" type="line"/>
      <point x="210" y="221" type="line" smooth="yes"/>
      <point x="125" y="221"/>
      <point x="26" y="279"/>
      <point x="3" y="391"/>
      <point x="31" y="472" type="qcurve"/>
      <point x="198" y="444" type="line"/>
      <point x="183" y="414"/>
      <point x="182" y="362"/>
      <point x="208" y="330"/>
      <point x="235" y="330" type="qcurve" smooth="yes"/>
      <point x="339" y="330" type="line"/>
    </contour>
    <contour>
      <point x="566" y="-10" type="qcurve" smooth="yes"/>
      <point x="463" y="-10"/>
      <point x="311" y="64"/>
      <point x="227" y="193"/>
      <point x="227" y="274" type="qcurve" smooth="yes"/>
      <point x="227" y="357"/>
      <point x="310" y="485"/>
      <point x="454" y="557"/>
      <point x="544" y="557" type="qcurve" smooth="yes"/>
      <point x="627" y="557"/>
      <point x="768" y="493"/>
      <point x="853" y="367"/>
      <point x="853" y="274" type="qcurve" smooth="yes"/>
      <point x="853" y="262"/>
      <point x="851" y="233"/>
      <point x="849" y="221" type="qcurve"/>
      <point x="418" y="221" type="line"/>
      <point x="418" y="330" type="line"/>
      <point x="727" y="330" type="line"/>
      <point x="639" y="301" type="line"/>
      <point x="639" y="333"/>
      <point x="616" y="378"/>
      <point x="575" y="403"/>
      <point x="546" y="403" type="qcurve" smooth="yes"/>
      <point x="518" y="403"/>
      <point x="476" y="378"/>
      <point x="453" y="333"/>
      <point x="453" y="301" type="qcurve" smooth="yes"/>
      <point x="453" y="267" type="line" smooth="yes"/>
      <point x="453" y="232"/>
      <point x="481" y="182"/>
      <point x="535" y="157"/>
      <point x="573" y="157" type="qcurve" smooth="yes"/>
      <point x="611" y="157"/>
      <point x="662" y="177"/>
      <point x="690" y="197" type="qcurve"/>
      <point x="811" y="78" type="line"/>
      <point x="770" y="35"/>
      <point x="649" y="-10"/>
    </contour>
  </outline>
</glyph>
<glyph name="uni04C3" format="2">
  <advance width="779"/>
  <unicode hex="04C3"/>
  <outline>
    <contour>
      <point x="62" y="0" type="line"/>
      <point x="62" y="700" type="line"/>
      <point x="298" y="700" type="line"/>
      <point x="298" y="0" type="line"/>
    </contour>
    <contour>
      <point x="230" y="253" type="line"/>
      <point x="230" y="439" type="line"/>
      <point x="506" y="439" type="line"/>
      <point x="506" y="253" type="line"/>
    </contour>
    <contour>
      <point x="535" y="325" type="line"/>
      <point x="317" y="347" type="line"/>
      <point x="519" y="700" type="line"/>
      <point x="765" y="700" type="line"/>
    </contour>
    <contour>
      <point x="522" y="-209" type="qcurve" smooth="yes"/>
      <point x="444" y="-209"/>
      <point x="375" y="-179" type="qcurve"/>
      <point x="428" y="-19" type="line"/>
      <point x="453" y="-29"/>
      <point x="469" y="-29" type="qcurve" smooth="yes"/>
      <point x="486" y="-29"/>
      <point x="505" y="-5"/>
      <point x="505" y="18" type="qcurve" smooth="yes"/>
      <point x="505" y="44"/>
      <point x="473" y="115"/>
      <point x="421" y="195"/>
      <point x="359" y="274"/>
      <point x="328" y="307" type="qcurve"/>
      <point x="518" y="418" type="line"/>
      <point x="596" y="328"/>
      <point x="705" y="187"/>
      <point x="763" y="68"/>
      <point x="763" y="11" type="qcurve" smooth="yes"/>
      <point x="763" y="-92"/>
      <point x="635" y="-209"/>
    </contour>
  </outline>
</glyph>
<glyph name="uni04C8" format="2">
  <advance width="710"/>
  <unicode hex="04C8"/>
  <outline>
    <contour>
      <point x="419" y="-204" type="qcurve" smooth="yes"/>
      <point x="379" y="-204"/>
      <point x="306" y="-190"/>
      <point x="280" y="-177" type="qcurve"/>
      <point x="334" y="-21" type="line"/>
      <point x="358" y="-34"/>
      <point x="385" y="-34" type="qcurve" smooth="yes"/>
      <point x="405" y="-34"/>
      <point x="432" y="-4"/>
      <point x="432" y="30" type="qcurve" smooth="yes"/>
      <point x="432" y="178" type="line"/>
      <point x="278" y="178" type="line"/>
      <point x="278" y="0" type="line"/>
      <point x="53" y="0" type="line"/>
      <point x="53" y="547" type="line"/>
      <point x="278" y="547" type="line"/>
      <point x="278" y="355" type="line"/>
      <point x="432" y="355" type="line"/>
      <point x="432" y="547" type="line"/>
      <point x="657" y="547" type="line"/>
      <point x="657" y="28" type="line" smooth="yes"/>
      <point x="657" y="-78"/>
      <point x="532" y="-204"/>
    </contour>
  </outline>
</glyph>
<glyph name="uni04CB" format="2">
  <advance width="760"/>
  <unicode hex="04CB"/>
  <outline>
    <contour>
      <point x="341" y="252" type="qcurve" smooth="yes"/>
      <point x="187" y="252"/>
      <point x="26" y="388"/>
      <point x="26" y="518" type="qcurve" smooth="yes"/>
      <point x="26" y="700" type="line"/>
      <point x="258" y="700" type="line"/>
      <point x="258" y="544" type="line" smooth="yes"/>
      <point x="258" y="491"/>
      <point x="314" y="439"/>
      <point x="371" y="439" type="qcurve" smooth="yes"/>
      <point x="410" y="439"/>
      <point x="472" y="454"/>
      <point x="493" y="468" type="qcurve"/>
      <point x="499" y="284" type="line"/>
      <point x="454" y="268"/>
      <point x="377" y="252"/>
    </contour>
    <contour>
      <point x="336" y="-137" type="line"/>
      <point x="336" y="183" type="line"/>
      <point x="698" y="183" type="line"/>
      <point x="698" y="0" type="line"/>
      <point x="541" y="0" type="line"/>
      <point x="552" y="51" type="line"/>
      <point x="552" y="-137" type="line"/>
    </contour>
    <contour>
      <point x="466" y="0" type="line"/>
      <point x="466" y="700" type="line"/>
      <point x="698" y="700" type="line"/>
      <point x="698" y="0" type="line"/>
    </contour>
  </outline>
</glyph>
<glyph name="uni04D9" format="2">
  <advance width="657"/>
  <unicode hex="04D9"/>
  <anchor x="334" y="547" name="t.uni0308"/>
  <anchor x="334" y="0" name="b.uni0324_3"/>
  <anchor x="108" y="547" name="m.uni0328_4"/>
  <outline>
    <contour>
      <point x="309" y="557" type="qcurve" smooth="yes"/>
      <point x="410" y="557"/>
      <point x="558" y="483"/>
      <point x="640" y="355"/>
      <point x="640" y="273" type="qcurve" smooth="yes"/>
      <point x="640" y="190"/>
      <point x="559" y="62"/>
      <point x="419" y="-10"/>
      <point x="330" y="-10" type="qcurve" smooth="yes"/>
      <point x="249" y="-10"/>
      <point x="112" y="54"/>
      <point x="29" y="181"/>
      <point x="29" y="273" type="qcurve" smooth="yes"/>
      <point x="29" y="285"/>
      <point x="31" y="314"/>
      <point x="32" y="326" type="qcurve"/>
      <point x="453" y="326" type="line"/>
      <point x="453" y="217" type="line"/>
      <point x="152" y="217" type="line"/>
      <point x="237" y="246" type="line"/>
      <point x="237" y="215"/>
      <point x="260" y="169"/>
      <point x="301" y="144"/>
      <point x="328" y="144" type="qcurve" smooth="yes"/>
      <point x="356" y="144"/>
      <point x="397" y="169"/>
      <point x="419" y="215"/>
      <point x="419" y="246" type="qcurve" smooth="yes"/>
      <point x="419" y="280" type="line" smooth="yes"/>
      <point x="419" y="316"/>
      <point x="391" y="365"/>
      <point x="339" y="390"/>
      <point x="302" y="390" type="qcurve" smooth="yes"/>
      <point x="265" y="390"/>
      <point x="215" y="370"/>
      <point x="188" y="350" type="qcurve"/>
      <point x="70" y="469" type="line"/>
      <point x="110" y="513"/>
      <point x="227" y="557"/>
    </contour>
  </outline>
</glyph>
<glyph name="uni04E0" format="2">
  <advance width="654"/>
  <unicode hex="04E0"/>
  <outline>
    <contour>
      <point x="300" y="-16" type="qcurve" smooth="yes"/>
      <point x="227" y="-16"/>
      <point x="73" y="16"/>
      <point x="16" y="47" type="qcurve"/>
      <point x="92" y="221" type="line"/>
      <point x="139" y="195"/>
      <point x="246" y="170"/>
      <point x="292" y="170" type="qcurve" smooth="yes"/>
      <point x="337" y="170"/>
      <point x="394" y="197"/>
      <point x="394" y="224" type="qcurve" smooth="yes"/>
      <point x="394" y="247"/>
      <point x="350" y="272"/>
      <point x="301" y="272" type="qcurve" smooth="yes"/>
      <point x="207" y="272" type="line"/>
      <point x="207" y="417" type="line"/>
      <point x="398" y="601" type="line"/>
      <point x="419" y="522" type="line"/>
      <point x="49" y="522" type="line"/>
      <point x="49" y="700" type="line"/>
      <point x="592" y="700" type="line"/>
      <point x="592" y="555" type="line"/>
      <point x="401" y="371" type="line"/>
      <point x="288" y="435" type="line"/>
      <point x="350" y="435" type="line" smooth="yes"/>
      <point x="442" y="435"/>
      <point x="568" y="381"/>
      <point x="632" y="286"/>
      <point x="632" y="225" type="qcurve" smooth="yes"/>
      <point x="632" y="164"/>
      <point x="563" y="54"/>
      <point x="417" y="-16"/>
    </contour>
  </outline>
</glyph>
<glyph name="uni04E9" format="2">
  <advance width="675"/>
  <unicode hex="04E9"/>
  <anchor x="338" y="547" name="t.uni0308"/>
  <outline>
    <contour>
      <point x="337" y="557" type="qcurve" smooth="yes"/>
      <point x="431" y="557"/>
      <point x="576" y="485"/>
      <point x="658" y="357"/>
      <point x="658" y="274" type="qcurve" smooth="yes"/>
      <point x="658" y="191"/>
      <point x="576" y="63"/>
      <point x="431" y="-10"/>
      <point x="337" y="-10" type="qcurve" smooth="yes"/>
      <point x="244" y="-10"/>
      <point x="99" y="63"/>
      <point x="17" y="191"/>
      <point x="17" y="274" type="qcurve" smooth="yes"/>
      <point x="17" y="357"/>
      <point x="99" y="485"/>
      <point x="244" y="557"/>
    </contour>
    <contour>
      <point x="337" y="404" type="qcurve" smooth="yes"/>
      <point x="315" y="404"/>
      <point x="278" y="389"/>
      <point x="251" y="361"/>
      <point x="243" y="341" type="qcurve"/>
      <point x="432" y="341" type="line"/>
      <point x="424" y="361"/>
      <point x="396" y="389"/>
      <point x="360" y="404"/>
    </contour>
    <contour>
      <point x="337" y="143" type="qcurve" smooth="yes"/>
      <point x="359" y="143"/>
      <point x="395" y="158"/>
      <point x="423" y="186"/>
      <point x="431" y="205" type="qcurve"/>
      <point x="244" y="205" type="line"/>
      <point x="253" y="186"/>
      <point x="280" y="158"/>
      <point x="316" y="143"/>
    </contour>
  </outline>
</glyph>
<glyph name="uni04FB" format="2">
  <advance width="556"/>
  <unicode hex="04FB"/>
  <outline>
    <contour>
      <point x="98" y="0" type="line"/>
      <point x="98" y="547" type="line"/>
      <point x="541" y="547" type="line"/>
      <point x="541" y="371" type="line"/>
      <point x="324" y="371" type="line"/>
      <point x="324" y="0" type="line"/>
    </contour>
    <contour>
      <point x="160" y="-204" type="qcurve" smooth="yes"/>
      <point x="127" y="-204"/>
      <point x="57" y="-190"/>
      <point x="21" y="-177" type="qcurve"/>
      <point x="68" y="-39" type="line"/>
      <point x="82" y="-44"/>
      <point x="106" y="-50"/>
      <point x="116" y="-50" type="qcurve" smooth="yes"/>
      <point x="142" y="-50"/>
      <point x="173" y="-15"/>
      <point x="173" y="19" type="qcurve" smooth="yes"/>
      <point x="173" y="43" type="line"/>
      <point x="238" y="0" type="line"/>
      <point x="98" y="0" type="line"/>
      <point x="98" y="127" type="line"/>
      <point x="398" y="127" type="line"/>
      <point x="398" y="28" type="line" smooth="yes"/>
      <point x="398" y="-46"/>
      <point x="335" y="-150"/>
      <point x="228" y="-204"/>
    </contour>
    <contour>
      <point x="9" y="198" type="line"/>
      <point x="9" y="318" type="line"/>
      <point x="486" y="318" type="line"/>
      <point x="486" y="198" type="line"/>
    </contour>
  </outline>
</glyph>
<glyph name="uni04FD" format="2">
  <advance width="660"/>
  <unicode hex="04FD"/>
  <outline>
    <contour>
      <point x="-2" y="0" type="line"/>
      <point x="205" y="272" type="line"/>
      <point x="3" y="547" type="line"/>
      <point x="259" y="547" type="line"/>
      <point x="337" y="431" type="line"/>
      <point x="419" y="547" type="line"/>
      <point x="656" y="547" type="line"/>
      <point x="243" y="0" type="line"/>
    </contour>
    <contour>
      <point x="426" y="-206" type="qcurve" smooth="yes"/>
      <point x="356" y="-206"/>
      <point x="281" y="-177" type="qcurve"/>
      <point x="335" y="-21" type="line"/>
      <point x="349" y="-27"/>
      <point x="375" y="-33"/>
      <point x="385" y="-33" type="qcurve" smooth="yes"/>
      <point x="404" y="-33"/>
      <point x="426" y="-14"/>
      <point x="426" y="3" type="qcurve" smooth="yes"/>
      <point x="426" y="27"/>
      <point x="383" y="93"/>
      <point x="307" y="178"/>
      <point x="258" y="229" type="qcurve"/>
      <point x="431" y="344" type="line"/>
      <point x="479" y="290"/>
      <point x="560" y="197"/>
      <point x="619" y="113"/>
      <point x="652" y="30"/>
      <point x="652" y="-15" type="qcurve" smooth="yes"/>
      <point x="652" y="-77"/>
      <point x="591" y="-162"/>
      <point x="489" y="-206"/>
    </contour>
  </outline>
</glyph>
<glyph name="uni0510" format="2">
  <advance width="672"/>
  <unicode hex="0510"/>
  <outline>
    <contour>
      <point x="659" y="46" type="line"/>
      <point x="588" y="15"/>
      <point x="439" y="-16"/>
      <point x="296" y="-16"/>
      <point x="171" y="12"/>
      <point x="76" y="67"/>
      <point x="22" y="146"/>
      <point x="22" y="197" type="qcurve" smooth="yes"/>
      <point x="22" y="250"/>
      <point x="79" y="333"/>
      <point x="183" y="382"/>
      <point x="251" y="382" type="qcurve"/>
      <point x="256" y="335" type="line"/>
      <point x="197" y="335"/>
      <point x="104" y="379"/>
      <point x="50" y="458"/>
      <point x="50" y="508" type="qcurve" smooth="yes"/>
      <point x="50" y="566"/>
      <point x="124" y="653"/>
      <point x="249" y="705"/>
      <point x="404" y="721"/>
      <point x="567" y="698"/>
      <point x="641" y="664" type="qcurve"/>
      <point x="572" y="489" type="line"/>
      <point x="535" y="507"/>
      <point x="456" y="530"/>
      <point x="382" y="537"/>
      <point x="323" y="528"/>
      <point x="288" y="503"/>
      <point x="288" y="482" type="qcurve" smooth="yes"/>
      <point x="288" y="463"/>
      <point x="319" y="440"/>
      <point x="349" y="440" type="qcurve" smooth="yes"/>
      <point x="518" y="440" type="line"/>
      <point x="518" y="266" type="line"/>
      <point x="329" y="266" type="line" smooth="yes"/>
      <point x="301" y="266"/>
      <point x="260" y="249"/>
      <point x="260" y="226" type="qcurve" smooth="yes"/>
      <point x="260" y="203"/>
      <point x="300" y="174"/>
      <point x="367" y="162"/>
      <point x="453" y="166"/>
      <point x="546" y="187"/>
      <point x="590" y="205" type="qcurve"/>
    </contour>
  </outline>
</glyph>
<glyph name="uni0511" format="2">
  <advance width="583"/>
  <unicode hex="0511"/>
  <outline>
    <contour>
      <point x="318" y="-13" type="qcurve" smooth="yes"/>
      <point x="237" y="-13"/>
      <point x="101" y="27"/>
      <point x="19" y="107"/>
      <point x="19" y="166" type="qcurve" smooth="yes"/>
      <point x="19" y="227"/>
      <point x="123" y="299"/>
      <point x="211" y="299" type="qcurve"/>
      <point x="216" y="259" type="line"/>
      <point x="166" y="259"/>
      <point x="83" y="297"/>
      <point x="34" y="361"/>
      <point x="34" y="401" type="qcurve" smooth="yes"/>
      <point x="34" y="456"/>
      <point x="112" y="526"/>
      <point x="244" y="560"/>
      <point x="324" y="559" type="qcurve" smooth="yes"/>
      <point x="381" y="558"/>
      <point x="502" y="532"/>
      <point x="558" y="510" type="qcurve"/>
      <point x="507" y="367" type="line"/>
      <point x="461" y="383"/>
      <point x="373" y="401"/>
      <point x="332" y="401" type="qcurve" smooth="yes"/>
      <point x="305" y="401"/>
      <point x="274" y="393"/>
      <point x="261" y="379"/>
      <point x="261" y="369" type="qcurve" smooth="yes"/>
      <point x="261" y="359"/>
      <point x="271" y="345"/>
      <point x="292" y="339"/>
      <point x="309" y="339" type="qcurve" smooth="yes"/>
      <point x="413" y="339" type="line"/>
      <point x="413" y="213" type="line"/>
      <point x="288" y="213" type="line" smooth="yes"/>
      <point x="265" y="213"/>
      <point x="246" y="200"/>
      <point x="246" y="184" type="qcurve" smooth="yes"/>
      <point x="246" y="171"/>
      <point x="266" y="155"/>
      <point x="301" y="147"/>
      <point x="324" y="147" type="qcurve" smooth="yes"/>
      <point x="375" y="147"/>
      <point x="470" y="161"/>
      <point x="517" y="178" type="qcurve"/>
      <point x="574" y="29" type="line"/>
      <point x="513" y="7"/>
      <point x="381" y="-13"/>
    </contour>
  </outline>
</glyph>
<glyph name="uni0513" format="2">
  <advance width="697"/>
  <unicode hex="0513"/>
  <outline>
    <contour>
      <point x="402" y="-204" type="qcurve" smooth="yes"/>
      <point x="365" y="-204"/>
      <point x="292" y="-190"/>
      <point x="266" y="-177" type="qcurve"/>
      <point x="320" y="-21" type="line"/>
      <point x="344" y="-34"/>
      <point x="369" y="-34" type="qcurve" smooth="yes"/>
      <point x="392" y="-34"/>
      <point x="418" y="-4"/>
      <point x="418" y="30" type="qcurve" smooth="yes"/>
      <point x="418" y="418" type="line"/>
      <point x="467" y="371" type="line"/>
      <point x="270" y="371" type="line"/>
      <point x="316" y="421" type="line"/>
      <point x="311" y="300" type="line" smooth="yes"/>
      <point x="308" y="226"/>
      <point x="288" y="109"/>
      <point x="245" y="28"/>
      <point x="172" y="-15"/>
      <point x="116" y="-15" type="qcurve" smooth="yes"/>
      <point x="94" y="-15"/>
      <point x="41" y="-7"/>
      <point x="11" y="0" type="qcurve"/>
      <point x="20" y="183" type="line"/>
      <point x="26" y="182"/>
      <point x="38" y="181"/>
      <point x="43" y="181" type="qcurve" smooth="yes"/>
      <point x="65" y="181"/>
      <point x="91" y="198"/>
      <point x="106" y="231"/>
      <point x="112" y="278"/>
      <point x="113" y="309" type="qcurve" smooth="yes"/>
      <point x="121" y="547" type="line"/>
      <point x="644" y="547" type="line"/>
      <point x="644" y="30" type="line" smooth="yes"/>
      <point x="644" y="-76"/>
      <point x="518" y="-204"/>
    </contour>
  </outline>
</glyph>
<glyph name="uni0527" format="2">
  <advance width="750"/>
  <unicode hex="0527"/>
  <outline>
    <contour>
      <point x="431" y="0" type="line"/>
      <point x="431" y="273" type="line" smooth="yes"/>
      <point x="431" y="324"/>
      <point x="395" y="367"/>
      <point x="364" y="367" type="qcurve" smooth="yes"/>
      <point x="341" y="367"/>
      <point x="302" y="346"/>
      <point x="279" y="298"/>
      <point x="279" y="257" type="qcurve"/>
      <point x="196" y="335" type="line"/>
      <point x="206" y="410"/>
      <point x="273" y="508"/>
      <point x="374" y="557"/>
      <point x="433" y="557" type="qcurve" smooth="yes"/>
      <point x="496" y="557"/>
      <point x="598" y="506"/>
      <point x="657" y="398"/>
      <point x="657" y="312" type="qcurve" smooth="yes"/>
      <point x="657" y="0" type="line"/>
    </contour>
    <contour>
      <point x="53" y="0" type="line"/>
      <point x="53" y="742" type="line"/>
      <point x="279" y="742" type="line"/>
      <point x="279" y="0" type="line"/>
    </contour>
    <contour>
      <point x="529" y="-101" type="line"/>
      <point x="529" y="48" type="line"/>
      <point x="640" y="0" type="line"/>
      <point x="431" y="0" type="line"/>
      <point x="431" y="177" type="line"/>
      <point x="738" y="177" type="line"/>
      <point x="738" y="-101" type="line"/>
    </contour>
  </outline>
</glyph>
<glyph name="uni052E" format="2">
  <advance width="852"/>
  <unicode hex="052E"/>
  <outline>
    <contour>
      <point x="114" y="-13" type="qcurve" smooth="yes"/>
      <point x="92" y="-13"/>
      <point x="42" y="-7"/>
      <point x="14" y="0" type="qcurve"/>
      <point x="26" y="189" type="line"/>
      <point x="40" y="186"/>
      <point x="52" y="186" type="qcurve" smooth="yes"/>
      <point x="91" y="186"/>
      <point x="129" y="250"/>
      <point x="143" y="359"/>
      <point x="145" y="427" type="qcurve" smooth="yes"/>
      <point x="154" y="700" type="line"/>
      <point x="745" y="700" type="line"/>
      <point x="745" y="0" type="line"/>
      <point x="513" y="0" type="line"/>
      <point x="513" y="567" type="line"/>
      <point x="564" y="517" type="line"/>
      <point x="309" y="517" type="line"/>
      <point x="355" y="570" type="line"/>
      <point x="351" y="436" type="line" smooth="yes"/>
      <point x="348" y="335"/>
      <point x="327" y="170"/>
      <point x="277" y="51"/>
      <point x="186" y="-13"/>
    </contour>
    <contour>
      <point x="619" y="-137" type="line"/>
      <point x="619" y="51" type="line"/>
      <point x="670" y="0" type="line"/>
      <point x="513" y="0" type="line"/>
      <point x="513" y="183" type="line"/>
      <point x="835" y="183" type="line"/>
      <point x="835" y="-137" type="line"/>
    </contour>
  </outline>
</glyph>
<glyph name="uni1EE1" format="2">
  <advance width="672"/>
  <unicode hex="1EE1"/>
  <anchor x="339" y="547" name="t.uni0308"/>
  <anchor x="339" y="0" name="b.uni0324_3"/>
  <outline>
    <contour>
      <point x="384" y="597" type="qcurve" smooth="yes"/>
      <point x="362" y="597"/>
      <point x="327" y="615"/>
      <point x="299" y="638"/>
      <point x="276" y="656"/>
      <point x="265" y="656" type="qcurve" smooth="yes"/>
      <point x="250" y="656"/>
      <point x="231" y="630"/>
      <point x="229" y="607" type="qcurve"/>
      <point x="144" y="607" type="line"/>
      <point x="145" y="686"/>
      <point x="203" y="780"/>
      <point x="254" y="780" type="qcurve" smooth="yes"/>
      <point x="276" y="780"/>
      <point x="311" y="762"/>
      <point x="339" y="739"/>
      <point x="362" y="721"/>
      <point x="373" y="721" type="qcurve" smooth="yes"/>
      <point x="388" y="721"/>
      <point x="407" y="746"/>
      <point x="409" y="767" type="qcurve"/>
      <point x="494" y="767" type="line"/>
      <point x="493" y="691"/>
      <point x="435" y="597"/>
    </contour>
    <contour>
      <point x="339" y="-10" type="qcurve" smooth="yes"/>
      <point x="246" y="-10"/>
      <point x="103" y="63"/>
      <point x="21" y="191"/>
      <point x="21" y="274" type="qcurve" smooth="yes"/>
      <point x="21" y="357"/>
      <point x="103" y="485"/>
      <point x="248" y="557"/>
      <point x="342" y="557" type="qcurve" smooth="yes"/>
      <point x="367" y="557"/>
      <point x="410" y="552"/>
      <point x="445" y="547"/>
      <point x="459" y="547" type="qcurve" smooth="yes"/>
      <point x="484" y="547"/>
      <point x="509" y="580"/>
      <point x="509" y="608" type="qcurve" smooth="yes"/>
      <point x="509" y="625"/>
      <point x="496" y="655"/>
      <point x="487" y="665" type="qcurve"/>
      <point x="615" y="710" type="line"/>
      <point x="632" y="688"/>
      <point x="654" y="633"/>
      <point x="654" y="599" type="qcurve" smooth="yes"/>
      <point x="654" y="545"/>
      <point x="599" y="463"/>
      <point x="503" y="418"/>
      <point x="442" y="418" type="qcurve" smooth="yes"/>
      <point x="411" y="418"/>
      <point x="353" y="425"/>
      <point x="329" y="430" type="qcurve"/>
      <point x="480" y="530" type="line"/>
      <point x="563" y="497"/>
      <point x="657" y="363"/>
      <point x="657" y="274" type="qcurve" smooth="yes"/>
      <point x="657" y="191"/>
      <point x="575" y="63"/>
      <point x="432" y="-10"/>
    </contour>
    <contour>
      <point x="339" y="166" type="qcurve" smooth="yes"/>
      <point x="364" y="166"/>
      <point x="404" y="190"/>
      <point x="428" y="239"/>
      <point x="428" y="274" type="qcurve" smooth="yes"/>
      <point x="428" y="310"/>
      <point x="404" y="357"/>
      <point x="364" y="381"/>
      <point x="339" y="381" type="qcurve" smooth="yes"/>
      <point x="314" y="381"/>
      <point x="274" y="357"/>
      <point x="250" y="310"/>
      <point x="250" y="274" type="qcurve" smooth="yes"/>
      <point x="250" y="239"/>
      <point x="274" y="190"/>
      <point x="314" y="166"/>
    </contour>
  </outline>
</glyph>
<glyph name="quoteleft" format="2">
  <advance width="304"/>
  <unicode hex="2018"/>
  <outline>
    <contour>
      <point x="269" y="742" type="line"/>
      <point x="185" y="461" type="line"/>
      <point x="152" y="587" type="line"/>
      <point x="211" y="587"/>
      <point x="284" y="521"/>
      <point x="284" y="462" type="qcurve" smooth="yes"/>
      <point x="284" y="404"/>
      <point x="209" y="334"/>
      <point x="152" y="334" type="qcurve" smooth="yes"/>
      <point x="95" y="334"/>
      <point x="20" y="404"/>
      <point x="20" y="462" type="qcurve" smooth="yes"/>
      <point x="20" y="478"/>
      <point x="25" y="510"/>
      <point x="42" y="556"/>
      <point x="59" y="593" type="qcurve" smooth="yes"/>
      <point x="129" y="742" type="line"/>
    </contour>
  </outline>
</glyph>
<glyph name="quoteright" format="2">
  <advance width="304"/>
  <unicode hex="2019"/>
  <outline>
    <contour>
      <point x="35" y="344" type="line"/>
      <point x="119" y="625" type="line"/>
      <point x="152" y="499" type="line"/>
      <point x="94" y="499"/>
      <point x="20" y="566"/>
      <point x="20" y="624" type="qcurve" smooth="yes"/>
      <point x="20" y="683"/>
      <point x="95" y="752"/>
      <point x="152" y="752" type="qcurve" smooth="yes"/>
      <point x="209" y="752"/>
      <point x="284" y="683"/>
      <point x="284" y="624" type="qcurve" smooth="yes"/>
      <point x="284" y="608"/>
      <point x="279" y="576"/>
      <point x="263" y="531"/>
      <point x="245" y="493" type="qcurve" smooth="yes"/>
      <point x="175" y="344" type="line"/>
    </contour>
  </outline>
</glyph>
<glyph name="dong" format="2">
  <advance width="705"/>
  <unicode hex="20AB"/>
  <outline>
    <contour>
      <point x="290" y="-10" type="qcurve" smooth="yes"/>
      <point x="219" y="-10"/>
      <point x="98" y="59"/>
      <point x="26" y="186"/>
      <point x="26" y="274" type="qcurve" smooth="yes"/>
      <point x="26" y="362"/>
      <point x="98" y="489"/>
      <point x="219" y="557"/>
      <point x="290" y="557" type="qcurve" smooth="yes"/>
      <point x="362" y="557"/>
      <point x="454" y="496"/>
      <point x="498" y="371"/>
      <point x="498" y="274" type="qcurve" smooth="yes"/>
      <point x="498" y="176"/>
      <point x="457" y="50"/>
      <point x="366" y="-10"/>
    </contour>
    <contour>
      <point x="48" y="-148" type="line"/>
      <point x="48" y="-38" type="line"/>
      <point x="655" y="-38" type="line"/>
      <point x="655" y="-148" type="line"/>
    </contour>
    <contour>
      <point x="344" y="166" type="qcurve" smooth="yes"/>
      <point x="369" y="166"/>
      <point x="409" y="190"/>
      <point x="433" y="239"/>
      <point x="433" y="274" type="qcurve" smooth="yes"/>
      <point x="433" y="310"/>
      <point x="409" y="357"/>
      <point x="369" y="381"/>
      <point x="344" y="381" type="qcurve" smooth="yes"/>
      <point x="319" y="381"/>
      <point x="279" y="357"/>
      <point x="255" y="310"/>
      <point x="255" y="274" type="qcurve" smooth="yes"/>
      <point x="255" y="239"/>
      <point x="279" y="190"/>
      <point x="319" y="166"/>
    </contour>
    <contour>
      <point x="440" y="0" type="line"/>
      <point x="440" y="74" type="line"/>
      <point x="439" y="274" type="line"/>
      <point x="429" y="474" type="line"/>
      <point x="429" y="742" type="line"/>
      <point x="655" y="742" type="line"/>
      <point x="655" y="0" type="line"/>
    </contour>
    <contour>
      <point x="278" y="585" type="line"/>
      <point x="278" y="695" type="line"/>
      <point x="706" y="695" type="line"/>
      <point x="706" y="585" type="line"/>
    </contour>
  </outline>
</glyph>
<glyph name="uni20B2.1" format="2">
  <advance width="769"/>
  <unicode hex="20B2"/>
  <outline>
    <contour>
      <point x="420" y="-16" type="qcurve" smooth="yes"/>
      <point x="335" y="-16"/>
      <point x="192" y="37"/>
      <point x="87" y="135"/>
      <point x="29" y="269"/>
      <point x="29" y="350" type="qcurve" smooth="yes"/>
      <point x="29" y="431"/>
      <point x="87" y="565"/>
      <point x="193" y="663"/>
      <point x="338" y="716"/>
      <point x="425" y="716" type="qcurve" smooth="yes"/>
      <point x="529" y="716"/>
      <point x="692" y="646"/>
      <point x="745" y="581" type="qcurve"/>
      <point x="594" y="448" type="line"/>
      <point x="561" y="486"/>
      <point x="484" y="525"/>
      <point x="437" y="525" type="qcurve" smooth="yes"/>
      <point x="398" y="525"/>
      <point x="335" y="501"/>
      <point x="291" y="455"/>
      <point x="267" y="391"/>
      <point x="267" y="350" type="qcurve" smooth="yes"/>
      <point x="267" y="311"/>
      <point x="291" y="246"/>
      <point x="335" y="200"/>
      <point x="396" y="175"/>
      <point x="434" y="175" type="qcurve" smooth="yes"/>
      <point x="474" y="175"/>
      <point x="550" y="202"/>
      <point x="593" y="235" type="qcurve"/>
      <point x="725" y="73" type="line"/>
      <point x="661" y="30"/>
      <point x="497" y="-16"/>
    </contour>
    <contour>
      <point x="352" y="-120" type="line"/>
      <point x="352" y="10" type="line"/>
      <point x="493" y="10" type="line"/>
      <point x="493" y="-120" type="line"/>
    </contour>
    <contour>
      <point x="725" y="73" type="line"/>
      <point x="520" y="103" type="line"/>
      <point x="520" y="369" type="line"/>
      <point x="725" y="369" type="line"/>
    </contour>
    <contour>
      <point x="352" y="690" type="line"/>
      <point x="352" y="820" type="line"/>
      <point x="493" y="820" type="line"/>
      <point x="493" y="690" type="line"/>
    </contour>
  </outline>
</glyph>
<glyph name="uni20B8" format="2">
  <advance width="738"/>
  <unicode hex="20B8"/>
  <outline>
    <contour>
      <point x="251" y="0" type="line"/>
      <point x="251" y="436" type="line"/>
      <point x="46" y="436" type="line"/>
      <point x="46" y="549" type="line"/>
      <point x="692" y="549" type="line"/>
      <point x="692" y="436" type="line"/>
      <point x="487" y="436" type="line"/>
      <point x="487" y="0" type="line"/>
    </contour>
    <contour>
      <point x="46" y="587" type="line"/>
      <point x="46" y="700" type="line"/>
      <point x="692" y="700" type="line"/>
      <point x="692" y="587" type="line"/>
    </contour>
  </outline>
</glyph>
<glyph name="uni20BC" format="2">
  <advance width="904"/>
  <unicode hex="20BC"/>
  <outline>
    <contour>
      <point x="57" y="0" type="line"/>
      <point x="57" y="337" type="line" smooth="yes"/>
      <point x="57" y="452"/>
      <point x="156" y="622"/>
      <point x="334" y="716"/>
      <point x="452" y="716" type="qcurve" smooth="yes"/>
      <point x="571" y="716"/>
      <point x="748" y="622"/>
      <point x="847" y="451"/>
      <point x="847" y="337" type="qcurve" smooth="yes"/>
      <point x="847" y="0" type="line"/>
      <point x="629" y="0" type="line"/>
      <point x="629" y="336" type="line" smooth="yes"/>
      <point x="629" y="390"/>
      <point x="593" y="468"/>
      <point x="516" y="511"/>
      <point x="455" y="511" type="qcurve" smooth="yes"/>
      <point x="394" y="511"/>
      <point x="314" y="468"/>
      <point x="275" y="390"/>
      <point x="275" y="336" type="qcurve" smooth="yes"/>
      <point x="275" y="0" type="line"/>
    </contour>
    <contour>
      <point x="382" y="120" type="line"/>
      <point x="382" y="820" type="line"/>
      <point x="523" y="820" type="line"/>
      <point x="523" y="120" type="line"/>
    </contour>
  </outline>
</glyph>
<glyph name="uni20BD" format="2">
  <advance width="806"/>
  <unicode hex="20BD"/>
  <outline>
    <contour>
      <point x="120" y="0" type="line"/>
      <point x="120" y="700" type="line"/>
      <point x="457" y="700" type="line" smooth="yes"/>
      <point x="603" y="700"/>
      <point x="776" y="584"/>
      <point x="776" y="462" type="qcurve" smooth="yes"/>
      <point x="776" y="341"/>
      <point x="603" y="224"/>
      <point x="457" y="224" type="qcurve" smooth="yes"/>
      <point x="251" y="224" type="line"/>
      <point x="356" y="325" type="line"/>
      <point x="356" y="0" type="line"/>
    </contour>
    <contour>
      <point x="356" y="299" type="line"/>
      <point x="251" y="400" type="line"/>
      <point x="454" y="400" type="line" smooth="yes"/>
      <point x="494" y="400"/>
      <point x="538" y="430"/>
      <point x="538" y="459" type="qcurve" smooth="yes"/>
      <point x="538" y="488"/>
      <point x="494" y="518"/>
      <point x="454" y="518" type="qcurve" smooth="yes"/>
      <point x="251" y="518" type="line"/>
      <point x="356" y="625" type="line"/>
    </contour>
    <contour>
      <point x="30" y="60" type="line"/>
      <point x="30" y="172" type="line"/>
      <point x="566" y="172" type="line"/>
      <point x="566" y="60" type="line"/>
    </contour>
  </outline>
</glyph>
<glyph name="uni2113" format="2">
  <advance width="478"/>
  <unicode hex="2113"/>
  <outline>
    <contour>
      <point x="220" y="-7" type="qcurve" smooth="yes"/>
      <point x="174" y="-7"/>
      <point x="109" y="26"/>
      <point x="72" y="88"/>
      <point x="65" y="131" type="qcurve"/>
      <point x="22" y="107" type="line"/>
      <point x="-7" y="193" type="line"/>
      <point x="78" y="250" type="line"/>
      <point x="114" y="467" type="line"/>
      <point x="137" y="595"/>
      <point x="251" y="711"/>
      <point x="324" y="711" type="qcurve" smooth="yes"/>
      <point x="387" y="711"/>
      <point x="454" y="634"/>
      <point x="454" y="567" type="qcurve" smooth="yes"/>
      <point x="454" y="505"/>
      <point x="404" y="399"/>
      <point x="328" y="312"/>
      <point x="249" y="244"/>
      <point x="220" y="220" type="qcurve"/>
      <point x="213" y="171"/>
      <point x="242" y="133"/>
      <point x="268" y="133" type="qcurve" smooth="yes"/>
      <point x="303" y="133"/>
      <point x="358" y="182"/>
      <point x="378" y="207" type="qcurve"/>
      <point x="439" y="131" type="line"/>
      <point x="393" y="55"/>
      <point x="279" y="-7"/>
    </contour>
    <contour>
      <point x="246" y="371" type="line"/>
      <point x="262" y="391"/>
      <point x="305" y="452"/>
      <point x="338" y="526"/>
      <point x="338" y="564" type="qcurve" smooth="yes"/>
      <point x="338" y="580"/>
      <point x="329" y="602"/>
      <point x="318" y="602" type="qcurve" smooth="yes"/>
      <point x="303" y="602"/>
      <point x="276" y="552"/>
      <point x="265" y="487" type="qcurve" smooth="yes"/>
    </contour>
  </outline>
</glyph>
<glyph name="partialdiff" format="2">
  <advance width="700"/>
  <unicode hex="2202"/>
  <outline>
    <contour>
      <point x="323" y="-16" type="qcurve" smooth="yes"/>
      <point x="242" y="-16"/>
      <point x="111" y="45"/>
      <point x="33" y="155"/>
      <point x="33" y="229" type="qcurve" smooth="yes"/>
      <point x="33" y="297"/>
      <point x="100" y="397"/>
      <point x="213" y="453"/>
      <point x="280" y="453" type="qcurve" smooth="yes"/>
      <point x="331" y="453"/>
      <point x="407" y="428"/>
      <point x="463" y="380"/>
      <point x="482" y="345" type="qcurve"/>
      <point x="428" y="308" type="line"/>
      <point x="428" y="323"/>
      <point x="428" y="357"/>
      <point x="428" y="387" type="qcurve" smooth="yes"/>
      <point x="428" y="452"/>
      <point x="386" y="536"/>
      <point x="303" y="576"/>
      <point x="240" y="576" type="qcurve" smooth="yes"/>
      <point x="206" y="576"/>
      <point x="139" y="567"/>
      <point x="109" y="555" type="qcurve"/>
      <point x="82" y="738" type="line"/>
      <point x="123" y="749"/>
      <point x="207" y="758"/>
      <point x="244" y="758" type="qcurve" smooth="yes"/>
      <point x="376" y="758"/>
      <point x="566" y="663"/>
      <point x="667" y="477"/>
      <point x="667" y="338" type="qcurve" smooth="yes"/>
      <point x="667" y="226"/>
      <point x="581" y="68"/>
      <point x="427" y="-16"/>
    </contour>
    <contour>
      <point x="340" y="147" type="qcurve" smooth="yes"/>
      <point x="362" y="147"/>
      <point x="396" y="164"/>
      <point x="417" y="196"/>
      <point x="417" y="218" type="qcurve" smooth="yes"/>
      <point x="417" y="240"/>
      <point x="396" y="272"/>
      <point x="362" y="290"/>
      <point x="340" y="290" type="qcurve" smooth="yes"/>
      <point x="308" y="290"/>
      <point x="263" y="251"/>
      <point x="263" y="218" type="qcurve" smooth="yes"/>
      <point x="263" y="196"/>
      <point x="284" y="164"/>
      <point x="319" y="147"/>
    </contour>
  </outline>
</glyph>
<glyph name="emptyset" format="2">
  <advance width="620"/>
  <unicode hex="2205"/>
  <outline>
    <contour>
      <point x="70" y="73" type="line"/>
      <point x="15" y="132" type="line"/>
      <point x="550" y="628" type="line"/>
      <point x="605" y="569" type="line"/>
    </contour>
    <contour>
      <point x="313" y="101" type="qcurve" smooth="yes"/>
      <point x="241" y="101"/>
      <point x="124" y="169"/>
      <point x="55" y="283"/>
      <point x="55" y="352" type="qcurve" smooth="yes"/>
      <point x="55" y="421"/>
      <point x="124" y="535"/>
      <point x="241" y="602"/>
      <point x="313" y="602" type="qcurve" smooth="yes"/>
      <point x="385" y="602"/>
      <point x="502" y="535"/>
      <point x="572" y="421"/>
      <point x="572" y="352" type="qcurve" smooth="yes"/>
      <point x="572" y="283"/>
      <point x="502" y="169"/>
      <point x="385" y="101"/>
    </contour>
    <contour>
      <point x="313" y="240" type="qcurve" smooth="yes"/>
      <point x="344" y="240"/>
      <point x="395" y="270"/>
      <point x="425" y="321"/>
      <point x="425" y="352" type="qcurve" smooth="yes"/>
      <point x="425" y="383"/>
      <point x="395" y="433"/>
      <point x="344" y="463"/>
      <point x="313" y="463" type="qcurve" smooth="yes"/>
      <point x="282" y="463"/>
      <point x="232" y="433"/>
      <point x="202" y="383"/>
      <point x="202" y="352" type="qcurve" smooth="yes"/>
      <point x="202" y="321"/>
      <point x="232" y="270"/>
      <point x="282" y="240"/>
    </contour>
  </outline>
</glyph>
<glyph name="product" format="2">
  <advance width="804"/>
  <unicode hex="220F"/>
  <outline>
    <contour>
      <point x="57" y="-194" type="line"/>
      <point x="57" y="700" type="line"/>
      <point x="747" y="700" type="line"/>
      <point x="747" y="-194" type="line"/>
      <point x="511" y="-194" type="line"/>
      <point x="511" y="506" type="line"/>
      <point x="293" y="506" type="line"/>
      <point x="293" y="-194" type="line"/>
    </contour>
  </outline>
</glyph>
<glyph name="infinity" format="2">
  <advance width="939"/>
  <unicode hex="221E"/>
  <outline>
    <contour>
      <point x="689" y="122" type="qcurve" smooth="yes"/>
      <point x="631" y="122"/>
      <point x="544" y="155"/>
      <point x="480" y="209"/>
      <point x="431" y="274"/>
      <point x="390" y="339"/>
      <point x="349" y="393"/>
      <point x="301" y="426"/>
      <point x="270" y="426" type="qcurve" smooth="yes"/>
      <point x="250" y="426"/>
      <point x="218" y="406"/>
      <point x="199" y="372"/>
      <point x="199" y="350" type="qcurve" smooth="yes"/>
      <point x="199" y="329"/>
      <point x="218" y="294"/>
      <point x="250" y="274"/>
      <point x="270" y="274" type="qcurve" smooth="yes"/>
      <point x="301" y="274"/>
      <point x="349" y="307"/>
      <point x="390" y="361"/>
      <point x="431" y="426"/>
      <point x="480" y="491"/>
      <point x="544" y="545"/>
      <point x="631" y="578"/>
      <point x="689" y="578" type="qcurve" smooth="yes"/>
      <point x="754" y="578"/>
      <point x="858" y="519"/>
      <point x="918" y="416"/>
      <point x="918" y="350" type="qcurve" smooth="yes"/>
      <point x="918" y="285"/>
      <point x="858" y="181"/>
      <point x="754" y="122"/>
    </contour>
    <contour>
      <point x="254" y="122" type="qcurve" smooth="yes"/>
      <point x="188" y="122"/>
      <point x="82" y="181"/>
      <point x="21" y="285"/>
      <point x="21" y="350" type="qcurve" smooth="yes"/>
      <point x="21" y="416"/>
      <point x="82" y="519"/>
      <point x="188" y="578"/>
      <point x="254" y="578" type="qcurve" smooth="yes"/>
      <point x="312" y="578"/>
      <point x="398" y="545"/>
      <point x="462" y="491"/>
      <point x="510" y="426"/>
      <point x="550" y="361"/>
      <point x="590" y="307"/>
      <point x="638" y="274"/>
      <point x="669" y="274" type="qcurve" smooth="yes"/>
      <point x="690" y="274"/>
      <point x="722" y="294"/>
      <point x="740" y="329"/>
      <point x="740" y="350" type="qcurve" smooth="yes"/>
      <point x="740" y="372"/>
      <point x="722" y="406"/>
      <point x="690" y="426"/>
      <point x="669" y="426" type="qcurve" smooth="yes"/>
      <point x="638" y="426"/>
      <point x="590" y="393"/>
      <point x="550" y="339"/>
      <point x="510" y="274"/>
      <point x="462" y="209"/>
      <point x="398" y="155"/>
      <point x="312" y="122"/>
    </contour>
  </outline>
</glyph>
<glyph name="integral" format="2">
  <advance width="476"/>
  <unicode hex="222B"/>
  <outline>
    <contour>
      <point x="112" y="-204" type="qcurve" smooth="yes"/>
      <point x="72" y="-204"/>
      <point x="-1" y="-190"/>
      <point x="-27" y="-177" type="qcurve"/>
      <point x="27" y="-20" type="line"/>
      <point x="51" y="-33"/>
      <point x="78" y="-33" type="qcurve" smooth="yes"/>
      <point x="98" y="-33"/>
      <point x="125" y="-3"/>
      <point x="125" y="30" type="qcurve" smooth="yes"/>
      <point x="125" y="526" type="line" smooth="yes"/>
      <point x="125" y="632"/>
      <point x="251" y="758"/>
      <point x="364" y="758" type="qcurve" smooth="yes"/>
      <point x="404" y="758"/>
      <point x="477" y="745"/>
      <point x="503" y="731" type="qcurve"/>
      <point x="449" y="574" type="line"/>
      <point x="438" y="580"/>
      <point x="412" y="587"/>
      <point x="398" y="587" type="qcurve" smooth="yes"/>
      <point x="378" y="587"/>
      <point x="351" y="557"/>
      <point x="351" y="524" type="qcurve" smooth="yes"/>
      <point x="351" y="28" type="line" smooth="yes"/>
      <point x="351" y="-78"/>
      <point x="225" y="-204"/>
    </contour>
  </outline>
</glyph>
<glyph name="approxequal" format="2">
  <advance width="620"/>
  <unicode hex="2248"/>
  <outline>
    <contour>
      <point x="409" y="363" type="qcurve" smooth="yes"/>
      <point x="375" y="363"/>
      <point x="323" y="386"/>
      <point x="281" y="415"/>
      <point x="246" y="438"/>
      <point x="229" y="438" type="qcurve" smooth="yes"/>
      <point x="207" y="438"/>
      <point x="180" y="405"/>
      <point x="178" y="375" type="qcurve"/>
      <point x="40" y="375" type="line"/>
      <point x="42" y="479"/>
      <point x="137" y="596"/>
      <point x="211" y="596" type="qcurve" smooth="yes"/>
      <point x="245" y="596"/>
      <point x="298" y="573"/>
      <point x="339" y="544"/>
      <point x="374" y="521"/>
      <point x="391" y="521" type="qcurve" smooth="yes"/>
      <point x="413" y="521"/>
      <point x="441" y="554"/>
      <point x="442" y="584" type="qcurve"/>
      <point x="580" y="584" type="line"/>
      <point x="579" y="480"/>
      <point x="483" y="363"/>
    </contour>
    <contour>
      <point x="409" y="104" type="qcurve" smooth="yes"/>
      <point x="375" y="104"/>
      <point x="323" y="127"/>
      <point x="281" y="156"/>
      <point x="246" y="179"/>
      <point x="229" y="179" type="qcurve" smooth="yes"/>
      <point x="207" y="179"/>
      <point x="180" y="146"/>
      <point x="178" y="116" type="qcurve"/>
      <point x="40" y="116" type="line"/>
      <point x="42" y="220"/>
      <point x="137" y="337"/>
      <point x="211" y="337" type="qcurve" smooth="yes"/>
      <point x="245" y="337"/>
      <point x="298" y="314"/>
      <point x="339" y="285"/>
      <point x="374" y="262"/>
      <point x="391" y="262" type="qcurve" smooth="yes"/>
      <point x="413" y="262"/>
      <point x="441" y="295"/>
      <point x="442" y="325" type="qcurve"/>
      <point x="580" y="325" type="line"/>
      <point x="579" y="221"/>
      <point x="483" y="104"/>
    </contour>
  </outline>
</glyph>
<glyph name="notequal" format="2">
  <advance width="620"/>
  <unicode hex="2260"/>
  <outline>
    <contour>
      <point x="60" y="35" type="line"/>
      <point x="380" y="665" type="line"/>
      <point x="560" y="665" type="line"/>
      <point x="240" y="35" type="line"/>
    </contour>
    <contour>
      <point x="55" y="135" type="line"/>
      <point x="55" y="305" type="line"/>
      <point x="565" y="305" type="line"/>
      <point x="565" y="135" type="line"/>
    </contour>
    <contour>
      <point x="55" y="395" type="line"/>
      <point x="55" y="565" type="line"/>
      <point x="565" y="565" type="line"/>
      <point x="565" y="395" type="line"/>
    </contour>
  </outline>
</glyph>
<glyph name="uni27E9" format="2">
  <advance width="409"/>
  <unicode hex="27E9"/>
  <outline>
    <contour>
      <point x="226" y="742" type="line"/>
      <point x="398" y="274" type="line"/>
      <point x="226" y="-194" type="line"/>
      <point x="17" y="-194" type="line"/>
      <point x="178" y="274" type="line"/>
      <point x="17" y="742" type="line"/>
    </contour>
  </outline>
</glyph>
<glyph name="A.ss01" format="2">
  <advance width="792"/>
  <anchor x="396" y="700" name="t.uni0308"/>
  <anchor x="396" y="0" name="b.uni0324_3"/>
  <anchor x="741" y="0" name="m.uni0328_4"/>
  <outline>
    <contour>
      <point x="51" y="0" type="line"/>
      <point x="51" y="373" type="line" smooth="yes"/>
      <point x="51" y="483"/>
      <point x="139" y="636"/>
      <point x="294" y="716"/>
      <point x="396" y="716" type="qcurve" smooth="yes"/>
      <point x="498" y="716"/>
      <point x="654" y="636"/>
      <point x="741" y="483"/>
      <point x="741" y="373" type="qcurve" smooth="yes"/>
      <point x="741" y="0" type="line"/>
      <point x="505" y="0" type="line"/>
      <point x="505" y="393" type="line" smooth="yes"/>
      <point x="505" y="461"/>
      <point x="442" y="525"/>
      <point x="394" y="525" type="qcurve" smooth="yes"/>
      <point x="346" y="525"/>
      <point x="283" y="461"/>
      <point x="283" y="393" type="qcurve" smooth="yes"/>
      <point x="283" y="0" type="line"/>
    </contour>
    <contour>
      <point x="199" y="141" type="line"/>
      <point x="199" y="319" type="line"/>
      <point x="589" y="319" type="line"/>
      <point x="589" y="141" type="line"/>
    </contour>
  </outline>
</glyph>
<glyph name="AE.ss01" format="2">
  <advance width="1099"/>
  <anchor x="547" y="700" name="t.uni0308"/>
  <anchor x="547" y="0" name="b.uni0324_3"/>
  <outline>
    <contour>
      <point x="483" y="0" type="line"/>
      <point x="483" y="700" type="line"/>
      <point x="1052" y="700" type="line"/>
      <point x="1052" y="522" type="line"/>
      <point x="715" y="522" type="line"/>
      <point x="715" y="440" type="line"/>
      <point x="1011" y="440" type="line"/>
      <point x="1011" y="270" type="line"/>
      <point x="715" y="270" type="line"/>
      <point x="715" y="178" type="line"/>
      <point x="1065" y="178" type="line"/>
      <point x="1065" y="0" type="line"/>
    </contour>
    <contour>
      <point x="194" y="148" type="line"/>
      <point x="194" y="326" type="line"/>
      <point x="599" y="326" type="line"/>
      <point x="599" y="148" type="line"/>
    </contour>
    <contour>
      <point x="46" y="0" type="line"/>
      <point x="46" y="376" type="line" smooth="yes"/>
      <point x="46" y="534"/>
      <point x="221" y="700"/>
      <point x="386" y="700" type="qcurve" smooth="yes"/>
      <point x="599" y="700" type="line"/>
      <point x="599" y="509" type="line"/>
      <point x="408" y="509" type="line" smooth="yes"/>
      <point x="341" y="509"/>
      <point x="282" y="444"/>
      <point x="282" y="370" type="qcurve" smooth="yes"/>
      <point x="282" y="0" type="line"/>
    </contour>
  </outline>
</glyph>
<glyph name="Eogonek.ss01" format="2">
  <advance width="695"/>
  <anchor x="375" y="700" name="t.uni0308"/>
  <anchor x="375" y="0" name="b.uni0324_3"/>
  <outline>
    <contour>
      <point x="557" y="-240" type="qcurve" smooth="yes"/>
      <point x="482" y="-240"/>
      <point x="399" y="-173"/>
      <point x="399" y="-117" type="qcurve" smooth="yes"/>
      <point x="399" y="-70"/>
      <point x="459" y="5"/>
      <point x="514" y="30" type="qcurve"/>
      <point x="514" y="-6" type="line"/>
      <point x="484" y="-10"/>
      <point x="423" y="-16"/>
      <point x="393" y="-16" type="qcurve" smooth="yes"/>
      <point x="272" y="-16"/>
      <point x="109" y="40"/>
      <point x="26" y="139"/>
      <point x="26" y="202" type="qcurve" smooth="yes"/>
      <point x="26" y="254"/>
      <point x="81" y="336"/>
      <point x="186" y="385"/>
      <point x="260" y="385" type="qcurve"/>
      <point x="265" y="333" type="line"/>
      <point x="194" y="333"/>
      <point x="101" y="378"/>
      <point x="55" y="454"/>
      <point x="55" y="498" type="qcurve" smooth="yes"/>
      <point x="55" y="555"/>
      <point x="130" y="654"/>
      <point x="286" y="716"/>
      <point x="407" y="716" type="qcurve" smooth="yes"/>
      <point x="480" y="716"/>
      <point x="617" y="691"/>
      <point x="669" y="670" type="qcurve"/>
      <point x="605" y="498" type="line"/>
      <point x="555" y="518"/>
      <point x="462" y="536"/>
      <point x="416" y="536" type="qcurve" smooth="yes"/>
      <point x="352" y="536"/>
      <point x="293" y="507"/>
      <point x="293" y="483" type="qcurve" smooth="yes"/>
      <point x="293" y="464"/>
      <point x="321" y="440"/>
      <point x="358" y="440" type="qcurve" smooth="yes"/>
      <point x="563" y="440" type="line"/>
      <point x="563" y="266" type="line"/>
      <point x="342" y="266" type="line" smooth="yes"/>
      <point x="315" y="266"/>
      <point x="281" y="254"/>
      <point x="264" y="233"/>
      <point x="264" y="218" type="qcurve" smooth="yes"/>
      <point x="264" y="194"/>
      <point x="327" y="164"/>
      <point x="402" y="164" type="qcurve" smooth="yes"/>
      <point x="454" y="164"/>
      <point x="574" y="192"/>
      <point x="620" y="217" type="qcurve"/>
      <point x="689" y="46" type="line"/>
      <point x="633" y="22"/>
      <point x="563" y="-29"/>
      <point x="531" y="-75"/>
      <point x="531" y="-94" type="qcurve" smooth="yes"/>
      <point x="531" y="-113"/>
      <point x="556" y="-138"/>
      <point x="584" y="-138" type="qcurve" smooth="yes"/>
      <point x="601" y="-138"/>
      <point x="632" y="-129"/>
      <point x="643" y="-124" type="qcurve"/>
      <point x="670" y="-217" type="line"/>
      <point x="652" y="-227"/>
      <point x="589" y="-240"/>
    </contour>
  </outline>
</glyph>
<glyph name="F.ss01" format="2">
  <advance width="625"/>
  <outline>
    <contour>
      <point x="51" y="0" type="line"/>
      <point x="51" y="400" type="line" smooth="yes"/>
      <point x="51" y="552"/>
      <point x="238" y="716"/>
      <point x="408" y="716" type="qcurve" smooth="yes"/>
      <point x="470" y="716"/>
      <point x="578" y="693"/>
      <point x="616" y="673" type="qcurve"/>
      <point x="548" y="495" type="line"/>
      <point x="519" y="511"/>
      <point x="455" y="525"/>
      <point x="428" y="525" type="qcurve" smooth="yes"/>
      <point x="361" y="525"/>
      <point x="287" y="467"/>
      <point x="287" y="405" type="qcurve" smooth="yes"/>
      <point x="287" y="0" type="line"/>
    </contour>
    <contour>
      <point x="196" y="224" type="line"/>
      <point x="196" y="402" type="line"/>
      <point x="535" y="402" type="line"/>
      <point x="535" y="224" type="line"/>
    </contour>
  </outline>
</glyph>
<glyph name="G.ss01" format="2">
  <advance width="769"/>
  <anchor x="424" y="701" name="t.uni0308"/>
  <anchor x="410" y="3" name="b.uni0324_3"/>
  <outline>
    <contour>
      <point x="383" y="-16" type="qcurve" smooth="yes"/>
      <point x="310" y="-16"/>
      <point x="182" y="30"/>
      <point x="84" y="121"/>
      <point x="29" y="254"/>
      <point x="29" y="341" type="qcurve" smooth="yes"/>
      <point x="29" y="425"/>
      <point x="87" y="563"/>
      <point x="193" y="662"/>
      <point x="338" y="716"/>
      <point x="425" y="716" type="qcurve" smooth="yes"/>
      <point x="529" y="716"/>
      <point x="692" y="646"/>
      <point x="745" y="581" type="qcurve"/>
      <point x="594" y="448" type="line"/>
      <point x="561" y="486"/>
      <point x="484" y="525"/>
      <point x="437" y="525" type="qcurve" smooth="yes"/>
      <point x="398" y="525"/>
      <point x="335" y="501"/>
      <point x="291" y="454"/>
      <point x="267" y="386"/>
      <point x="267" y="343" type="qcurve" smooth="yes"/>
      <point x="267" y="298"/>
      <point x="290" y="232"/>
      <point x="331" y="191"/>
      <point x="385" y="171"/>
      <point x="416" y="171" type="qcurve" smooth="yes"/>
      <point x="463" y="171"/>
      <point x="543" y="211"/>
      <point x="563" y="251" type="qcurve"/>
      <point x="663" y="189" type="line"/>
      <point x="627" y="77"/>
      <point x="483" y="-16"/>
    </contour>
    <contour>
      <point x="571" y="0" type="line"/>
      <point x="571" y="90" type="line"/>
      <point x="520" y="115" type="line"/>
      <point x="520" y="369" type="line"/>
      <point x="725" y="369" type="line"/>
      <point x="725" y="0" type="line"/>
    </contour>
  </outline>
</glyph>
<glyph name="Iacute_J.loclNLD" format="2">
  <advance width="729"/>
  <outline>
    <contour>
      <point x="328" y="-10" type="qcurve" smooth="yes"/>
      <point x="238" y="-10"/>
      <point x="86" y="36"/>
      <point x="31" y="75" type="qcurve"/>
      <point x="117" y="242" type="line"/>
      <point x="167" y="211"/>
      <point x="273" y="178"/>
      <point x="317" y="178" type="qcurve" smooth="yes"/>
      <point x="382" y="178"/>
      <point x="442" y="245"/>
      <point x="442" y="318" type="qcurve" smooth="yes"/>
      <point x="442" y="700" type="line"/>
      <point x="678" y="700" type="line"/>
      <point x="678" y="331" type="line" smooth="yes"/>
      <point x="678" y="221"/>
      <point x="591" y="69"/>
      <point x="433" y="-10"/>
    </contour>
    <contour>
      <point x="51" y="336" type="line"/>
      <point x="51" y="700" type="line"/>
      <point x="287" y="700" type="line"/>
      <point x="287" y="336" type="line"/>
    </contour>
    <contour>
      <point x="64" y="757" type="line"/>
      <point x="196" y="917" type="line"/>
      <point x="411" y="917" type="line"/>
      <point x="214" y="757" type="line"/>
    </contour>
    <contour>
      <point x="454" y="757" type="line"/>
      <point x="586" y="917" type="line"/>
      <point x="801" y="917" type="line"/>
      <point x="604" y="757" type="line"/>
    </contour>
  </outline>
</glyph>
<glyph name="J.ss01" format="2">
  <advance width="574"/>
  <anchor x="288" y="700" name="t.uni0308"/>
  <outline>
    <contour>
      <point x="234" y="-116" type="qcurve" smooth="yes"/>
      <point x="152" y="-116"/>
      <point x="20" y="-63"/>
      <point x="-24" y="-12" type="qcurve"/>
      <point x="103" y="138" type="line"/>
      <point x="131" y="104"/>
      <point x="185" y="69"/>
      <point x="214" y="69" type="qcurve" smooth="yes"/>
      <point x="290" y="69"/>
      <point x="290" y="156" type="qcurve" smooth="yes"/>
      <point x="290" y="522" type="line"/>
      <point x="52" y="522" type="line"/>
      <point x="52" y="700" type="line"/>
      <point x="523" y="700" type="line"/>
      <point x="523" y="170" type="line" smooth="yes"/>
      <point x="523" y="26"/>
      <point x="375" y="-116"/>
    </contour>
  </outline>
</glyph>
<glyph name="Q.ss01.BRACKET.170" format="2">
  <advance width="848"/>
  <outline>
    <contour>
      <point x="306" y="-135" type="line"/>
      <point x="306" y="65" type="line"/>
      <point x="542" y="65" type="line"/>
      <point x="542" y="-135" type="line"/>
    </contour>
    <contour>
      <point x="425" y="-16" type="qcurve" smooth="yes"/>
      <point x="339" y="-16"/>
      <point x="194" y="38"/>
      <point x="88" y="137"/>
      <point x="29" y="271"/>
      <point x="29" y="350" type="qcurve" smooth="yes"/>
      <point x="29" y="430"/>
      <point x="88" y="563"/>
      <point x="194" y="662"/>
      <point x="339" y="716"/>
      <point x="424" y="716" type="qcurve" smooth="yes"/>
      <point x="510" y="716"/>
      <point x="654" y="662"/>
      <point x="760" y="563"/>
      <point x="819" y="430"/>
      <point x="819" y="350" type="qcurve" smooth="yes"/>
      <point x="819" y="271"/>
      <point x="760" y="137"/>
      <point x="654" y="38"/>
      <point x="510" y="-16"/>
    </contour>
    <contour>
      <point x="424" y="175" type="qcurve" smooth="yes"/>
      <point x="457" y="175"/>
      <point x="514" y="199"/>
      <point x="557" y="244"/>
      <point x="581" y="309"/>
      <point x="581" y="350" type="qcurve" smooth="yes"/>
      <point x="581" y="391"/>
      <point x="557" y="456"/>
      <point x="514" y="501"/>
      <point x="457" y="525"/>
      <point x="424" y="525" type="qcurve" smooth="yes"/>
      <point x="391" y="525"/>
      <point x="334" y="501"/>
      <point x="291" y="456"/>
      <point x="267" y="391"/>
      <point x="267" y="350" type="qcurve" smooth="yes"/>
      <point x="267" y="309"/>
      <point x="291" y="244"/>
      <point x="334" y="199"/>
      <point x="391" y="175"/>
    </contour>
  </outline>
</glyph>
<glyph name="Sigma.2" format="2">
  <advance width="681"/>
  <anchor x="353" y="547" name="t.uni0308"/>
  <anchor x="353" y="0" name="b.uni0324_3"/>
  <anchor x="637" y="0" name="m.uni0328_4"/>
  <outline>
    <contour>
      <point x="287" y="-10" type="qcurve" smooth="yes"/>
      <point x="216" y="-10"/>
      <point x="95" y="59"/>
      <point x="23" y="186"/>
      <point x="23" y="274" type="qcurve" smooth="yes"/>
      <point x="23" y="362"/>
      <point x="95" y="489"/>
      <point x="216" y="557"/>
      <point x="287" y="557" type="qcurve" smooth="yes"/>
      <point x="359" y="557"/>
      <point x="451" y="496"/>
      <point x="495" y="371"/>
      <point x="495" y="274" type="qcurve" smooth="yes"/>
      <point x="495" y="176"/>
      <point x="454" y="50"/>
      <point x="363" y="-10"/>
    </contour>
    <contour>
      <point x="341" y="166" type="qcurve" smooth="yes"/>
      <point x="366" y="166"/>
      <point x="406" y="190"/>
      <point x="430" y="239"/>
      <point x="430" y="274" type="qcurve" smooth="yes"/>
      <point x="430" y="310"/>
      <point x="406" y="357"/>
      <point x="366" y="381"/>
      <point x="341" y="381" type="qcurve" smooth="yes"/>
      <point x="316" y="381"/>
      <point x="276" y="357"/>
      <point x="252" y="310"/>
      <point x="252" y="274" type="qcurve" smooth="yes"/>
      <point x="252" y="239"/>
      <point x="276" y="190"/>
      <point x="316" y="166"/>
    </contour>
    <contour>
      <point x="437" y="0" type="line"/>
      <point x="437" y="74" type="line"/>
      <point x="436" y="274" type="line"/>
      <point x="426" y="474" type="line"/>
      <point x="426" y="547" type="line"/>
      <point x="652" y="547" type="line"/>
      <point x="652" y="0" type="line"/>
    </contour>
  </outline>
</glyph>
